<!-- Generated by IcoMoon.io -->
<svg version="1.1" xmlns="http://www.w3.org/2000/svg" width="32" height="32" viewBox="0 0 32 32">
<title>cart</title>
<path fill="#f9c2d2" d="M26.393 27.267h-17.828c-1.551 0-2.813-1.262-2.813-2.813 0-1.555 1.262-2.815 2.813-2.815h2.813l-1.69 1.875h-1.121c-0.518 0-0.938 0.42-0.938 0.938s0.42 0.938 0.938 0.938v0h17.821v1.875z"></path>
<path fill="#f98aab" d="M17.949 25.391h8.442v1.875h-8.442v-1.875z"></path>
<path fill="#f98aab" opacity="0.5" d="M6.777 10.383l-0.837-3.755h-5.94v-1.875h7.445l1.624 7.278-2.292-1.647z"></path>
<path fill="#f9c2d2" d="M21.979 10.704l-0.281-0.32h-14.916l2.912 13.13h16.49l3.305-12.794c-0.64 0.16-4.442 3.508-7.509-0.016zM26.7 14.015l-0.519 1.994h-4.396l0.238-2.861c1.377 0.837 3.065 1.171 4.677 0.867zM16.001 16.010l-0.313-3.751h4.528l-0.313 3.751h-3.904zM19.747 17.885l-0.313 3.751h-2.966l-0.313-3.751h3.591zM13.805 12.259l0.313 3.751h-4.169l-0.83-3.751h4.684zM10.367 17.885h3.906l0.313 3.751h-3.387l-0.832-3.751zM21.316 21.636l0.311-3.751h4.071l-0.97 3.751h-3.412z"></path>
<path fill="#f98aab" d="M21.977 10.704l-0.281-0.32h-3.746v1.875h2.264l-0.316 3.751h-1.951v1.875h1.795l-0.313 3.751h-1.482v1.878h8.231l3.305-12.794c-0.64 0.16-4.442 3.508-7.509-0.016zM24.726 21.636h-3.41l0.311-3.751h4.071l-0.97 3.751zM26.695 14.015l-0.515 1.994h-4.398l0.238-2.861c1.375 0.837 3.065 1.171 4.675 0.867z"></path>
<path fill="#665151" d="M12.321 31.020c-1.486-0.087-2.657-1.313-2.657-2.813s1.172-2.726 2.65-2.813l0.008-0c1.551-0.002 2.813 1.258 2.813 2.811 0 1.551-1.262 2.813-2.813 2.813z"></path>
<path fill="#4d3535" d="M21.7 31.020c-1.486-0.087-2.657-1.313-2.657-2.813s1.172-2.726 2.65-2.813l0.008-0c1.553-0.002 2.813 1.258 2.813 2.811 0 1.551-1.26 2.813-2.813 2.813z"></path>
<path fill="#f9c2d2" d="M25.453 14.134c-3.626-0.001-6.565-2.94-6.566-6.566v-0c0.004-3.625 2.94-6.562 6.563-6.569h0.001c3.627 0.004 6.566 2.944 6.569 6.571v0c0 0.001 0 0.003 0 0.005 0 3.623-2.937 6.559-6.559 6.559-0.002 0-0.005 0-0.007 0h0z"></path>
<path fill="#fff7e6" d="M12.321 29.142c0.518 0 0.938-0.42 0.938-0.938s-0.42-0.938-0.938-0.938v0c-0.518 0-0.938 0.42-0.938 0.938s0.42 0.938 0.938 0.938v0z"></path>
<path fill="#ffeacc" d="M21.7 29.142c0.518 0 0.938-0.42 0.938-0.938s-0.42-0.938-0.938-0.938v0c-0.518 0-0.938 0.42-0.938 0.938s0.42 0.938 0.938 0.938v0z"></path>
<path fill="#f98aab" d="M32.020 7.568c-0.004-3.625-2.941-6.563-6.566-6.569h-0v13.135c0.002 0 0.004 0 0.007 0 3.623 0 6.559-2.937 6.559-6.559 0-0.002 0-0.005 0-0.007v0z"></path>
<path fill="#fff" d="M28.269 6.628h-1.875v-1.875h-1.878v1.875h-1.875v1.875h1.875v1.878h1.875v-1.875h1.875v-1.875z"></path>
<path fill="#fff" d="M25.453 4.753v5.631h0.938v-1.875h1.875v-1.875h-1.875v-1.875h-0.938z"></path>
</svg>
