<!-- Generated by IcoMoon.io -->
<svg version="1.1" xmlns="http://www.w3.org/2000/svg" width="32" height="32" viewBox="0 0 32 32">
<title>cart</title>
<path fill="#f9c2d2" d="M26.375 27.25h-17.813c-1.551 0-2.813-1.262-2.813-2.813s1.262-2.812 2.813-2.812h2.813l-1.69 1.875h-1.122c-0.517 0-0.938 0.42-0.938 0.938s0.42 0.938 0.938 0.938h17.813v1.875z"></path>
<path fill="#f98aab" d="M17.938 25.375h8.438v1.875h-8.438v-1.875z"></path>
<path fill="#f98aab" opacity="0.5" d="M6.774 10.375l-0.838-3.75h-5.936v-1.875h7.439l1.624 7.273-2.29-1.648z"></path>
<path fill="#f9c2d2" d="M21.966 10.696l-0.28-0.321h-14.908l2.91 13.125h16.478l3.304-12.786c-0.642 0.16-4.439 3.505-7.505-0.017zM26.682 14.007l-0.515 1.993h-4.396l0.238-2.86c1.375 0.838 3.065 1.171 4.673 0.867zM15.99 16l-0.313-3.75h4.526l-0.313 3.75h-3.901zM19.734 17.875l-0.313 3.75h-2.963l-0.313-3.75h3.588zM13.797 12.25l0.313 3.75h-4.164l-0.831-3.75h4.682zM10.361 17.875h3.904l0.313 3.75h-3.385l-0.831-3.75zM21.302 21.625l0.313-3.75h4.068l-0.969 3.75h-3.412z"></path>
<path fill="#f98aab" d="M21.963 10.696l-0.28-0.321h-3.745v1.875h2.263l-0.313 3.75h-1.95v1.875h1.794l-0.313 3.75h-1.482v1.875h8.226l3.304-12.786c-0.642 0.16-4.439 3.505-7.505-0.017zM24.712 21.625h-3.412l0.313-3.75h4.068l-0.969 3.75zM26.68 14.007l-0.515 1.993h-4.396l0.238-2.86c1.375 0.838 3.065 1.171 4.673 0.867z"></path>
<path fill="#665151" d="M12.313 31c-1.551 0-2.813-1.262-2.813-2.813s1.262-2.812 2.813-2.812c1.551 0 2.813 1.262 2.813 2.812s-1.262 2.813-2.813 2.813z"></path>
<path fill="#4d3535" d="M21.688 31c-1.551 0-2.813-1.262-2.813-2.813s1.262-2.812 2.813-2.812c1.551 0 2.813 1.262 2.813 2.812s-1.262 2.813-2.813 2.813z"></path>
<path fill="#f9c2d2" d="M25.438 14.125c-3.719 0-6.563-3.038-6.563-6.563 0-3.618 2.944-6.563 6.563-6.563s6.563 2.944 6.563 6.563c0 3.706-3.011 6.563-6.563 6.563z"></path>
<path fill="#fff7e6" d="M12.313 29.125c0.518 0 0.938-0.42 0.938-0.938s-0.42-0.937-0.938-0.937-0.938 0.42-0.938 0.937c0 0.518 0.42 0.938 0.938 0.938z"></path>
<path fill="#ffeacc" d="M21.688 29.125c0.518 0 0.938-0.42 0.938-0.938s-0.42-0.937-0.938-0.937-0.938 0.42-0.938 0.937c0 0.518 0.42 0.938 0.938 0.938z"></path>
<path fill="#f98aab" d="M32 7.563c0-3.618-2.944-6.563-6.563-6.563v13.125c3.552 0 6.563-2.856 6.563-6.563z"></path>
<path fill="#fff" d="M28.25 6.625h-1.875v-1.875h-1.875v1.875h-1.875v1.875h1.875v1.875h1.875v-1.875h1.875v-1.875z"></path>
<path fill="#fff" d="M25.438 4.75v5.625h0.938v-1.875h1.875v-1.875h-1.875v-1.875h-0.938z"></path>
</svg>
