<!-- Generated by IcoMoon.io -->
<svg version="1.1" xmlns="http://www.w3.org/2000/svg" width="32" height="32" viewBox="0 0 32 32">
<title>fb</title>
<path fill="#3c5a9a" d="M32 16c0 8.837-7.163 16-16 16s-16-7.163-16-16c0-8.837 7.163-16 16-16s16 7.163 16 16z"></path>
<path fill="#fff" d="M21.203 4.911h-3.544c-2.103 0-4.443 0.885-4.443 3.934 0.010 1.062 0 2.080 0 3.225h-2.433v3.872h2.509v11.147h4.61v-11.221h3.043l0.275-3.809h-3.397s0.008-1.695 0-2.187c0-1.205 1.254-1.136 1.329-1.136 0.597 0 1.757 0.002 2.054 0v-3.825h-0.002z"></path>
</svg>
