<!-- Generated by IcoMoon.io -->
<svg version="1.1" xmlns="http://www.w3.org/2000/svg" width="21" height="32" viewBox="0 0 21 32">
<title>hend</title>
<path fill="#f98aab" d="M12.017 7.765c1.64-0.681 2.522-2.267 2.123-3.818s-1.972-2.653-3.787-2.653c-1.815 0-3.388 1.102-3.787 2.653s0.483 3.137 2.124 3.818h3.327z"></path>
<path fill="#f98aab" d="M5.953 9.059c-0.143 0-0.28-0.062-0.377-0.172-2.15-2.406-2.266-6.128-0.27-8.678 0.116-0.156 0.303-0.233 0.489-0.202s0.34 0.167 0.404 0.353c0.064 0.187 0.028 0.395-0.096 0.545-1.664 2.125-1.566 5.228 0.227 7.231 0.141 0.159 0.18 0.392 0.098 0.592s-0.269 0.33-0.475 0.33z"></path>
<path fill="#f98aab" d="M15.561 6.471c-0.199 0-0.383-0.084-0.486-0.221s-0.111-0.308-0.021-0.451c1.040-1.637 0.773-3.618-0.679-5.035-0.136-0.127-0.176-0.303-0.105-0.46s0.241-0.272 0.446-0.298 0.411 0.039 0.539 0.17c1.742 1.701 2.063 4.078 0.815 6.044-0.098 0.154-0.294 0.251-0.508 0.251z"></path>
<path fill="#f98aab" d="M20.706 14.804v8.346c0 0 0 2.842-1.729 4.487-0.196 0.195-0.305 0.467-0.299 0.749v1.618c-0.002 0.582-0.455 1.053-1.014 1.055h-8.114c-0.56-0.002-1.013-0.473-1.014-1.055v-0.195c0.001-0.845-0.326-1.655-0.908-2.246-0.979-0.991-2.49-2.705-3.149-4.413-1.014-2.636-3.043-6.327-4.057-7.381s0-2.109 1.014-2.109c1.014 0 3.043 2.109 4.057 3.691 0.323 0.509 0.701 0.978 1.126 1.397 0.252 0.244 0.607 0.337 0.941 0.248s0.6-0.35 0.707-0.691c0.193-0.65 0.284-1.329 0.269-2.009v-12.126c-0.003-0.67 0.405-1.268 1.014-1.487 0.162-0.064 0.334-0.096 0.507-0.095 0.84 0 1.521 0.708 1.521 1.582v6.327c-0.003-0.67 0.405-1.268 1.014-1.487 0.162-0.064 0.334-0.096 0.507-0.095 0.84 0 1.521 0.708 1.521 1.582v1.582c0-0.419 0.161-0.822 0.446-1.118 0.159-0.168 0.353-0.294 0.568-0.369 0.162-0.064 0.334-0.096 0.507-0.095 0.84 0 1.521 0.708 1.521 1.582v2.636c0-0.419 0.16-0.822 0.446-1.118 0.159-0.168 0.353-0.294 0.568-0.369 0.198-0.075 0.409-0.106 0.619-0.089 0.815 0.090 1.427 0.814 1.41 1.666z"></path>
<path fill="#f8edf0" d="M10.381 2.621c-0.178-0.001-0.356 0.031-0.522 0.094-0.628 0.217-1.048 0.809-1.045 1.473v12.015c0.016 0.674-0.078 1.346-0.277 1.99-0.082 0.242-0.249 0.446-0.47 0.575 0.272 0.16 0.601 0.187 0.895 0.076s0.523-0.351 0.62-0.65c0.199-0.644 0.293-1.316 0.277-1.99v-12.015c-0.003-0.664 0.417-1.257 1.045-1.473-0.167-0.063-0.344-0.095-0.523-0.094z"></path>
<path fill="#f8edf0" d="M12.994 8.984c-0.628 0.217-1.048 0.809-1.045 1.473v4.702c0 0.289 0.234 0.522 0.522 0.522s0.522-0.234 0.522-0.522v-4.702c-0.003-0.664 0.417-1.257 1.045-1.473-0.337-0.125-0.708-0.125-1.045 0z"></path>
<path fill="#f8edf0" d="M16.134 10.552c-0.221 0.074-0.421 0.199-0.585 0.366-0.294 0.293-0.46 0.692-0.46 1.107v3.135c0 0.289 0.234 0.522 0.523 0.522s0.522-0.234 0.522-0.522v-3.135c-0.003-0.664 0.417-1.256 1.045-1.473-0.337-0.125-0.708-0.125-1.045 0z"></path>
<path fill="#f8edf0" d="M19.789 13.069c-0.178-0.001-0.356 0.031-0.522 0.094-0.221 0.074-0.422 0.2-0.585 0.366-0.294 0.293-0.46 0.692-0.46 1.107v1.045c0 0.289 0.234 0.523 0.522 0.523s0.523-0.234 0.523-0.523v-1.045c-0.003-0.664 0.417-1.256 1.045-1.473-0.167-0.063-0.344-0.095-0.522-0.094z"></path>
<path fill="#f8edf0" d="M18.765 18.118c-0.357 0-0.647 0.217-0.647 0.485v2.912c0 0.268 0.29 0.485 0.647 0.485s0.647-0.217 0.647-0.485v-2.912c0-0.268-0.29-0.485-0.647-0.485z"></path>
<path fill="#f8edf0" d="M18.993 23.294c-0.232 0.005-0.422 0.276-0.44 0.623-0.032 0.329-0.14 0.63-0.304 0.852-0.112 0.162-0.156 0.403-0.117 0.629s0.157 0.403 0.307 0.462c0.15 0.059 0.31-0.008 0.418-0.177 0.327-0.456 0.526-1.083 0.555-1.752-0-0.349-0.187-0.633-0.419-0.638z"></path>
<path fill="#f8edf0" d="M11.216 28.471h-0.431c-0.238 0-0.431 0.29-0.431 0.647s0.193 0.647 0.431 0.647h0.431c0.238 0 0.431-0.29 0.431-0.647s-0.193-0.647-0.431-0.647z"></path>
<path fill="#f8edf0" d="M16.392 28.471h-3.020c-0.238 0-0.431 0.29-0.431 0.647s0.193 0.647 0.431 0.647h3.020c0.238 0 0.431-0.29 0.431-0.647s-0.193-0.647-0.431-0.647z"></path>
</svg>
