<!-- Generated by IcoMoon.io -->
<svg version="1.1" xmlns="http://www.w3.org/2000/svg" width="32" height="32" viewBox="0 0 32 32">
<title>hend</title>
<path fill="#f98aab" d="M17.67 7.77c1.641-0.682 2.524-2.268 2.125-3.82s-1.974-2.656-3.79-2.656-3.39 1.104-3.79 2.656c-0.399 1.552 0.484 3.138 2.125 3.82h3.33z"></path>
<path fill="#f98aab" d="M11.601 9.066c-0.15-0.001-0.285-0.068-0.376-0.173l-0.001-0.001c-2.151-2.407-2.268-6.133-0.269-8.685 0.093-0.127 0.241-0.208 0.408-0.208 0.029 0 0.057 0.002 0.084 0.007l-0.003-0c0.19 0.037 0.342 0.171 0.402 0.349l0.001 0.004c0.064 0.188 0.028 0.396-0.094 0.546-1.667 2.127-1.569 5.231 0.226 7.237 0.087 0.1 0.141 0.231 0.141 0.375 0 0.078-0.016 0.152-0.044 0.22l0.001-0.004c-0.076 0.194-0.26 0.329-0.476 0.332h-0zM21.217 6.476c-0.005 0-0.011 0-0.017 0-0.189 0-0.358-0.086-0.47-0.221l-0.001-0.001c-0.052-0.065-0.083-0.148-0.083-0.239 0-0.079 0.024-0.153 0.065-0.214l-0.001 0.001c1.040-1.639 0.772-3.618-0.68-5.037-0.086-0.073-0.14-0.181-0.14-0.302 0-0.057 0.012-0.111 0.034-0.16l-0.001 0.003c0.087-0.166 0.252-0.282 0.444-0.299l0.002-0c0.029-0.005 0.062-0.007 0.096-0.007 0.172 0 0.328 0.067 0.443 0.177l-0-0c1.742 1.703 2.064 4.082 0.816 6.048-0.11 0.154-0.288 0.253-0.489 0.253-0.007 0-0.014-0-0.021-0l0.001 0z"></path>
<path fill="#f98aab" d="M26.365 14.815v8.352s0 2.844-1.731 4.489c-0.185 0.186-0.3 0.443-0.3 0.727 0 0.008 0 0.016 0 0.024l-0-0.001v1.62c0 0.582-0.454 1.053-1.015 1.055h-8.118c-0.564-0.013-1.017-0.473-1.017-1.040 0-0.005 0-0.011 0-0.016v0.001-0.196c0.002-0.846-0.326-1.658-0.906-2.247-0.979-0.993-2.492-2.707-3.153-4.415-1.013-2.637-3.044-6.333-4.059-7.388s0-2.11 1.015-2.11 3.044 2.11 4.059 3.692c0.324 0.51 0.701 0.979 1.126 1.4 0.254 0.245 0.608 0.339 0.942 0.247 0.339-0.096 0.603-0.354 0.706-0.682l0.002-0.007c0.194-0.652 0.283-1.33 0.269-2.012v-12.134c-0-0.006-0-0.013-0-0.019 0-0.849 0.677-1.54 1.52-1.563l0.002-0c0.84 0 1.522 0.708 1.522 1.582v6.331c-0-0.006-0-0.013-0-0.019 0-0.85 0.678-1.541 1.522-1.563l0.002-0c0.84 0 1.522 0.708 1.522 1.582v1.582c0-0.418 0.16-0.821 0.446-1.117 0.154-0.163 0.345-0.289 0.559-0.366l0.010-0.003c0.147-0.060 0.318-0.094 0.497-0.094 0.004 0 0.008 0 0.012 0h-0.001c0.838 0 1.52 0.708 1.52 1.582v2.637c0-0.42 0.162-0.821 0.446-1.119 0.154-0.163 0.345-0.289 0.559-0.366l0.010-0.003c0.15-0.059 0.324-0.093 0.506-0.093 0.040 0 0.080 0.002 0.119 0.005l-0.005-0c0.816 0.090 1.428 0.814 1.411 1.667z"></path>
<path fill="#f8edf0" d="M16.034 2.624c-0.002 0-0.005-0-0.008-0-0.185 0-0.362 0.035-0.524 0.098l0.010-0.003c-0.614 0.216-1.045 0.791-1.045 1.467 0 0.002 0 0.004 0 0.006v-0 12.023c0.015 0.674-0.079 1.347-0.279 1.993-0.086 0.246-0.252 0.445-0.466 0.572l-0.005 0.003c0.151 0.090 0.333 0.144 0.527 0.144 0.459 0 0.849-0.298 0.987-0.711l0.002-0.007c0.2-0.646 0.294-1.319 0.279-1.993v-12.023c0-0.002 0-0.004 0-0.006 0-0.676 0.432-1.251 1.035-1.464l0.011-0.003c-0.153-0.060-0.33-0.094-0.515-0.094-0.003 0-0.006 0-0.009 0h0zM18.648 8.99c-0.614 0.216-1.045 0.791-1.045 1.467 0 0.002 0 0.004 0 0.006v-0 4.705c0.017 0.275 0.245 0.492 0.523 0.492s0.506-0.217 0.523-0.491l0-0.002v-4.705c0-0.002 0-0.004 0-0.006 0-0.676 0.432-1.251 1.035-1.464l0.011-0.003c-0.155-0.060-0.335-0.094-0.523-0.094s-0.367 0.034-0.533 0.098l0.010-0.003zM21.79 10.56c-0.614 0.22-1.045 0.797-1.045 1.475v0 3.134c0 0.289 0.234 0.523 0.523 0.523s0.523-0.234 0.523-0.523v0-3.136c0-0.002 0-0.004 0-0.006 0-0.676 0.432-1.251 1.035-1.464l0.011-0.003c-0.155-0.060-0.335-0.094-0.523-0.094s-0.367 0.034-0.533 0.098l0.010-0.003zM25.448 13.078c-0.003-0-0.006-0-0.010-0-0.185 0-0.361 0.035-0.524 0.098l0.010-0.003c-0.614 0.22-1.045 0.797-1.045 1.475v0 1.044c0 0.289 0.234 0.523 0.523 0.523s0.523-0.234 0.523-0.523v0-1.045c0-0.002 0-0.004 0-0.006 0-0.676 0.432-1.251 1.035-1.464l0.011-0.003c-0.153-0.060-0.329-0.094-0.514-0.094-0.003 0-0.006 0-0.008 0h0zM24.423 18.13c-0.358 0-0.648 0.217-0.648 0.486v2.914c0 0.267 0.29 0.486 0.648 0.486s0.648-0.218 0.648-0.486v-2.914c0-0.269-0.29-0.486-0.648-0.486zM24.651 23.31c-0.232 0.006-0.422 0.275-0.441 0.623-0.026 0.322-0.135 0.614-0.307 0.859l0.004-0.006c-0.084 0.133-0.134 0.294-0.134 0.467 0 0.057 0.006 0.114 0.016 0.168l-0.001-0.006c0.040 0.226 0.158 0.403 0.307 0.463 0.151 0.058 0.311-0.009 0.418-0.177 0.328-0.456 0.527-1.083 0.558-1.754 0-0.35-0.188-0.635-0.42-0.639zM16.868 28.49h-0.429c-0.237 0-0.431 0.29-0.431 0.648s0.194 0.648 0.433 0.648h0.429c0.239 0 0.433-0.292 0.433-0.648 0-0.358-0.194-0.648-0.433-0.648zM22.048 28.49h-3.021c-0.237 0-0.431 0.29-0.431 0.648s0.194 0.648 0.433 0.648h3.019c0.239 0 0.433-0.292 0.433-0.648 0-0.358-0.194-0.648-0.433-0.648z"></path>
</svg>
