<!-- Generated by IcoMoon.io -->
<svg version="1.1" xmlns="http://www.w3.org/2000/svg" width="32" height="32" viewBox="0 0 32 32">
<title>in</title>
<path fill="#000" d="M8.114 31.887c-1.903-0.087-2.937-0.403-3.624-0.671-0.911-0.355-1.561-0.777-2.244-1.46s-1.107-1.332-1.46-2.244c-0.268-0.688-0.585-1.721-0.671-3.624-0.095-2.057-0.114-2.674-0.114-7.886s0.021-5.828 0.113-7.887c0.087-1.903 0.405-2.935 0.671-3.624 0.355-0.911 0.778-1.561 1.46-2.245 0.683-0.683 1.332-1.107 2.244-1.46 0.688-0.268 1.721-0.585 3.624-0.671 2.058-0.094 2.676-0.113 7.886-0.113 5.212 0 5.828 0.021 7.887 0.113 1.903 0.087 2.935 0.405 3.624 0.671 0.911 0.353 1.561 0.777 2.244 1.46s1.105 1.333 1.46 2.244c0.268 0.688 0.585 1.721 0.671 3.624 0.094 2.059 0.113 2.675 0.113 7.887 0 5.21-0.019 5.828-0.113 7.887-0.087 1.903-0.405 2.937-0.671 3.624-0.355 0.911-0.777 1.561-1.46 2.244s-1.333 1.105-2.244 1.46c-0.688 0.268-1.721 0.585-3.624 0.671-2.057 0.094-2.675 0.113-7.887 0.113-5.21 0-5.828-0.018-7.885-0.113z"></path>
<path fill="#000" d="M8.114 31.887c-1.903-0.087-2.937-0.403-3.624-0.671-0.911-0.355-1.561-0.777-2.244-1.46s-1.107-1.332-1.46-2.244c-0.268-0.688-0.585-1.721-0.671-3.624-0.095-2.057-0.114-2.674-0.114-7.886s0.021-5.828 0.113-7.887c0.087-1.903 0.405-2.935 0.671-3.624 0.355-0.911 0.778-1.561 1.46-2.245 0.683-0.683 1.332-1.107 2.244-1.46 0.688-0.268 1.721-0.585 3.624-0.671 2.058-0.094 2.676-0.113 7.886-0.113 5.212 0 5.828 0.021 7.887 0.113 1.903 0.087 2.935 0.405 3.624 0.671 0.911 0.353 1.561 0.777 2.244 1.46s1.105 1.333 1.46 2.244c0.268 0.688 0.585 1.721 0.671 3.624 0.094 2.059 0.113 2.675 0.113 7.887 0 5.21-0.019 5.828-0.113 7.887-0.087 1.903-0.405 2.937-0.671 3.624-0.355 0.911-0.777 1.561-1.46 2.244s-1.333 1.105-2.244 1.46c-0.688 0.268-1.721 0.585-3.624 0.671-2.057 0.094-2.675 0.113-7.887 0.113-5.21 0-5.828-0.018-7.885-0.113z"></path>
<path fill="#fff" d="M12.071 16.068c0-2.188 1.774-3.963 3.962-3.963s3.963 1.775 3.963 3.963-1.775 3.963-3.963 3.963-3.962-1.775-3.962-3.963zM9.929 16.068c0 3.371 2.733 6.104 6.104 6.104s6.104-2.733 6.104-6.104-2.733-6.104-6.104-6.104-6.104 2.733-6.104 6.104zM20.953 9.722c0 0 0 0 0 0.001 0 0.788 0.639 1.427 1.427 1.427s1.427-0.639 1.427-1.427c0-0.788-0.638-1.426-1.426-1.427h-0.001c-0.788 0-1.426 0.639-1.427 1.426v0zM11.23 25.745c-1.159-0.053-1.789-0.246-2.208-0.409-0.555-0.216-0.951-0.473-1.367-0.889s-0.674-0.811-0.889-1.366c-0.163-0.418-0.356-1.049-0.409-2.208-0.058-1.253-0.069-1.63-0.069-4.804s0.012-3.55 0.069-4.804c0.053-1.159 0.247-1.788 0.409-2.208 0.216-0.555 0.473-0.951 0.889-1.367s0.811-0.674 1.367-0.889c0.418-0.163 1.049-0.356 2.208-0.409 1.253-0.058 1.63-0.069 4.803-0.069s3.55 0.012 4.804 0.069c1.159 0.053 1.788 0.247 2.208 0.409 0.555 0.215 0.951 0.473 1.367 0.889s0.673 0.812 0.889 1.367c0.163 0.418 0.356 1.049 0.409 2.208 0.058 1.254 0.069 1.63 0.069 4.804s-0.012 3.55-0.069 4.804c-0.053 1.159-0.247 1.789-0.409 2.208-0.216 0.555-0.473 0.951-0.889 1.366s-0.812 0.673-1.367 0.889c-0.418 0.163-1.049 0.356-2.208 0.409-1.253 0.058-1.63 0.069-4.804 0.069s-3.55-0.012-4.803-0.069zM11.132 4.252c-1.266 0.058-2.13 0.258-2.886 0.552-0.782 0.303-1.444 0.711-2.106 1.371s-1.068 1.323-1.371 2.106c-0.294 0.756-0.495 1.62-0.552 2.886-0.059 1.268-0.072 1.673-0.072 4.901s0.013 3.634 0.072 4.901c0.058 1.266 0.258 2.13 0.552 2.886 0.303 0.782 0.71 1.446 1.371 2.106s1.323 1.067 2.106 1.371c0.757 0.294 1.62 0.495 2.886 0.552 1.268 0.058 1.673 0.072 4.901 0.072s3.634-0.013 4.901-0.072c1.266-0.058 2.13-0.258 2.886-0.552 0.782-0.304 1.444-0.711 2.106-1.371s1.067-1.324 1.371-2.106c0.294-0.756 0.495-1.62 0.552-2.886 0.058-1.268 0.071-1.673 0.071-4.901s-0.013-3.634-0.071-4.901c-0.058-1.266-0.258-2.13-0.552-2.886-0.304-0.782-0.711-1.444-1.371-2.106s-1.324-1.068-2.105-1.371c-0.757-0.294-1.621-0.495-2.886-0.552-1.268-0.058-1.673-0.072-4.901-0.072s-3.634 0.013-4.902 0.072z"></path>
</svg>
