<!-- Generated by IcoMoon.io -->
<svg version="1.1" xmlns="http://www.w3.org/2000/svg" width="32" height="32" viewBox="0 0 32 32">
<title>insta</title>
<path fill="#000" d="M16.008 0.242c-6.58 0-8.504 0.007-8.878 0.038-1.35 0.112-2.191 0.325-3.106 0.781-0.705 0.35-1.262 0.756-1.811 1.326-1 1.038-1.606 2.315-1.825 3.833-0.107 0.737-0.138 0.887-0.144 4.652-0.002 1.255 0 2.906 0 5.121 0 6.575 0.007 8.497 0.039 8.87 0.109 1.314 0.315 2.141 0.751 3.045 0.834 1.731 2.427 3.030 4.303 3.515 0.65 0.167 1.367 0.259 2.288 0.303 0.39 0.017 4.369 0.029 8.349 0.029s7.961-0.005 8.342-0.024c1.067-0.050 1.686-0.133 2.371-0.31 1.91-0.501 3.451-1.787 4.286-3.484l0.017-0.039c0.428-0.882 0.645-1.741 0.743-2.986 0.021-0.271 0.030-4.601 0.030-8.924s-0.010-8.645-0.031-8.916c-0.099-1.265-0.316-2.116-0.758-3.016-0.362-0.736-0.765-1.286-1.349-1.848-1.043-0.996-2.318-1.602-3.837-1.821-0.736-0.106-0.883-0.138-4.65-0.144h-5.13z"></path>
<path fill="#000" d="M16.008 0.242c-6.58 0-8.504 0.007-8.878 0.038-1.35 0.112-2.191 0.325-3.106 0.781-0.705 0.35-1.262 0.756-1.811 1.326-1 1.038-1.606 2.315-1.825 3.833-0.107 0.737-0.138 0.887-0.144 4.652-0.002 1.255 0 2.906 0 5.121 0 6.575 0.007 8.497 0.039 8.87 0.109 1.314 0.315 2.141 0.751 3.045 0.834 1.731 2.427 3.030 4.303 3.515 0.65 0.167 1.367 0.259 2.288 0.303 0.39 0.017 4.369 0.029 8.349 0.029s7.961-0.005 8.342-0.024c1.067-0.050 1.686-0.133 2.371-0.31 1.91-0.501 3.451-1.787 4.286-3.484l0.017-0.039c0.428-0.882 0.645-1.741 0.743-2.986 0.021-0.271 0.030-4.601 0.030-8.924s-0.010-8.645-0.031-8.916c-0.099-1.265-0.316-2.116-0.758-3.016-0.362-0.736-0.765-1.286-1.349-1.848-1.043-0.996-2.318-1.602-3.837-1.821-0.736-0.106-0.883-0.138-4.65-0.144h-5.13z"></path>
<path fill="#fff" d="M16.001 4.364c-3.16 0-3.557 0.014-4.798 0.070-1.239 0.057-2.084 0.253-2.824 0.541-0.765 0.297-1.415 0.695-2.061 1.342s-1.045 1.296-1.343 2.061c-0.288 0.74-0.485 1.586-0.541 2.824-0.056 1.241-0.070 1.638-0.070 4.798s0.014 3.556 0.070 4.797c0.057 1.239 0.253 2.084 0.541 2.824 0.297 0.765 0.695 1.415 1.342 2.061s1.296 1.046 2.061 1.343c0.74 0.288 1.586 0.484 2.825 0.541 1.241 0.056 1.638 0.070 4.798 0.070s3.556-0.014 4.797-0.070c1.239-0.057 2.085-0.253 2.826-0.541 0.765-0.297 1.413-0.696 2.060-1.343s1.045-1.296 1.343-2.061c0.286-0.74 0.482-1.586 0.541-2.824 0.056-1.241 0.070-1.637 0.070-4.797s-0.015-3.557-0.070-4.798c-0.058-1.239-0.255-2.084-0.541-2.824-0.298-0.765-0.696-1.415-1.343-2.061s-1.295-1.045-2.061-1.342c-0.742-0.288-1.588-0.484-2.827-0.541-1.241-0.056-1.636-0.070-4.798-0.070zM14.957 6.461c0.31-0 0.655 0 1.044 0 3.107 0 3.475 0.011 4.702 0.067 1.135 0.052 1.75 0.241 2.16 0.401 0.543 0.211 0.93 0.463 1.337 0.87s0.659 0.795 0.871 1.338c0.159 0.41 0.349 1.025 0.401 2.16 0.056 1.227 0.068 1.595 0.068 4.701s-0.012 3.474-0.068 4.701c-0.052 1.135-0.241 1.75-0.401 2.16-0.211 0.543-0.463 0.93-0.871 1.337s-0.794 0.659-1.337 0.87c-0.41 0.16-1.026 0.349-2.16 0.401-1.227 0.056-1.595 0.068-4.702 0.068s-3.475-0.012-4.702-0.068c-1.135-0.052-1.75-0.242-2.161-0.401-0.543-0.211-0.931-0.463-1.338-0.87s-0.659-0.794-0.871-1.337c-0.159-0.41-0.349-1.025-0.401-2.16-0.056-1.227-0.067-1.595-0.067-4.703s0.011-3.474 0.067-4.701c0.052-1.135 0.241-1.75 0.401-2.16 0.211-0.543 0.463-0.931 0.871-1.338s0.795-0.659 1.338-0.871c0.41-0.16 1.026-0.349 2.161-0.401 1.073-0.048 1.489-0.063 3.658-0.065zM22.212 8.393c-0.771 0-1.396 0.625-1.396 1.396s0.625 1.396 1.396 1.396c0.771 0 1.396-0.625 1.396-1.396 0-0 0-0 0-0.001v0c0-0.771-0.625-1.396-1.396-1.396zM16.001 10.024c-3.3 0-5.976 2.676-5.976 5.976s2.676 5.975 5.976 5.975c3.3 0 5.975-2.674 5.975-5.975s-2.675-5.976-5.975-5.976zM16.001 12.121c2.142 0 3.879 1.736 3.879 3.879s-1.737 3.879-3.879 3.879c-2.142 0-3.879-1.737-3.879-3.879s1.736-3.879 3.879-3.879z"></path>
</svg>
