<!-- Generated by IcoMoon.io -->
<svg version="1.1" xmlns="http://www.w3.org/2000/svg" width="32" height="32" viewBox="0 0 32 32">
<title>lin</title>
<path fill="#069" d="M0 2.347c0-1.26 1.055-2.283 2.356-2.283h27.161c1.301 0 2.356 1.023 2.356 2.283v27.306c0 1.261-1.055 2.283-2.356 2.283h-27.161c-1.3 0-2.356-1.022-2.356-2.282v-27.307z"></path>
<path fill="#fff" d="M9.686 26.737v-14.349h-4.769v14.349h4.77zM7.302 10.429c1.663 0 2.698-1.102 2.698-2.479-0.031-1.408-1.035-2.479-2.666-2.479-1.632 0-2.698 1.071-2.698 2.479 0 1.377 1.035 2.479 2.636 2.479h0.031zM12.325 26.737h4.769v-8.012c0-0.428 0.031-0.858 0.157-1.164 0.345-0.857 1.129-1.745 2.447-1.745 1.725 0 2.416 1.316 2.416 3.245v7.675h4.769v-8.227c0-4.407-2.353-6.458-5.49-6.458-2.573 0-3.702 1.438-4.33 2.417h0.032v-2.080h-4.769c0.062 1.346-0 14.349-0 14.349z"></path>
</svg>
