<!-- Generated by IcoMoon.io -->
<svg version="1.1" xmlns="http://www.w3.org/2000/svg" width="32" height="32" viewBox="0 0 32 32">
<title>link</title>
<path fill="#0a66c2" d="M7.22 0.13h17.53c3.982 0.012 7.208 3.237 7.22 7.218v17.385c-0.013 3.981-3.238 7.205-7.218 7.217h-17.531c-3.982-0.012-7.206-3.236-7.22-7.216v-17.385c0.012-3.982 3.237-7.208 7.218-7.22h0.001z"></path>
<path fill="#fff" d="M12.797 12.464h4.040v2.081h0.057c0.565-1.009 1.938-2.081 3.991-2.081 4.264 0 5.052 2.654 5.052 6.106v7.3h-4.212v-6.488c0-1.486-0.031-3.398-2.191-3.398s-2.529 1.616-2.529 3.291v6.608h-4.209v-13.419zM10.406 8.401c0 1.21-0.981 2.191-2.191 2.191s-2.191-0.981-2.191-2.191c0-1.21 0.981-2.191 2.191-2.191v0c1.209 0.001 2.189 0.981 2.191 2.19v0zM6.031 12.464h4.376v13.406h-4.376v-13.406z"></path>
</svg>
