<!-- Generated by IcoMoon.io -->
<svg version="1.1" xmlns="http://www.w3.org/2000/svg" width="32" height="32" viewBox="0 0 32 32">
<title>master</title>
<path fill="#fff" d="M0 0h32v32h-32v-32z"></path>
<path fill="#e9b040" d="M16.007 22.087c1.439 1.326 3.371 2.13 5.473 2.13 4.514 0 8.167-3.681 8.167-8.21 0-4.542-3.653-8.223-8.167-8.223-2.102 0-4.034 0.804-5.473 2.13-1.65 1.509-2.694 3.681-2.694 6.094s1.044 4.584 2.694 6.080z"></path>
<path fill="#e9b040" d="M28.561 20.577c0-0.141 0.113-0.254 0.254-0.254 0.155 0 0.268 0.113 0.268 0.254 0 0.155-0.113 0.268-0.268 0.268-0.141 0-0.254-0.113-0.254-0.268zM28.815 20.789c0.113 0 0.211-0.099 0.211-0.212s-0.099-0.197-0.211-0.197c-0.099 0-0.197 0.085-0.197 0.197s0.099 0.212 0.197 0.212zM28.787 20.704h-0.056v-0.24h0.099c0.014 0 0.043 0 0.056 0.014 0.028 0.014 0.028 0.028 0.028 0.056s-0.014 0.056-0.042 0.056l0.056 0.113h-0.071l-0.028-0.099h-0.042v0.099-0.141h0.056c0.014 0 0.014-0.014 0.014-0.028s0-0.014-0.014-0.028h-0.056v0.198z"></path>
<path fill="#cc2131" d="M18.645 15.133c-0.028-0.296-0.085-0.578-0.141-0.875h-4.993c0.056-0.296 0.141-0.578 0.226-0.86h4.528c-0.12-0.363-0.235-0.652-0.363-0.934l0.024 0.059h-3.837c0.169-0.356 0.324-0.643 0.492-0.921l-0.026 0.046h2.892c-0.203-0.326-0.407-0.607-0.63-0.872l0.009 0.011h-1.651c0.262-0.318 0.534-0.604 0.826-0.869l0.007-0.006c-1.453-1.312-3.371-2.13-5.487-2.13-4.5 0-8.167 3.682-8.167 8.223 0 4.528 3.667 8.21 8.167 8.21 2.116 0 4.034-0.804 5.487-2.13 0.294-0.266 0.561-0.547 0.807-0.847l0.011-0.014h-1.651c-0.226-0.282-0.423-0.564-0.621-0.875h2.892c0.165-0.248 0.325-0.535 0.463-0.834l0.017-0.041h-3.837c-0.127-0.282-0.254-0.564-0.353-0.861h4.528c0.099-0.282 0.169-0.578 0.24-0.875 0.056-0.282 0.113-0.578 0.141-0.875 0.027-0.256 0.043-0.552 0.043-0.852 0-0.003 0-0.006 0-0.009v0c0-0.296-0.014-0.592-0.042-0.874z"></path>
<path fill="#fff" d="M28.561 17.911c0-0.155 0.113-0.268 0.254-0.268 0.155 0 0.268 0.113 0.268 0.268 0 0.141-0.113 0.268-0.268 0.268-0.141 0-0.254-0.127-0.254-0.268zM28.815 18.109c0.113 0 0.211-0.085 0.211-0.197s-0.099-0.197-0.211-0.197c-0.099 0-0.197 0.085-0.197 0.197s0.099 0.197 0.197 0.197zM28.787 18.024h-0.056v-0.226h0.155c0.028 0.014 0.028 0.043 0.028 0.071 0 0.014-0.014 0.042-0.042 0.056l0.056 0.099h-0.071l-0.028-0.085h-0.042v0.084-0.127h0.028c0.014 0 0.028 0 0.028-0.014 0.014 0 0.014-0.014 0.014-0.028 0 0 0-0.014-0.014-0.014 0-0.014-0.014 0-0.028 0h-0.028v0.183z"></path>
<path fill="#1b3771" d="M13.228 18.377c-0.268 0.070-0.466 0.113-0.663 0.113-0.423 0-0.677-0.268-0.677-0.748 0-0.099 0.014-0.197 0.028-0.31l0.056-0.324 0.042-0.268 0.381-2.313h0.846l-0.099 0.508h0.536l-0.127 0.846h-0.536l-0.226 1.382c-0.014 0.071-0.014 0.113-0.014 0.141 0 0.183 0.085 0.254 0.296 0.254 0.099 0 0.183-0.014 0.268-0.028l-0.113 0.748zM15.965 18.349c-0.31 0.085-0.592 0.127-0.903 0.127-0.959 0-1.509-0.508-1.509-1.509 0-1.171 0.649-2.017 1.552-2.017 0.719 0 1.185 0.48 1.185 1.227 0 0.254-0.028 0.494-0.099 0.832h-1.763c-0.014 0.056-0.014 0.085-0.014 0.113 0 0.395 0.268 0.592 0.776 0.592 0.324 0 0.606-0.070 0.917-0.211l-0.141 0.846zM15.443 16.332v-0.169c0-0.282-0.155-0.437-0.423-0.437-0.282 0-0.48 0.211-0.564 0.606l0.987 0zM6.458 18.419h-0.875l0.508-3.202-1.143 3.202h-0.606l-0.071-3.188-0.536 3.188h-0.86l0.691-4.161h1.284l0.028 2.567 0.86-2.567h1.411l-0.691 4.161zM8.588 16.91c-0.085-0.014-0.113-0.014-0.169-0.014-0.508 0-0.762 0.197-0.762 0.508 0 0.212 0.127 0.353 0.324 0.353 0.423 0 0.592-0.353 0.607-0.846zM9.293 18.419h-0.762l0.014-0.352c-0.198 0.268-0.466 0.409-0.931 0.409-0.423 0-0.79-0.381-0.79-0.931 0-0.155 0.028-0.296 0.071-0.437 0.141-0.522 0.663-0.846 1.467-0.861 0.099 0 0.254 0 0.395 0.014 0.028-0.113 0.028-0.155 0.028-0.226 0-0.226-0.183-0.296-0.592-0.296-0.254 0-0.536 0.042-0.733 0.113l-0.127 0.028-0.056 0.014 0.127-0.762c0.409-0.127 0.705-0.183 1.030-0.183 0.762 0 1.171 0.353 1.171 1.001 0 0.169 0.014 0.296-0.042 0.663l-0.197 1.213-0.028 0.212-0.014 0.169-0.014 0.113-0.014 0.098zM20.225 15.062c0.254 0 0.48 0.071 0.79 0.226l0.155-0.903c-0.085-0.042-0.113-0.042-0.226-0.085l-0.352-0.099c-0.113-0.028-0.254-0.042-0.409-0.042-0.437 0-0.691 0.014-0.959 0.169-0.141 0.099-0.325 0.226-0.522 0.451l-0.113-0.028-0.903 0.635 0.043-0.353h-0.931l-0.55 3.385h0.889l0.324-1.819s0.127-0.254 0.183-0.338c0.169-0.212 0.31-0.212 0.494-0.212h0.071c-0.027 0.187-0.043 0.402-0.043 0.621 0 0.010 0 0.019 0 0.029v-0.002c0 1.1 0.621 1.791 1.58 1.791 0.24 0 0.452-0.028 0.776-0.113l0.155-0.959c-0.282 0.155-0.536 0.226-0.748 0.226-0.522 0-0.832-0.395-0.832-1.015-0-0.917 0.465-1.566 1.128-1.566zM27.714 14.258l-0.197 1.185c-0.212-0.324-0.466-0.48-0.804-0.48-0.466 0-0.903 0.268-1.171 0.776v-0.014l-0.564-0.339 0.056-0.353h-0.945l-0.536 3.385h0.875l0.296-1.819s0.226-0.254 0.282-0.338c0.141-0.169 0.282-0.198 0.395-0.212-0.099 0.282-0.155 0.621-0.155 1.002 0 0.846 0.437 1.41 1.086 1.41 0.325 0 0.578-0.113 0.818-0.381l-0.042 0.338h0.832l0.677-4.161h-0.903zM26.628 17.615c-0.296 0-0.451-0.226-0.451-0.663 0-0.663 0.282-1.143 0.691-1.143 0.31 0 0.466 0.24 0.466 0.663 0 0.677-0.282 1.142-0.705 1.142zM22.552 16.91c-0.085-0.014-0.113-0.014-0.169-0.014-0.508 0-0.762 0.197-0.762 0.508 0 0.212 0.127 0.353 0.325 0.353 0.423 0 0.593-0.353 0.607-0.846zM23.257 18.419h-0.776l0.028-0.352c-0.197 0.268-0.466 0.409-0.931 0.409-0.437 0-0.818-0.367-0.818-0.931 0-0.804 0.606-1.298 1.566-1.298 0.099 0 0.254 0 0.381 0.014 0.028-0.113 0.043-0.155 0.043-0.226 0-0.226-0.183-0.296-0.607-0.296-0.24 0-0.536 0.042-0.733 0.113l-0.169 0.042 0.127-0.762c0.409-0.127 0.706-0.183 1.030-0.183 0.762 0 1.157 0.353 1.157 1.001 0 0.169 0.028 0.296-0.042 0.663l-0.183 1.213-0.028 0.212-0.028 0.169-0.014 0.113v0.098h-0zM11.141 15.753c0.169 0 0.409 0.014 0.663 0.056l0.127-0.79c-0.254-0.028-0.592-0.071-0.79-0.071-0.987 0-1.312 0.536-1.312 1.157 0 0.409 0.183 0.705 0.663 0.931 0.353 0.169 0.409 0.197 0.409 0.353 0 0.211-0.183 0.338-0.522 0.338-0.268 0-0.522-0.043-0.804-0.141l-0.099 0.776 0.014 0.014 0.169 0.028c0.056 0.014 0.127 0.028 0.226 0.042 0.211 0.014 0.395 0.028 0.508 0.028 0.987 0 1.396-0.381 1.396-1.128 0-0.465-0.226-0.747-0.663-0.945-0.381-0.169-0.423-0.197-0.423-0.353s0.169-0.296 0.437-0.296z"></path>
<path fill="#fff" d="M21.41 14.117l-0.155 0.903c-0.31-0.155-0.536-0.226-0.79-0.226-0.663 0-1.128 0.649-1.128 1.566 0 0.635 0.31 1.015 0.832 1.015 0.211 0 0.465-0.070 0.747-0.211l-0.155 0.945c-0.325 0.085-0.536 0.127-0.776 0.127-0.959 0-1.552-0.691-1.552-1.805 0-1.481 0.818-2.525 1.989-2.525 0.155 0 0.296 0.014 0.409 0.042l0.353 0.085c0.113 0.042 0.141 0.056 0.226 0.085zM18.56 14.738h-0.085c-0.296 0-0.465 0.141-0.733 0.55l0.085-0.522h-0.804l-0.55 3.385h0.889c0.324-2.073 0.409-2.426 0.832-2.426h0.056c0.085-0.409 0.197-0.705 0.338-0.973l-0.028-0.014zM13.454 18.109c-0.24 0.085-0.437 0.113-0.635 0.113-0.451 0-0.705-0.254-0.705-0.747 0-0.085 0.014-0.197 0.028-0.296l0.056-0.338 0.042-0.268 0.381-2.314h0.875l-0.099 0.508h0.451l-0.113 0.832h-0.451l-0.24 1.411c-0.014 0.056-0.014 0.099-0.014 0.141 0 0.169 0.085 0.24 0.296 0.24 0.099 0 0.183 0 0.24-0.028l-0.113 0.747zM10.055 15.838c0 0.423 0.197 0.719 0.663 0.945 0.367 0.169 0.423 0.226 0.423 0.367 0 0.212-0.155 0.31-0.508 0.31-0.268 0-0.508-0.042-0.79-0.127l-0.127 0.776 0.042 0.014 0.155 0.028c0.056 0.014 0.127 0.028 0.24 0.028 0.197 0.028 0.367 0.028 0.48 0.028 0.931 0 1.368-0.353 1.368-1.128 0-0.466-0.183-0.734-0.621-0.945-0.381-0.169-0.423-0.211-0.423-0.367 0-0.183 0.155-0.268 0.437-0.268 0.169 0 0.409 0.014 0.635 0.042l0.127-0.776c-0.226-0.042-0.578-0.071-0.776-0.071-0.987-0-1.34 0.522-1.326 1.142zM28.166 18.151h-0.832l0.043-0.325c-0.24 0.254-0.494 0.367-0.818 0.367-0.649 0-1.072-0.55-1.072-1.396 0-1.129 0.663-2.088 1.439-2.088 0.353 0 0.607 0.155 0.847 0.466l0.197-1.185h0.875l-0.677 4.161zM26.868 17.361c0.409 0 0.691-0.48 0.691-1.143 0-0.437-0.155-0.663-0.466-0.663-0.395 0-0.691 0.466-0.691 1.129 0 0.452 0.155 0.677 0.465 0.677zM16.162 18.080c-0.31 0.099-0.592 0.141-0.917 0.141-0.987 0-1.495-0.522-1.495-1.523 0-1.157 0.649-2.017 1.538-2.017 0.733 0 1.199 0.48 1.199 1.227 0 0.254-0.028 0.494-0.113 0.846h-1.749c-0.014 0.043-0.014 0.071-0.014 0.099 0 0.395 0.268 0.592 0.776 0.592 0.324 0 0.606-0.056 0.917-0.212l-0.141 0.846zM15.668 16.063v-0.169c0-0.282-0.155-0.437-0.423-0.437-0.282 0-0.48 0.212-0.564 0.606h0.987zM6.683 18.151h-0.875l0.508-3.202-1.143 3.202h-0.607l-0.071-3.174-0.536 3.174h-0.818l0.691-4.161h1.27l0.042 2.581 0.846-2.581h1.382l-0.691 4.161zM8.87 16.642c-0.085 0-0.127-0.014-0.198-0.014-0.494 0-0.748 0.183-0.748 0.522 0 0.212 0.113 0.338 0.31 0.338 0.367 0 0.621-0.338 0.635-0.846zM9.519 18.151h-0.734l0.014-0.353c-0.226 0.282-0.522 0.409-0.931 0.409-0.48 0-0.804-0.367-0.804-0.917 0-0.832 0.564-1.312 1.552-1.312 0.099 0 0.226 0.014 0.367 0.028 0.028-0.113 0.028-0.155 0.028-0.211 0-0.226-0.155-0.31-0.564-0.31-0.254 0-0.536 0.028-0.733 0.085l-0.127 0.042-0.085 0.014 0.127-0.762c0.437-0.127 0.733-0.169 1.058-0.169 0.762 0 1.171 0.338 1.171 0.987 0 0.169-0.014 0.296-0.071 0.677l-0.198 1.199-0.028 0.211-0.014 0.169-0.014 0.127-0.014 0.084zM22.834 16.642c-0.099 0-0.141-0.014-0.197-0.014-0.508 0-0.762 0.183-0.762 0.522 0 0.212 0.127 0.338 0.325 0.338 0.353 0 0.621-0.338 0.635-0.846zM23.483 18.151h-0.733l0.014-0.353c-0.226 0.282-0.522 0.409-0.931 0.409-0.48 0-0.804-0.367-0.804-0.917 0-0.832 0.564-1.312 1.552-1.312 0.099 0 0.226 0.014 0.353 0.028 0.028-0.113 0.043-0.155 0.043-0.211 0-0.226-0.155-0.31-0.564-0.31-0.254 0-0.55 0.028-0.748 0.085l-0.113 0.042-0.085 0.014 0.127-0.762c0.437-0.127 0.733-0.169 1.058-0.169 0.762 0 1.157 0.338 1.157 0.987 0 0.169 0 0.296-0.070 0.677l-0.183 1.199-0.028 0.211-0.028 0.169-0.014 0.127v0.084h-0zM25.853 14.738h-0.085c-0.296 0-0.465 0.141-0.733 0.55l0.085-0.522h-0.804l-0.536 3.385h0.875c0.325-2.073 0.409-2.426 0.832-2.426h0.056c0.085-0.409 0.197-0.705 0.338-0.973l-0.028-0.014z"></path>
</svg>
