<!-- Generated by IcoMoon.io -->
<svg version="1.1" xmlns="http://www.w3.org/2000/svg" width="32" height="32" viewBox="0 0 32 32">
<title>menu</title>
<path fill="#41416e" d="M20.007 3.001h-8.003c-4.97 0.006-8.997 4.033-9.003 9.003v8.003c0.006 4.97 4.033 8.997 9.003 9.003h8.003c4.97-0.006 8.997-4.033 9.003-9.003v-8.003c-0.006-4.97-4.033-8.997-9.003-9.003h-0.001zM27.010 20.007c-0.005 3.866-3.137 6.998-7.002 7.003h-8.003c-3.866-0.005-6.998-3.137-7.003-7.002v-8.003c0.005-3.866 3.137-6.998 7.002-7.003h8.003c3.866 0.005 6.998 3.137 7.003 7.002v0zM22.341 16.006c0 0.552-0.448 1-1 1v0h-4.335v4.335c0 0.552-0.448 1-1 1s-1-0.448-1-1v0-4.335h-4.335c-0.552 0-1-0.448-1-1s0.448-1 1-1v0h4.335v-4.335c0-0.552 0.448-1 1-1s1 0.448 1 1v0 4.335h4.335c0.552 0 1 0.448 1 1v0z"></path>
</svg>
