<!-- Generated by IcoMoon.io -->
<svg version="1.1" xmlns="http://www.w3.org/2000/svg" width="32" height="32" viewBox="0 0 32 32">
<title>paypal</title>
<path fill="#253b80" d="M11.974 13.837h-1.768c-0 0-0 0-0 0-0.122 0-0.223 0.089-0.242 0.206l-0 0.001-0.715 4.535c-0.001 0.007-0.002 0.015-0.002 0.023 0 0.081 0.066 0.147 0.147 0.147 0 0 0 0 0 0v0h0.844c0 0 0 0 0 0 0.122 0 0.224-0.089 0.242-0.206l0-0.001 0.193-1.223c0.019-0.118 0.12-0.208 0.243-0.208h0.56c1.165 0 1.837-0.564 2.013-1.681 0.079-0.489 0.003-0.873-0.226-1.142-0.251-0.295-0.697-0.451-1.289-0.451zM12.178 15.493c-0.097 0.635-0.582 0.635-1.050 0.635h-0.267l0.187-1.185c0.012-0.071 0.072-0.124 0.146-0.124h0.122c0.319 0 0.621 0 0.776 0.182 0.093 0.109 0.121 0.27 0.086 0.493zM17.261 15.473h-0.847c-0.073 0-0.134 0.053-0.145 0.124l-0 0.001-0.038 0.237-0.059-0.086c-0.183-0.266-0.592-0.355-1-0.355-0.936 0-1.735 0.709-1.891 1.703-0.081 0.496 0.034 0.97 0.315 1.301 0.258 0.304 0.627 0.431 1.067 0.431 0.754 0 1.172-0.485 1.172-0.485l-0.038 0.235c-0.001 0.007-0.002 0.015-0.002 0.023 0 0.081 0.066 0.147 0.147 0.147v0h0.763c0 0 0 0 0 0 0.122 0 0.224-0.089 0.242-0.206l0-0.001 0.458-2.899c0.001-0.007 0.002-0.015 0.002-0.023 0-0.081-0.066-0.147-0.147-0.147-0 0-0 0-0 0v0zM16.080 17.121c-0.082 0.484-0.466 0.809-0.955 0.809-0.246 0-0.442-0.079-0.569-0.228-0.125-0.148-0.173-0.36-0.133-0.595 0.076-0.48 0.467-0.815 0.949-0.815 0.241 0 0.436 0.080 0.565 0.231 0.129 0.152 0.18 0.365 0.143 0.599zM21.771 15.473h-0.851c-0.084 0-0.159 0.042-0.203 0.107l-0.001 0.001-1.174 1.729-0.498-1.661c-0.032-0.102-0.125-0.175-0.236-0.175h-0.836c-0 0-0 0-0 0-0.081 0-0.147 0.066-0.147 0.147 0 0.017 0.003 0.033 0.008 0.049l-0-0.001 0.937 2.751-0.881 1.244c-0.017 0.024-0.027 0.053-0.027 0.085 0 0.081 0.066 0.147 0.147 0.147 0 0 0 0 0 0h0.85c0 0 0 0 0 0 0.083 0 0.157-0.041 0.201-0.105l0.001-0.001 2.83-4.086c0.016-0.023 0.026-0.053 0.026-0.084 0-0.081-0.066-0.147-0.147-0.147v0z"></path>
<path fill="#179bd7" d="M24.588 13.837h-1.769c-0.122 0-0.223 0.089-0.242 0.206l-0 0.001-0.715 4.535c-0.001 0.007-0.002 0.015-0.002 0.023 0 0.081 0.066 0.147 0.147 0.147 0 0 0 0 0 0h0.908c0.085-0 0.156-0.063 0.169-0.144l0-0.001 0.203-1.285c0.019-0.118 0.12-0.208 0.243-0.208h0.56c1.165 0 1.837-0.564 2.013-1.681 0.079-0.489 0.003-0.873-0.226-1.142-0.251-0.295-0.697-0.451-1.289-0.451zM24.792 15.493c-0.096 0.635-0.581 0.635-1.050 0.635h-0.267l0.187-1.185c0.011-0.071 0.072-0.124 0.145-0.124 0 0 0 0 0 0v0h0.122c0.319 0 0.621 0 0.776 0.182 0.093 0.109 0.121 0.27 0.086 0.493zM29.874 15.473h-0.846c-0 0-0 0-0 0-0.073 0-0.134 0.054-0.145 0.124l-0 0.001-0.038 0.237-0.059-0.086c-0.183-0.266-0.592-0.355-1-0.355-0.936 0-1.735 0.709-1.891 1.703-0.081 0.496 0.034 0.97 0.315 1.301 0.259 0.304 0.627 0.431 1.067 0.431 0.754 0 1.172-0.485 1.172-0.485l-0.038 0.235c-0.001 0.007-0.002 0.015-0.002 0.023 0 0.081 0.066 0.147 0.147 0.147 0 0 0 0 0 0h0.763c0.122-0 0.224-0.089 0.242-0.206l0-0.001 0.458-2.899c0.001-0.007 0.002-0.015 0.002-0.023 0-0.082-0.066-0.148-0.148-0.148-0 0-0 0-0 0v0zM28.694 17.121c-0.081 0.484-0.466 0.809-0.955 0.809-0.245 0-0.442-0.079-0.569-0.228-0.125-0.148-0.172-0.36-0.133-0.595 0.077-0.48 0.467-0.815 0.949-0.815 0.241 0 0.436 0.080 0.565 0.231 0.13 0.152 0.181 0.365 0.143 0.599zM30.873 13.962l-0.726 4.618c-0.001 0.007-0.002 0.015-0.002 0.023 0 0.081 0.066 0.147 0.147 0.147 0 0 0 0 0 0h0.73c0.121 0 0.224-0.088 0.243-0.208l0.716-4.535c0.001-0.007 0.002-0.015 0.002-0.023 0-0.081-0.066-0.147-0.147-0.147v0h-0.817c-0.073 0-0.134 0.054-0.145 0.124l-0 0.001z"></path>
<path fill="#253b80" d="M1.904 19.631l0.135-0.859-0.301-0.007h-1.438l1-6.339c0.006-0.039 0.040-0.069 0.081-0.069 0 0 0 0 0 0h2.425c0.805 0 1.361 0.168 1.651 0.498 0.136 0.155 0.223 0.317 0.265 0.496 0.044 0.187 0.045 0.411 0.002 0.684l-0.003 0.020v0.175l0.136 0.077c0.107 0.055 0.198 0.125 0.275 0.209l0.001 0.001c0.116 0.133 0.192 0.301 0.223 0.501 0.033 0.206 0.022 0.45-0.032 0.727-0.062 0.319-0.162 0.596-0.298 0.823-0.123 0.206-0.28 0.379-0.467 0.514l-0.005 0.003c-0.18 0.128-0.394 0.225-0.636 0.287-0.234 0.061-0.501 0.092-0.794 0.092h-0.189c-0.135 0-0.266 0.049-0.369 0.136-0.1 0.086-0.17 0.205-0.192 0.34l-0 0.003-0.014 0.077-0.239 1.514-0.011 0.056c-0.003 0.018-0.008 0.026-0.015 0.032s-0.015 0.009-0.025 0.009h-0z"></path>
<path fill="#179bd7" d="M5.985 14.075c-0.007 0.046-0.016 0.094-0.025 0.142-0.32 1.642-1.414 2.21-2.812 2.21h-0.712c-0.171 0-0.315 0.124-0.342 0.293l-0.364 2.311-0.103 0.655c-0.001 0.009-0.002 0.018-0.002 0.028 0 0.101 0.081 0.182 0.182 0.182h1.262c0.149 0 0.276-0.109 0.3-0.256l0.012-0.064 0.238-1.508 0.015-0.083c0.023-0.148 0.151-0.257 0.3-0.257h0.189c1.223 0 2.18-0.497 2.46-1.933 0.117-0.6 0.056-1.101-0.253-1.454-0.097-0.107-0.211-0.196-0.339-0.263l-0.007-0.003z"></path>
<path fill="#222d65" d="M5.65 13.941c-0.084-0.026-0.189-0.050-0.297-0.067l-0.014-0.002c-0.18-0.029-0.388-0.046-0.6-0.046-0.010 0-0.019 0-0.028 0h-1.9c-0 0-0 0-0 0-0.151 0-0.276 0.11-0.299 0.255l-0 0.002-0.404 2.562-0.012 0.075c0.026-0.167 0.169-0.293 0.341-0.293 0 0 0 0 0 0h0.712c1.398 0 2.492-0.568 2.812-2.21 0.010-0.049 0.018-0.096 0.025-0.142-0.074-0.040-0.161-0.077-0.251-0.107l-0.012-0.004c-0.007-0.003-0.031-0.011-0.055-0.018l-0.017-0.004z"></path>
<path fill="#253b80" d="M2.511 14.083c0.023-0.146 0.148-0.256 0.299-0.256 0 0 0.001 0 0.001 0h1.901c0.225 0 0.435 0.015 0.627 0.046 0.147 0.023 0.276 0.055 0.401 0.096l-0.018-0.005c0.094 0.031 0.182 0.068 0.263 0.111 0.095-0.607-0.001-1.020-0.329-1.394-0.362-0.412-1.015-0.588-1.85-0.588h-2.426c-0.171 0-0.316 0.124-0.343 0.293l-1.010 6.404c-0.002 0.010-0.003 0.021-0.003 0.033 0 0.115 0.093 0.208 0.208 0.208h1.497l0.376-2.385z"></path>
</svg>
