<!-- Generated by IcoMoon.io -->
<svg version="1.1" xmlns="http://www.w3.org/2000/svg" width="32" height="32" viewBox="0 0 32 32">
<title>pp</title>
<path fill="#1565c0" d="M12.467 9.178l0.003 0.001c0.069-0.295 0.321-0.513 0.637-0.513h8.981c0.011 0 0.023-0.005 0.034-0.004-0.191-3.186-2.864-4.663-5.222-4.663h-8.981c-0.316 0-0.568 0.223-0.637 0.518l-0.003-0.001-3.926 18.025 0.009 0.001c-0.009 0.043-0.026 0.083-0.026 0.129 0 0.369 0.298 0.661 0.667 0.661h5.381l3.084-14.155z"></path>
<path fill="#039be5" d="M22.122 8.663c0.035 0.584-0.003 1.219-0.153 1.921-0.854 3.997-3.941 6.077-7.757 6.077 0 0-2.313 0-2.875 0-0.347 0-0.511 0.204-0.587 0.36l-1.16 5.366-0.203 0.953h-0.004l-0.842 3.864 0.009 0.001c-0.009 0.043-0.026 0.083-0.026 0.129 0 0.369 0.298 0.667 0.667 0.667h4.889l0.009-0.007c0.315-0.005 0.565-0.229 0.63-0.525l0.012-0.010 1.208-5.611c0 0 0.084-0.535 0.647-0.535s2.785 0 2.785 0c3.815 0 6.934-2.071 7.789-6.068 0.961-4.507-2.253-6.565-5.037-6.581z"></path>
<path fill="#283593" d="M13.107 8.667c-0.316 0-0.568 0.217-0.637 0.513l-0.003-0.001-1.717 7.843c0.075-0.156 0.239-0.36 0.587-0.36 0.563 0 2.823 0 2.823 0 3.815 0 6.955-2.080 7.809-6.077 0.15-0.702 0.188-1.337 0.153-1.921-0.011-0.001-0.023 0.003-0.033 0.003h-8.981z"></path>
</svg>
