<svg aria-hidden="true" style="position: absolute; width: 0; height: 0; overflow: hidden;" version="1.1" xmlns="http://www.w3.org/2000/svg" xmlns:xlink="http://www.w3.org/1999/xlink">
<defs>
<symbol id="icon-fb" viewBox="0 0 32 32">
<path fill="#3c5a9a" style="fill: var(--color1, #3c5a9a)" d="M32 16c0 8.837-7.163 16-16 16s-16-7.163-16-16c0-8.837 7.163-16 16-16s16 7.163 16 16z"></path>
<path fill="#fff" style="fill: var(--color2, #fff)" d="M21.203 4.911h-3.544c-2.103 0-4.443 0.885-4.443 3.934 0.010 1.062 0 2.080 0 3.225h-2.433v3.872h2.509v11.147h4.61v-11.221h3.043l0.275-3.809h-3.397s0.008-1.695 0-2.187c0-1.205 1.254-1.136 1.329-1.136 0.597 0 1.757 0.002 2.054 0v-3.825h-0.002z"></path>
</symbol>
<symbol id="icon-in" viewBox="0 0 32 32">
<path fill="#000" style="fill: var(--color3, #000)" d="M8.114 31.887c-1.903-0.087-2.937-0.403-3.624-0.671-0.911-0.355-1.561-0.777-2.244-1.46s-1.107-1.332-1.46-2.244c-0.268-0.688-0.585-1.721-0.671-3.624-0.095-2.057-0.114-2.674-0.114-7.886s0.021-5.828 0.113-7.887c0.087-1.903 0.405-2.935 0.671-3.624 0.355-0.911 0.778-1.561 1.46-2.245 0.683-0.683 1.332-1.107 2.244-1.46 0.688-0.268 1.721-0.585 3.624-0.671 2.058-0.094 2.676-0.113 7.886-0.113 5.212 0 5.828 0.021 7.887 0.113 1.903 0.087 2.935 0.405 3.624 0.671 0.911 0.353 1.561 0.777 2.244 1.46s1.105 1.333 1.46 2.244c0.268 0.688 0.585 1.721 0.671 3.624 0.094 2.059 0.113 2.675 0.113 7.887 0 5.21-0.019 5.828-0.113 7.887-0.087 1.903-0.405 2.937-0.671 3.624-0.355 0.911-0.777 1.561-1.46 2.244s-1.333 1.105-2.244 1.46c-0.688 0.268-1.721 0.585-3.624 0.671-2.057 0.094-2.675 0.113-7.887 0.113-5.21 0-5.828-0.018-7.885-0.113z"></path>
<path fill="#dc351e" style="fill: var(--color3, #dc351e)" d="M8.114 31.887c-1.903-0.087-2.937-0.403-3.624-0.671-0.911-0.355-1.561-0.777-2.244-1.46s-1.107-1.332-1.46-2.244c-0.268-0.688-0.585-1.721-0.671-3.624-0.095-2.057-0.114-2.674-0.114-7.886s0.021-5.828 0.113-7.887c0.087-1.903 0.405-2.935 0.671-3.624 0.355-0.911 0.778-1.561 1.46-2.245 0.683-0.683 1.332-1.107 2.244-1.46 0.688-0.268 1.721-0.585 3.624-0.671 2.058-0.094 2.676-0.113 7.886-0.113 5.212 0 5.828 0.021 7.887 0.113 1.903 0.087 2.935 0.405 3.624 0.671 0.911 0.353 1.561 0.777 2.244 1.46s1.105 1.333 1.46 2.244c0.268 0.688 0.585 1.721 0.671 3.624 0.094 2.059 0.113 2.675 0.113 7.887 0 5.21-0.019 5.828-0.113 7.887-0.087 1.903-0.405 2.937-0.671 3.624-0.355 0.911-0.777 1.561-1.46 2.244s-1.333 1.105-2.244 1.46c-0.688 0.268-1.721 0.585-3.624 0.671-2.057 0.094-2.675 0.113-7.887 0.113-5.21 0-5.828-0.018-7.885-0.113z"></path>
<path fill="#fff" style="fill: var(--color2, #fff)" d="M12.071 16.068c0-2.188 1.774-3.963 3.962-3.963s3.963 1.775 3.963 3.963-1.775 3.963-3.963 3.963-3.962-1.775-3.962-3.963zM9.929 16.068c0 3.371 2.733 6.104 6.104 6.104s6.104-2.733 6.104-6.104-2.733-6.104-6.104-6.104-6.104 2.733-6.104 6.104zM20.953 9.722c0 0 0 0 0 0.001 0 0.788 0.639 1.427 1.427 1.427s1.427-0.639 1.427-1.427c0-0.788-0.638-1.426-1.426-1.427h-0.001c-0.788 0-1.426 0.639-1.427 1.426v0zM11.23 25.745c-1.159-0.053-1.789-0.246-2.208-0.409-0.555-0.216-0.951-0.473-1.367-0.889s-0.674-0.811-0.889-1.366c-0.163-0.418-0.356-1.049-0.409-2.208-0.058-1.253-0.069-1.63-0.069-4.804s0.012-3.55 0.069-4.804c0.053-1.159 0.247-1.788 0.409-2.208 0.216-0.555 0.473-0.951 0.889-1.367s0.811-0.674 1.367-0.889c0.418-0.163 1.049-0.356 2.208-0.409 1.253-0.058 1.63-0.069 4.803-0.069s3.55 0.012 4.804 0.069c1.159 0.053 1.788 0.247 2.208 0.409 0.555 0.215 0.951 0.473 1.367 0.889s0.673 0.812 0.889 1.367c0.163 0.418 0.356 1.049 0.409 2.208 0.058 1.254 0.069 1.63 0.069 4.804s-0.012 3.55-0.069 4.804c-0.053 1.159-0.247 1.789-0.409 2.208-0.216 0.555-0.473 0.951-0.889 1.366s-0.812 0.673-1.367 0.889c-0.418 0.163-1.049 0.356-2.208 0.409-1.253 0.058-1.63 0.069-4.804 0.069s-3.55-0.012-4.803-0.069zM11.132 4.252c-1.266 0.058-2.13 0.258-2.886 0.552-0.782 0.303-1.444 0.711-2.106 1.371s-1.068 1.323-1.371 2.106c-0.294 0.756-0.495 1.62-0.552 2.886-0.059 1.268-0.072 1.673-0.072 4.901s0.013 3.634 0.072 4.901c0.058 1.266 0.258 2.13 0.552 2.886 0.303 0.782 0.71 1.446 1.371 2.106s1.323 1.067 2.106 1.371c0.757 0.294 1.62 0.495 2.886 0.552 1.268 0.058 1.673 0.072 4.901 0.072s3.634-0.013 4.901-0.072c1.266-0.058 2.13-0.258 2.886-0.552 0.782-0.304 1.444-0.711 2.106-1.371s1.067-1.324 1.371-2.106c0.294-0.756 0.495-1.62 0.552-2.886 0.058-1.268 0.071-1.673 0.071-4.901s-0.013-3.634-0.071-4.901c-0.058-1.266-0.258-2.13-0.552-2.886-0.304-0.782-0.711-1.444-1.371-2.106s-1.324-1.068-2.105-1.371c-0.757-0.294-1.621-0.495-2.886-0.552-1.268-0.058-1.673-0.072-4.901-0.072s-3.634 0.013-4.902 0.072z"></path>
</symbol>
<symbol id="icon-lin" viewBox="0 0 32 32">
<path fill="#069" style="fill: var(--color4, #069)" d="M0 2.347c0-1.26 1.055-2.283 2.356-2.283h27.161c1.301 0 2.356 1.023 2.356 2.283v27.306c0 1.261-1.055 2.283-2.356 2.283h-27.161c-1.3 0-2.356-1.022-2.356-2.282v-27.307z"></path>
<path fill="#fff" style="fill: var(--color2, #fff)" d="M9.686 26.737v-14.349h-4.769v14.349h4.77zM7.302 10.429c1.663 0 2.698-1.102 2.698-2.479-0.031-1.408-1.035-2.479-2.666-2.479-1.632 0-2.698 1.071-2.698 2.479 0 1.377 1.035 2.479 2.636 2.479h0.031zM12.325 26.737h4.769v-8.012c0-0.428 0.031-0.858 0.157-1.164 0.345-0.857 1.129-1.745 2.447-1.745 1.725 0 2.416 1.316 2.416 3.245v7.675h4.769v-8.227c0-4.407-2.353-6.458-5.49-6.458-2.573 0-3.702 1.438-4.33 2.417h0.032v-2.080h-4.769c0.062 1.346-0 14.349-0 14.349z"></path>
</symbol>
<symbol id="icon-tw" viewBox="0 0 48 32">
<path fill="#1da1f2" style="fill: var(--color5, #1da1f2)" d="M17.982 32.484c13.698 0 21.188-11.352 21.188-21.196 0-0.322-0.007-0.643-0.021-0.963 1.463-1.067 2.695-2.345 3.681-3.804l0.034-0.054c-1.334 0.593-2.77 0.993-4.277 1.173 1.538-0.922 2.718-2.381 3.275-4.12-1.361 0.822-2.945 1.449-4.633 1.792l-0.096 0.016c-1.359-1.448-3.294-2.354-5.436-2.354-4.112 0-7.447 3.336-7.447 7.449 0 0.585 0.065 1.153 0.193 1.699-6.189-0.312-11.678-3.276-15.351-7.783-0.634 1.071-1.008 2.361-1.008 3.738 0 0.002 0 0.005 0 0.007v-0c0 2.585 1.315 4.866 3.314 6.201-1.244-0.039-2.401-0.38-3.409-0.951l0.037 0.019c-0.001 0.031-0.001 0.062-0.001 0.095 0 3.608 2.567 6.62 5.974 7.303-0.588 0.166-1.262 0.262-1.959 0.262-0.002 0-0.003 0-0.005 0h0c-0.479 0-0.946-0.047-1.4-0.134 0.948 2.96 3.697 5.114 6.957 5.174-2.549 1.998-5.76 3.189-9.249 3.189-0.004 0-0.008 0-0.013 0-0.621 0-1.234-0.038-1.836-0.11l0.072 0.007c3.296 2.113 7.209 3.346 11.415 3.346z"></path>
</symbol>
</defs>
</svg>
