<svg aria-hidden="true" style="position: absolute; width: 0; height: 0; overflow: hidden;" version="1.1" xmlns="http://www.w3.org/2000/svg" xmlns:xlink="http://www.w3.org/1999/xlink">
<defs>
<symbol id="icon-cart" viewBox="0 0 32 32">
<path fill="#f9c2d2" style="fill: var(--color1, #f9c2d2)" d="M26.375 27.25h-17.813c-1.551 0-2.813-1.262-2.813-2.813s1.262-2.812 2.813-2.812h2.813l-1.69 1.875h-1.122c-0.517 0-0.938 0.42-0.938 0.938s0.42 0.938 0.938 0.938h17.813v1.875z"></path>
<path fill="#f98aab" style="fill: var(--color2, #f98aab)" d="M17.938 25.375h8.438v1.875h-8.438v-1.875z"></path>
<path fill="#f98aab" style="fill: var(--color2, #f98aab)" opacity="0.5" d="M6.774 10.375l-0.838-3.75h-5.936v-1.875h7.439l1.624 7.273-2.29-1.648z"></path>
<path fill="#f9c2d2" style="fill: var(--color1, #f9c2d2)" d="M21.966 10.696l-0.28-0.321h-14.908l2.91 13.125h16.478l3.304-12.786c-0.642 0.16-4.439 3.505-7.505-0.017zM26.682 14.007l-0.515 1.993h-4.396l0.238-2.86c1.375 0.838 3.065 1.171 4.673 0.867zM15.99 16l-0.313-3.75h4.526l-0.313 3.75h-3.901zM19.734 17.875l-0.313 3.75h-2.963l-0.313-3.75h3.588zM13.797 12.25l0.313 3.75h-4.164l-0.831-3.75h4.682zM10.361 17.875h3.904l0.313 3.75h-3.385l-0.831-3.75zM21.302 21.625l0.313-3.75h4.068l-0.969 3.75h-3.412z"></path>
<path fill="#f98aab" style="fill: var(--color2, #f98aab)" d="M21.963 10.696l-0.28-0.321h-3.745v1.875h2.263l-0.313 3.75h-1.95v1.875h1.794l-0.313 3.75h-1.482v1.875h8.226l3.304-12.786c-0.642 0.16-4.439 3.505-7.505-0.017zM24.712 21.625h-3.412l0.313-3.75h4.068l-0.969 3.75zM26.68 14.007l-0.515 1.993h-4.396l0.238-2.86c1.375 0.838 3.065 1.171 4.673 0.867z"></path>
<path fill="#665151" style="fill: var(--color3, #665151)" d="M12.313 31c-1.551 0-2.813-1.262-2.813-2.813s1.262-2.812 2.813-2.812c1.551 0 2.813 1.262 2.813 2.812s-1.262 2.813-2.813 2.813z"></path>
<path fill="#4d3535" style="fill: var(--color4, #4d3535)" d="M21.688 31c-1.551 0-2.813-1.262-2.813-2.813s1.262-2.812 2.813-2.812c1.551 0 2.813 1.262 2.813 2.812s-1.262 2.813-2.813 2.813z"></path>
<path fill="#f9c2d2" style="fill: var(--color1, #f9c2d2)" d="M25.438 14.125c-3.719 0-6.563-3.038-6.563-6.563 0-3.618 2.944-6.563 6.563-6.563s6.563 2.944 6.563 6.563c0 3.706-3.011 6.563-6.563 6.563z"></path>
<path fill="#fff7e6" style="fill: var(--color5, #fff7e6)" d="M12.313 29.125c0.518 0 0.938-0.42 0.938-0.938s-0.42-0.937-0.938-0.937-0.938 0.42-0.938 0.937c0 0.518 0.42 0.938 0.938 0.938z"></path>
<path fill="#ffeacc" style="fill: var(--color6, #ffeacc)" d="M21.688 29.125c0.518 0 0.938-0.42 0.938-0.938s-0.42-0.937-0.938-0.937-0.938 0.42-0.938 0.937c0 0.518 0.42 0.938 0.938 0.938z"></path>
<path fill="#f98aab" style="fill: var(--color2, #f98aab)" d="M32 7.563c0-3.618-2.944-6.563-6.563-6.563v13.125c3.552 0 6.563-2.856 6.563-6.563z"></path>
<path fill="#fff" style="fill: var(--color7, #fff)" d="M28.25 6.625h-1.875v-1.875h-1.875v1.875h-1.875v1.875h1.875v1.875h1.875v-1.875h1.875v-1.875z"></path>
<path fill="#fff" style="fill: var(--color7, #fff)" d="M25.438 4.75v5.625h0.938v-1.875h1.875v-1.875h-1.875v-1.875h-0.938z"></path>
</symbol>
<symbol id="icon-hend" viewBox="0 0 21 32">
<path fill="#f98aab" style="fill: var(--color2, #f98aab)" d="M12.017 7.765c1.64-0.681 2.522-2.267 2.123-3.818s-1.972-2.653-3.787-2.653c-1.815 0-3.388 1.102-3.787 2.653s0.483 3.137 2.124 3.818h3.327z"></path>
<path fill="#f98aab" style="fill: var(--color2, #f98aab)" d="M5.953 9.059c-0.143 0-0.28-0.062-0.377-0.172-2.15-2.406-2.266-6.128-0.27-8.678 0.116-0.156 0.303-0.233 0.489-0.202s0.34 0.167 0.404 0.353c0.064 0.187 0.028 0.395-0.096 0.545-1.664 2.125-1.566 5.228 0.227 7.231 0.141 0.159 0.18 0.392 0.098 0.592s-0.269 0.33-0.475 0.33z"></path>
<path fill="#f98aab" style="fill: var(--color2, #f98aab)" d="M15.561 6.471c-0.199 0-0.383-0.084-0.486-0.221s-0.111-0.308-0.021-0.451c1.040-1.637 0.773-3.618-0.679-5.035-0.136-0.127-0.176-0.303-0.105-0.46s0.241-0.272 0.446-0.298 0.411 0.039 0.539 0.17c1.742 1.701 2.063 4.078 0.815 6.044-0.098 0.154-0.294 0.251-0.508 0.251z"></path>
<path fill="#f98aab" style="fill: var(--color2, #f98aab)" d="M20.706 14.804v8.346c0 0 0 2.842-1.729 4.487-0.196 0.195-0.305 0.467-0.299 0.749v1.618c-0.002 0.582-0.455 1.053-1.014 1.055h-8.114c-0.56-0.002-1.013-0.473-1.014-1.055v-0.195c0.001-0.845-0.326-1.655-0.908-2.246-0.979-0.991-2.49-2.705-3.149-4.413-1.014-2.636-3.043-6.327-4.057-7.381s0-2.109 1.014-2.109c1.014 0 3.043 2.109 4.057 3.691 0.323 0.509 0.701 0.978 1.126 1.397 0.252 0.244 0.607 0.337 0.941 0.248s0.6-0.35 0.707-0.691c0.193-0.65 0.284-1.329 0.269-2.009v-12.126c-0.003-0.67 0.405-1.268 1.014-1.487 0.162-0.064 0.334-0.096 0.507-0.095 0.84 0 1.521 0.708 1.521 1.582v6.327c-0.003-0.67 0.405-1.268 1.014-1.487 0.162-0.064 0.334-0.096 0.507-0.095 0.84 0 1.521 0.708 1.521 1.582v1.582c0-0.419 0.161-0.822 0.446-1.118 0.159-0.168 0.353-0.294 0.568-0.369 0.162-0.064 0.334-0.096 0.507-0.095 0.84 0 1.521 0.708 1.521 1.582v2.636c0-0.419 0.16-0.822 0.446-1.118 0.159-0.168 0.353-0.294 0.568-0.369 0.198-0.075 0.409-0.106 0.619-0.089 0.815 0.090 1.427 0.814 1.41 1.666z"></path>
<path fill="#f8edf0" style="fill: var(--color8, #f8edf0)" d="M10.381 2.621c-0.178-0.001-0.356 0.031-0.522 0.094-0.628 0.217-1.048 0.809-1.045 1.473v12.015c0.016 0.674-0.078 1.346-0.277 1.99-0.082 0.242-0.249 0.446-0.47 0.575 0.272 0.16 0.601 0.187 0.895 0.076s0.523-0.351 0.62-0.65c0.199-0.644 0.293-1.316 0.277-1.99v-12.015c-0.003-0.664 0.417-1.257 1.045-1.473-0.167-0.063-0.344-0.095-0.523-0.094z"></path>
<path fill="#f8edf0" style="fill: var(--color8, #f8edf0)" d="M12.994 8.984c-0.628 0.217-1.048 0.809-1.045 1.473v4.702c0 0.289 0.234 0.522 0.522 0.522s0.522-0.234 0.522-0.522v-4.702c-0.003-0.664 0.417-1.257 1.045-1.473-0.337-0.125-0.708-0.125-1.045 0z"></path>
<path fill="#f8edf0" style="fill: var(--color8, #f8edf0)" d="M16.134 10.552c-0.221 0.074-0.421 0.199-0.585 0.366-0.294 0.293-0.46 0.692-0.46 1.107v3.135c0 0.289 0.234 0.522 0.523 0.522s0.522-0.234 0.522-0.522v-3.135c-0.003-0.664 0.417-1.256 1.045-1.473-0.337-0.125-0.708-0.125-1.045 0z"></path>
<path fill="#f8edf0" style="fill: var(--color8, #f8edf0)" d="M19.789 13.069c-0.178-0.001-0.356 0.031-0.522 0.094-0.221 0.074-0.422 0.2-0.585 0.366-0.294 0.293-0.46 0.692-0.46 1.107v1.045c0 0.289 0.234 0.523 0.522 0.523s0.523-0.234 0.523-0.523v-1.045c-0.003-0.664 0.417-1.256 1.045-1.473-0.167-0.063-0.344-0.095-0.522-0.094z"></path>
<path fill="#f8edf0" style="fill: var(--color8, #f8edf0)" d="M18.765 18.118c-0.357 0-0.647 0.217-0.647 0.485v2.912c0 0.268 0.29 0.485 0.647 0.485s0.647-0.217 0.647-0.485v-2.912c0-0.268-0.29-0.485-0.647-0.485z"></path>
<path fill="#f8edf0" style="fill: var(--color8, #f8edf0)" d="M18.993 23.294c-0.232 0.005-0.422 0.276-0.44 0.623-0.032 0.329-0.14 0.63-0.304 0.852-0.112 0.162-0.156 0.403-0.117 0.629s0.157 0.403 0.307 0.462c0.15 0.059 0.31-0.008 0.418-0.177 0.327-0.456 0.526-1.083 0.555-1.752-0-0.349-0.187-0.633-0.419-0.638z"></path>
<path fill="#f8edf0" style="fill: var(--color8, #f8edf0)" d="M11.216 28.471h-0.431c-0.238 0-0.431 0.29-0.431 0.647s0.193 0.647 0.431 0.647h0.431c0.238 0 0.431-0.29 0.431-0.647s-0.193-0.647-0.431-0.647z"></path>
<path fill="#f8edf0" style="fill: var(--color8, #f8edf0)" d="M16.392 28.471h-3.020c-0.238 0-0.431 0.29-0.431 0.647s0.193 0.647 0.431 0.647h3.020c0.238 0 0.431-0.29 0.431-0.647s-0.193-0.647-0.431-0.647z"></path>
</symbol>
<symbol id="icon-write" viewBox="0 0 39 32">
<path fill="#f98aab" style="fill: var(--color2, #f98aab)" d="M5.308 11.206h5.961c0.425 0 0.769-0.344 0.769-0.769s-0.344-0.769-0.769-0.769h-5.961c-0.425 0-0.769 0.344-0.769 0.769s0.344 0.769 0.769 0.769z"></path>
<path fill="#f98aab" style="fill: var(--color2, #f98aab)" d="M5.308 16.534h5.961c0.425 0 0.769-0.344 0.769-0.769s-0.344-0.769-0.769-0.769h-5.961c-0.425 0-0.769 0.344-0.769 0.769s0.344 0.769 0.769 0.769z"></path>
<path fill="#f98aab" style="fill: var(--color2, #f98aab)" d="M12.698 29.428c-0.161-0.387-0.616-0.577-1.005-0.416-0.387 0.16-0.576 0.618-0.415 1.005s0.616 0.576 1.004 0.416c0.387-0.16 0.577-0.618 0.416-1.005z"></path>
<path fill="#f98aab" style="fill: var(--color2, #f98aab)" d="M39.178 17.523l-9.15-9.822 2.801-2.795c0.487-0.481 0.755-1.123 0.755-1.808 0-0.675-0.261-1.31-0.736-1.789-0.981-0.991-2.596-1.004-3.599-0.028-0.002 0.002-0.005 0.005-0.007 0.007l-3.841 3.832h-1.435v-2.954c0-0.425-0.344-0.769-0.769-0.769h-4.073v-0.628c0-0.425-0.344-0.769-0.769-0.769s-0.769 0.344-0.769 0.769v0.628h-2.81v-0.628c0-0.425-0.344-0.769-0.769-0.769s-0.769 0.344-0.769 0.769v0.628h-2.81v-0.628c0-0.425-0.344-0.769-0.769-0.769s-0.769 0.344-0.769 0.769v0.628h-2.81v-0.628c0-0.425-0.344-0.769-0.769-0.769s-0.769 0.344-0.769 0.769v0.628h-3.77c-0.425 0-0.769 0.344-0.769 0.769v27.554c0 0.425 0.344 0.769 0.769 0.769h7.852c0.425 0 0.769-0.345 0.769-0.769s-0.344-0.769-0.769-0.769h-7.082v-26.016h3.001v0.698c0 0.425 0.344 0.769 0.769 0.769s0.769-0.344 0.769-0.769v-0.698h2.81v0.698c0 0.425 0.344 0.769 0.769 0.769s0.769-0.344 0.769-0.769v-0.698h2.81v0.698c0 0.425 0.344 0.769 0.769 0.769s0.769-0.344 0.769-0.769v-0.698h2.81v0.698c0 0.425 0.344 0.769 0.769 0.769s0.769-0.344 0.769-0.769v-0.698h3.304v2.189c-1.382 0.056-2.701 0.64-3.681 1.614l-5.661 5.661c-0.342 0.342-0.279 0.928 0.126 1.19 0.637 0.412 1.352 0.679 2.098 0.786 0.249 0.036 0.501 0.054 0.756 0.054 0.001 0 0.002-0 0.004-0l-0.883 0.881c-0.064 0.064-0.115 0.138-0.153 0.219l-2.468 3.706c-0.222 0.334-0.313 0.715-0.28 1.085h-6.978c-0.425 0-0.769 0.344-0.769 0.769s0.344 0.769 0.769 0.769h8.663c0.333 0 0.669-0.111 0.943-0.297l3.751-2.549c0.044-0.029 0.087-0.063 0.125-0.101l1.74-1.736 1.898 1.894v9.88h-7.039c-0.425 0-0.769 0.344-0.769 0.769s0.344 0.769 0.769 0.769h7.808c0.425 0 0.769-0.345 0.769-0.769v-9.148c0.973 0.808 2.185 1.248 3.465 1.248h3.069c0.638 0 1.257 0.265 1.694 0.722l5.861 6.228c0.466 0.495 1.329 0.154 1.329-0.527v-10.196c0-0.195-0.074-0.382-0.206-0.524zM19.835 7.827c0.745-0.745 1.765-1.168 2.819-1.168h1.205l-4.793 4.781c-0.443 0.426-0.863 0.843-1.431 1.106-0.838 0.388-1.812 0.45-2.693 0.172l4.892-4.892zM30.324 2.383c0.401-0.387 1.042-0.383 1.432 0.010 0.187 0.189 0.29 0.44 0.29 0.706 0 0.27-0.106 0.524-0.3 0.716l-8.039 8.020-0.387-0.387c-0.363-0.363-0.821-0.629-1.315-0.766l8.32-8.3zM14.050 20.29c-0.066 0.045-0.127 0.040-0.184-0.017-0.085-0.084-0.042-0.149-0.019-0.184l2.010-3.019 1.187 1.186-2.995 2.035zM18.248 17.281l-1.427-1.427 1.466-1.462c0.138 0.501 0.413 0.958 0.779 1.325l0.375 0.375-1.193 1.19zM37.846 26.304l-4.535-4.82c-0.73-0.764-1.754-1.202-2.811-1.202h-3.069c-1.039 0-2.017-0.404-2.752-1.137l-4.53-4.52c-0.654-0.49-0.508-1.578 0-2.094 0.571-0.556 1.522-0.554 2.081 0.004l3.68 3.68c0.296 0.296 0.792 0.296 1.088 0 0.3-0.3 0.3-0.787 0-1.088l-2.205-2.205 4.145-4.135 8.907 9.561v7.953z"></path>
</symbol>
</defs>
</svg>
