<svg aria-hidden="true" style="position: absolute; width: 0; height: 0; overflow: hidden;" version="1.1" xmlns="http://www.w3.org/2000/svg" xmlns:xlink="http://www.w3.org/1999/xlink">
<defs>
<symbol id="cart" viewBox="0 0 32 32">
<path fill="#f9c2d2" style="fill: var(--color1, #f9c2d2)" d="M26.393 27.267h-17.828c-1.551 0-2.813-1.262-2.813-2.813 0-1.555 1.262-2.815 2.813-2.815h2.813l-1.69 1.875h-1.121c-0.518 0-0.938 0.42-0.938 0.938s0.42 0.938 0.938 0.938v0h17.821v1.875z"></path>
<path fill="#f98aab" style="fill: var(--color2, #f98aab)" d="M17.949 25.391h8.442v1.875h-8.442v-1.875z"></path>
<path fill="#f98aab" style="fill: var(--color2, #f98aab)" opacity="0.5" d="M6.777 10.383l-0.837-3.755h-5.94v-1.875h7.445l1.624 7.278-2.292-1.647z"></path>
<path fill="#f9c2d2" style="fill: var(--color1, #f9c2d2)" d="M21.979 10.704l-0.281-0.32h-14.916l2.912 13.13h16.49l3.305-12.794c-0.64 0.16-4.442 3.508-7.509-0.016zM26.7 14.015l-0.519 1.994h-4.396l0.238-2.861c1.377 0.837 3.065 1.171 4.677 0.867zM16.001 16.010l-0.313-3.751h4.528l-0.313 3.751h-3.904zM19.747 17.885l-0.313 3.751h-2.966l-0.313-3.751h3.591zM13.805 12.259l0.313 3.751h-4.169l-0.83-3.751h4.684zM10.367 17.885h3.906l0.313 3.751h-3.387l-0.832-3.751zM21.316 21.636l0.311-3.751h4.071l-0.97 3.751h-3.412z"></path>
<path fill="#f98aab" style="fill: var(--color2, #f98aab)" d="M21.977 10.704l-0.281-0.32h-3.746v1.875h2.264l-0.316 3.751h-1.951v1.875h1.795l-0.313 3.751h-1.482v1.878h8.231l3.305-12.794c-0.64 0.16-4.442 3.508-7.509-0.016zM24.726 21.636h-3.41l0.311-3.751h4.071l-0.97 3.751zM26.695 14.015l-0.515 1.994h-4.398l0.238-2.861c1.375 0.837 3.065 1.171 4.675 0.867z"></path>
<path fill="#665151" style="fill: var(--color3, #665151)" d="M12.321 31.020c-1.486-0.087-2.657-1.313-2.657-2.813s1.172-2.726 2.65-2.813l0.008-0c1.551-0.002 2.813 1.258 2.813 2.811 0 1.551-1.262 2.813-2.813 2.813z"></path>
<path fill="#4d3535" style="fill: var(--color4, #4d3535)" d="M21.7 31.020c-1.486-0.087-2.657-1.313-2.657-2.813s1.172-2.726 2.65-2.813l0.008-0c1.553-0.002 2.813 1.258 2.813 2.811 0 1.551-1.26 2.813-2.813 2.813z"></path>
<path fill="#f9c2d2" style="fill: var(--color1, #f9c2d2)" d="M25.453 14.134c-3.626-0.001-6.565-2.94-6.566-6.566v-0c0.004-3.625 2.94-6.562 6.563-6.569h0.001c3.627 0.004 6.566 2.944 6.569 6.571v0c0 0.001 0 0.003 0 0.005 0 3.623-2.937 6.559-6.559 6.559-0.002 0-0.005 0-0.007 0h0z"></path>
<path fill="#fff7e6" style="fill: var(--color5, #fff7e6)" d="M12.321 29.142c0.518 0 0.938-0.42 0.938-0.938s-0.42-0.938-0.938-0.938v0c-0.518 0-0.938 0.42-0.938 0.938s0.42 0.938 0.938 0.938v0z"></path>
<path fill="#ffeacc" style="fill: var(--color6, #ffeacc)" d="M21.7 29.142c0.518 0 0.938-0.42 0.938-0.938s-0.42-0.938-0.938-0.938v0c-0.518 0-0.938 0.42-0.938 0.938s0.42 0.938 0.938 0.938v0z"></path>
<path fill="#f98aab" style="fill: var(--color2, #f98aab)" d="M32.020 7.568c-0.004-3.625-2.941-6.563-6.566-6.569h-0v13.135c0.002 0 0.004 0 0.007 0 3.623 0 6.559-2.937 6.559-6.559 0-0.002 0-0.005 0-0.007v0z"></path>
<path fill="#fff" style="fill: var(--color7, #fff)" d="M28.269 6.628h-1.875v-1.875h-1.878v1.875h-1.875v1.875h1.875v1.878h1.875v-1.875h1.875v-1.875z"></path>
<path fill="#fff" style="fill: var(--color7, #fff)" d="M25.453 4.753v5.631h0.938v-1.875h1.875v-1.875h-1.875v-1.875h-0.938z"></path>
</symbol>
<symbol id="cross" viewBox="0 0 32 32">
<path d="M20.714 12.711l-3.293 3.295 3.293 3.294c0.196 0.183 0.318 0.443 0.318 0.732 0 0.552-0.448 1-1 1-0.289 0-0.549-0.122-0.731-0.318l-0.001-0.001-3.294-3.293-3.294 3.293c-0.178 0.166-0.418 0.268-0.682 0.268-0.552 0-1-0.448-1-1 0-0.264 0.102-0.504 0.269-0.683l-0.001 0.001 3.293-3.294-3.293-3.294c-0.166-0.178-0.268-0.418-0.268-0.682 0-0.552 0.448-1 1-1 0.264 0 0.504 0.102 0.683 0.269l-0.001-0.001 3.295 3.293 3.294-3.293c0.178-0.166 0.418-0.268 0.682-0.268 0.552 0 1 0.448 1 1 0 0.264-0.102 0.504-0.269 0.683l0.001-0.001zM29.010 12.004v8.003c-0.006 4.97-4.033 8.997-9.003 9.003h-8.003c-4.97-0.006-8.997-4.033-9.003-9.003v-8.003c0.006-4.97 4.033-8.997 9.003-9.003h8.003c4.97 0.006 8.997 4.033 9.003 9.003v0.001zM27.010 12.004c-0.005-3.866-3.137-6.998-7.002-7.003h-8.003c-3.866 0.005-6.998 3.137-7.003 7.002v8.003c0.005 3.866 3.137 6.998 7.002 7.003h8.003c3.866-0.005 6.998-3.137 7.003-7.002v-0z"></path>
</symbol>
<symbol id="fb" viewBox="0 0 32 32">
<path fill="#4e69aa" style="fill: var(--color8, #4e69aa)" d="M26 0h-20c-3.314 0-6 2.686-6 6v20c0 3.314 2.686 6 6 6h20c3.314 0 6-2.686 6-6v-20c0-3.314-2.686-6-6-6zM25.187 17.234h-2.994v11.082h-5.002v-11.082h-1.941v-3.735h1.941v-2.379c0-3.116 1.297-4.968 4.968-4.968h3.722v3.718h-2.164c-1.432 0-1.524 0.535-1.524 1.528l-0.004 2.097h3.402l-0.408 3.735z"></path>
</symbol>
<symbol id="hend" viewBox="0 0 32 32">
<path fill="#f98aab" style="fill: var(--color2, #f98aab)" d="M17.67 7.77c1.641-0.682 2.524-2.268 2.125-3.82s-1.974-2.656-3.79-2.656-3.39 1.104-3.79 2.656c-0.399 1.552 0.484 3.138 2.125 3.82h3.33z"></path>
<path fill="#f98aab" style="fill: var(--color2, #f98aab)" d="M11.601 9.066c-0.15-0.001-0.285-0.068-0.376-0.173l-0.001-0.001c-2.151-2.407-2.268-6.133-0.269-8.685 0.093-0.127 0.241-0.208 0.408-0.208 0.029 0 0.057 0.002 0.084 0.007l-0.003-0c0.19 0.037 0.342 0.171 0.402 0.349l0.001 0.004c0.064 0.188 0.028 0.396-0.094 0.546-1.667 2.127-1.569 5.231 0.226 7.237 0.087 0.1 0.141 0.231 0.141 0.375 0 0.078-0.016 0.152-0.044 0.22l0.001-0.004c-0.076 0.194-0.26 0.329-0.476 0.332h-0zM21.217 6.476c-0.005 0-0.011 0-0.017 0-0.189 0-0.358-0.086-0.47-0.221l-0.001-0.001c-0.052-0.065-0.083-0.148-0.083-0.239 0-0.079 0.024-0.153 0.065-0.214l-0.001 0.001c1.040-1.639 0.772-3.618-0.68-5.037-0.086-0.073-0.14-0.181-0.14-0.302 0-0.057 0.012-0.111 0.034-0.16l-0.001 0.003c0.087-0.166 0.252-0.282 0.444-0.299l0.002-0c0.029-0.005 0.062-0.007 0.096-0.007 0.172 0 0.328 0.067 0.443 0.177l-0-0c1.742 1.703 2.064 4.082 0.816 6.048-0.11 0.154-0.288 0.253-0.489 0.253-0.007 0-0.014-0-0.021-0l0.001 0z"></path>
<path fill="#f98aab" style="fill: var(--color2, #f98aab)" d="M26.365 14.815v8.352s0 2.844-1.731 4.489c-0.185 0.186-0.3 0.443-0.3 0.727 0 0.008 0 0.016 0 0.024l-0-0.001v1.62c0 0.582-0.454 1.053-1.015 1.055h-8.118c-0.564-0.013-1.017-0.473-1.017-1.040 0-0.005 0-0.011 0-0.016v0.001-0.196c0.002-0.846-0.326-1.658-0.906-2.247-0.979-0.993-2.492-2.707-3.153-4.415-1.013-2.637-3.044-6.333-4.059-7.388s0-2.11 1.015-2.11 3.044 2.11 4.059 3.692c0.324 0.51 0.701 0.979 1.126 1.4 0.254 0.245 0.608 0.339 0.942 0.247 0.339-0.096 0.603-0.354 0.706-0.682l0.002-0.007c0.194-0.652 0.283-1.33 0.269-2.012v-12.134c-0-0.006-0-0.013-0-0.019 0-0.849 0.677-1.54 1.52-1.563l0.002-0c0.84 0 1.522 0.708 1.522 1.582v6.331c-0-0.006-0-0.013-0-0.019 0-0.85 0.678-1.541 1.522-1.563l0.002-0c0.84 0 1.522 0.708 1.522 1.582v1.582c0-0.418 0.16-0.821 0.446-1.117 0.154-0.163 0.345-0.289 0.559-0.366l0.010-0.003c0.147-0.060 0.318-0.094 0.497-0.094 0.004 0 0.008 0 0.012 0h-0.001c0.838 0 1.52 0.708 1.52 1.582v2.637c0-0.42 0.162-0.821 0.446-1.119 0.154-0.163 0.345-0.289 0.559-0.366l0.010-0.003c0.15-0.059 0.324-0.093 0.506-0.093 0.040 0 0.080 0.002 0.119 0.005l-0.005-0c0.816 0.090 1.428 0.814 1.411 1.667z"></path>
<path fill="#f8edf0" style="fill: var(--color9, #f8edf0)" d="M16.034 2.624c-0.002 0-0.005-0-0.008-0-0.185 0-0.362 0.035-0.524 0.098l0.010-0.003c-0.614 0.216-1.045 0.791-1.045 1.467 0 0.002 0 0.004 0 0.006v-0 12.023c0.015 0.674-0.079 1.347-0.279 1.993-0.086 0.246-0.252 0.445-0.466 0.572l-0.005 0.003c0.151 0.090 0.333 0.144 0.527 0.144 0.459 0 0.849-0.298 0.987-0.711l0.002-0.007c0.2-0.646 0.294-1.319 0.279-1.993v-12.023c0-0.002 0-0.004 0-0.006 0-0.676 0.432-1.251 1.035-1.464l0.011-0.003c-0.153-0.060-0.33-0.094-0.515-0.094-0.003 0-0.006 0-0.009 0h0zM18.648 8.99c-0.614 0.216-1.045 0.791-1.045 1.467 0 0.002 0 0.004 0 0.006v-0 4.705c0.017 0.275 0.245 0.492 0.523 0.492s0.506-0.217 0.523-0.491l0-0.002v-4.705c0-0.002 0-0.004 0-0.006 0-0.676 0.432-1.251 1.035-1.464l0.011-0.003c-0.155-0.060-0.335-0.094-0.523-0.094s-0.367 0.034-0.533 0.098l0.010-0.003zM21.79 10.56c-0.614 0.22-1.045 0.797-1.045 1.475v0 3.134c0 0.289 0.234 0.523 0.523 0.523s0.523-0.234 0.523-0.523v0-3.136c0-0.002 0-0.004 0-0.006 0-0.676 0.432-1.251 1.035-1.464l0.011-0.003c-0.155-0.060-0.335-0.094-0.523-0.094s-0.367 0.034-0.533 0.098l0.010-0.003zM25.448 13.078c-0.003-0-0.006-0-0.010-0-0.185 0-0.361 0.035-0.524 0.098l0.010-0.003c-0.614 0.22-1.045 0.797-1.045 1.475v0 1.044c0 0.289 0.234 0.523 0.523 0.523s0.523-0.234 0.523-0.523v0-1.045c0-0.002 0-0.004 0-0.006 0-0.676 0.432-1.251 1.035-1.464l0.011-0.003c-0.153-0.060-0.329-0.094-0.514-0.094-0.003 0-0.006 0-0.008 0h0zM24.423 18.13c-0.358 0-0.648 0.217-0.648 0.486v2.914c0 0.267 0.29 0.486 0.648 0.486s0.648-0.218 0.648-0.486v-2.914c0-0.269-0.29-0.486-0.648-0.486zM24.651 23.31c-0.232 0.006-0.422 0.275-0.441 0.623-0.026 0.322-0.135 0.614-0.307 0.859l0.004-0.006c-0.084 0.133-0.134 0.294-0.134 0.467 0 0.057 0.006 0.114 0.016 0.168l-0.001-0.006c0.040 0.226 0.158 0.403 0.307 0.463 0.151 0.058 0.311-0.009 0.418-0.177 0.328-0.456 0.527-1.083 0.558-1.754 0-0.35-0.188-0.635-0.42-0.639zM16.868 28.49h-0.429c-0.237 0-0.431 0.29-0.431 0.648s0.194 0.648 0.433 0.648h0.429c0.239 0 0.433-0.292 0.433-0.648 0-0.358-0.194-0.648-0.433-0.648zM22.048 28.49h-3.021c-0.237 0-0.431 0.29-0.431 0.648s0.194 0.648 0.433 0.648h3.019c0.239 0 0.433-0.292 0.433-0.648 0-0.358-0.194-0.648-0.433-0.648z"></path>
</symbol>
<symbol id="insta" viewBox="0 0 32 32">
<path fill=" #C13584" style="fill: var(--color3,  #C13584)" d="M16.008 0.242c-6.58 0-8.504 0.007-8.878 0.038-1.35 0.112-2.191 0.325-3.106 0.781-0.705 0.35-1.262 0.756-1.811 1.326-1 1.038-1.606 2.315-1.825 3.833-0.107 0.737-0.138 0.887-0.144 4.652-0.002 1.255 0 2.906 0 5.121 0 6.575 0.007 8.497 0.039 8.87 0.109 1.314 0.315 2.141 0.751 3.045 0.834 1.731 2.427 3.030 4.303 3.515 0.65 0.167 1.367 0.259 2.288 0.303 0.39 0.017 4.369 0.029 8.349 0.029s7.961-0.005 8.342-0.024c1.067-0.050 1.686-0.133 2.371-0.31 1.91-0.501 3.451-1.787 4.286-3.484l0.017-0.039c0.428-0.882 0.645-1.741 0.743-2.986 0.021-0.271 0.030-4.601 0.030-8.924s-0.010-8.645-0.031-8.916c-0.099-1.265-0.316-2.116-0.758-3.016-0.362-0.736-0.765-1.286-1.349-1.848-1.043-0.996-2.318-1.602-3.837-1.821-0.736-0.106-0.883-0.138-4.65-0.144h-5.13z"></path>
<path fill=" #FD1D1D" style="fill: var(--color2,  #FD1D1D)" d="M16.008 0.242c-6.58 0-8.504 0.007-8.878 0.038-1.35 0.112-2.191 0.325-3.106 0.781-0.705 0.35-1.262 0.756-1.811 1.326-1 1.038-1.606 2.315-1.825 3.833-0.107 0.737-0.138 0.887-0.144 4.652-0.002 1.255 0 2.906 0 5.121 0 6.575 0.007 8.497 0.039 8.87 0.109 1.314 0.315 2.141 0.751 3.045 0.834 1.731 2.427 3.030 4.303 3.515 0.65 0.167 1.367 0.259 2.288 0.303 0.39 0.017 4.369 0.029 8.349 0.029s7.961-0.005 8.342-0.024c1.067-0.050 1.686-0.133 2.371-0.31 1.91-0.501 3.451-1.787 4.286-3.484l0.017-0.039c0.428-0.882 0.645-1.741 0.743-2.986 0.021-0.271 0.030-4.601 0.030-8.924s-0.010-8.645-0.031-8.916c-0.099-1.265-0.316-2.116-0.758-3.016-0.362-0.736-0.765-1.286-1.349-1.848-1.043-0.996-2.318-1.602-3.837-1.821-0.736-0.106-0.883-0.138-4.65-0.144h-5.13z"></path>
<path fill="#fff" style="fill: var(--color7, #fff)" d="M16.001 4.364c-3.16 0-3.557 0.014-4.798 0.070-1.239 0.057-2.084 0.253-2.824 0.541-0.765 0.297-1.415 0.695-2.061 1.342s-1.045 1.296-1.343 2.061c-0.288 0.74-0.485 1.586-0.541 2.824-0.056 1.241-0.070 1.638-0.070 4.798s0.014 3.556 0.070 4.797c0.057 1.239 0.253 2.084 0.541 2.824 0.297 0.765 0.695 1.415 1.342 2.061s1.296 1.046 2.061 1.343c0.74 0.288 1.586 0.484 2.825 0.541 1.241 0.056 1.638 0.070 4.798 0.070s3.556-0.014 4.797-0.070c1.239-0.057 2.085-0.253 2.826-0.541 0.765-0.297 1.413-0.696 2.060-1.343s1.045-1.296 1.343-2.061c0.286-0.74 0.482-1.586 0.541-2.824 0.056-1.241 0.070-1.637 0.070-4.797s-0.015-3.557-0.070-4.798c-0.058-1.239-0.255-2.084-0.541-2.824-0.298-0.765-0.696-1.415-1.343-2.061s-1.295-1.045-2.061-1.342c-0.742-0.288-1.588-0.484-2.827-0.541-1.241-0.056-1.636-0.070-4.798-0.070zM14.957 6.461c0.31-0 0.655 0 1.044 0 3.107 0 3.475 0.011 4.702 0.067 1.135 0.052 1.75 0.241 2.16 0.401 0.543 0.211 0.93 0.463 1.337 0.87s0.659 0.795 0.871 1.338c0.159 0.41 0.349 1.025 0.401 2.16 0.056 1.227 0.068 1.595 0.068 4.701s-0.012 3.474-0.068 4.701c-0.052 1.135-0.241 1.75-0.401 2.16-0.211 0.543-0.463 0.93-0.871 1.337s-0.794 0.659-1.337 0.87c-0.41 0.16-1.026 0.349-2.16 0.401-1.227 0.056-1.595 0.068-4.702 0.068s-3.475-0.012-4.702-0.068c-1.135-0.052-1.75-0.242-2.161-0.401-0.543-0.211-0.931-0.463-1.338-0.87s-0.659-0.794-0.871-1.337c-0.159-0.41-0.349-1.025-0.401-2.16-0.056-1.227-0.067-1.595-0.067-4.703s0.011-3.474 0.067-4.701c0.052-1.135 0.241-1.75 0.401-2.16 0.211-0.543 0.463-0.931 0.871-1.338s0.795-0.659 1.338-0.871c0.41-0.16 1.026-0.349 2.161-0.401 1.073-0.048 1.489-0.063 3.658-0.065zM22.212 8.393c-0.771 0-1.396 0.625-1.396 1.396s0.625 1.396 1.396 1.396c0.771 0 1.396-0.625 1.396-1.396 0-0 0-0 0-0.001v0c0-0.771-0.625-1.396-1.396-1.396zM16.001 10.024c-3.3 0-5.976 2.676-5.976 5.976s2.676 5.975 5.976 5.975c3.3 0 5.975-2.674 5.975-5.975s-2.675-5.976-5.975-5.976zM16.001 12.121c2.142 0 3.879 1.736 3.879 3.879s-1.737 3.879-3.879 3.879c-2.142 0-3.879-1.737-3.879-3.879s1.736-3.879 3.879-3.879z"></path>
</symbol>
<symbol id="link" viewBox="0 0 32 32">
<path fill="#0a66c2" style="fill: var(--color11, #0a66c2)" d="M7.22 0.13h17.53c3.982 0.012 7.208 3.237 7.22 7.218v17.385c-0.013 3.981-3.238 7.205-7.218 7.217h-17.531c-3.982-0.012-7.206-3.236-7.22-7.216v-17.385c0.012-3.982 3.237-7.208 7.218-7.22h0.001z"></path>
<path fill="#fff" style="fill: var(--color7, #fff)" d="M12.797 12.464h4.040v2.081h0.057c0.565-1.009 1.938-2.081 3.991-2.081 4.264 0 5.052 2.654 5.052 6.106v7.3h-4.212v-6.488c0-1.486-0.031-3.398-2.191-3.398s-2.529 1.616-2.529 3.291v6.608h-4.209v-13.419zM10.406 8.401c0 1.21-0.981 2.191-2.191 2.191s-2.191-0.981-2.191-2.191c0-1.21 0.981-2.191 2.191-2.191v0c1.209 0.001 2.189 0.981 2.191 2.19v0zM6.031 12.464h4.376v13.406h-4.376v-13.406z"></path>
</symbol>
<symbol id="master" viewBox="0 0 32 32">
<path fill="#fff" style="fill: var(--color7, #fff)" d="M0 0h32v32h-32v-32z"></path>
<path fill="#e9b040" style="fill: var(--color12, #e9b040)" d="M16.007 22.087c1.439 1.326 3.371 2.13 5.473 2.13 4.514 0 8.167-3.681 8.167-8.21 0-4.542-3.653-8.223-8.167-8.223-2.102 0-4.034 0.804-5.473 2.13-1.65 1.509-2.694 3.681-2.694 6.094s1.044 4.584 2.694 6.080z"></path>
<path fill="#e9b040" style="fill: var(--color12, #e9b040)" d="M28.561 20.577c0-0.141 0.113-0.254 0.254-0.254 0.155 0 0.268 0.113 0.268 0.254 0 0.155-0.113 0.268-0.268 0.268-0.141 0-0.254-0.113-0.254-0.268zM28.815 20.789c0.113 0 0.211-0.099 0.211-0.212s-0.099-0.197-0.211-0.197c-0.099 0-0.197 0.085-0.197 0.197s0.099 0.212 0.197 0.212zM28.787 20.704h-0.056v-0.24h0.099c0.014 0 0.043 0 0.056 0.014 0.028 0.014 0.028 0.028 0.028 0.056s-0.014 0.056-0.042 0.056l0.056 0.113h-0.071l-0.028-0.099h-0.042v0.099-0.141h0.056c0.014 0 0.014-0.014 0.014-0.028s0-0.014-0.014-0.028h-0.056v0.198z"></path>
<path fill="#cc2131" style="fill: var(--color13, #cc2131)" d="M18.645 15.133c-0.028-0.296-0.085-0.578-0.141-0.875h-4.993c0.056-0.296 0.141-0.578 0.226-0.86h4.528c-0.12-0.363-0.235-0.652-0.363-0.934l0.024 0.059h-3.837c0.169-0.356 0.324-0.643 0.492-0.921l-0.026 0.046h2.892c-0.203-0.326-0.407-0.607-0.63-0.872l0.009 0.011h-1.651c0.262-0.318 0.534-0.604 0.826-0.869l0.007-0.006c-1.453-1.312-3.371-2.13-5.487-2.13-4.5 0-8.167 3.682-8.167 8.223 0 4.528 3.667 8.21 8.167 8.21 2.116 0 4.034-0.804 5.487-2.13 0.294-0.266 0.561-0.547 0.807-0.847l0.011-0.014h-1.651c-0.226-0.282-0.423-0.564-0.621-0.875h2.892c0.165-0.248 0.325-0.535 0.463-0.834l0.017-0.041h-3.837c-0.127-0.282-0.254-0.564-0.353-0.861h4.528c0.099-0.282 0.169-0.578 0.24-0.875 0.056-0.282 0.113-0.578 0.141-0.875 0.027-0.256 0.043-0.552 0.043-0.852 0-0.003 0-0.006 0-0.009v0c0-0.296-0.014-0.592-0.042-0.874z"></path>
<path fill="#fff" style="fill: var(--color7, #fff)" d="M28.561 17.911c0-0.155 0.113-0.268 0.254-0.268 0.155 0 0.268 0.113 0.268 0.268 0 0.141-0.113 0.268-0.268 0.268-0.141 0-0.254-0.127-0.254-0.268zM28.815 18.109c0.113 0 0.211-0.085 0.211-0.197s-0.099-0.197-0.211-0.197c-0.099 0-0.197 0.085-0.197 0.197s0.099 0.197 0.197 0.197zM28.787 18.024h-0.056v-0.226h0.155c0.028 0.014 0.028 0.043 0.028 0.071 0 0.014-0.014 0.042-0.042 0.056l0.056 0.099h-0.071l-0.028-0.085h-0.042v0.084-0.127h0.028c0.014 0 0.028 0 0.028-0.014 0.014 0 0.014-0.014 0.014-0.028 0 0 0-0.014-0.014-0.014 0-0.014-0.014 0-0.028 0h-0.028v0.183z"></path>
<path fill="#1b3771" style="fill: var(--color14, #1b3771)" d="M13.228 18.377c-0.268 0.070-0.466 0.113-0.663 0.113-0.423 0-0.677-0.268-0.677-0.748 0-0.099 0.014-0.197 0.028-0.31l0.056-0.324 0.042-0.268 0.381-2.313h0.846l-0.099 0.508h0.536l-0.127 0.846h-0.536l-0.226 1.382c-0.014 0.071-0.014 0.113-0.014 0.141 0 0.183 0.085 0.254 0.296 0.254 0.099 0 0.183-0.014 0.268-0.028l-0.113 0.748zM15.965 18.349c-0.31 0.085-0.592 0.127-0.903 0.127-0.959 0-1.509-0.508-1.509-1.509 0-1.171 0.649-2.017 1.552-2.017 0.719 0 1.185 0.48 1.185 1.227 0 0.254-0.028 0.494-0.099 0.832h-1.763c-0.014 0.056-0.014 0.085-0.014 0.113 0 0.395 0.268 0.592 0.776 0.592 0.324 0 0.606-0.070 0.917-0.211l-0.141 0.846zM15.443 16.332v-0.169c0-0.282-0.155-0.437-0.423-0.437-0.282 0-0.48 0.211-0.564 0.606l0.987 0zM6.458 18.419h-0.875l0.508-3.202-1.143 3.202h-0.606l-0.071-3.188-0.536 3.188h-0.86l0.691-4.161h1.284l0.028 2.567 0.86-2.567h1.411l-0.691 4.161zM8.588 16.91c-0.085-0.014-0.113-0.014-0.169-0.014-0.508 0-0.762 0.197-0.762 0.508 0 0.212 0.127 0.353 0.324 0.353 0.423 0 0.592-0.353 0.607-0.846zM9.293 18.419h-0.762l0.014-0.352c-0.198 0.268-0.466 0.409-0.931 0.409-0.423 0-0.79-0.381-0.79-0.931 0-0.155 0.028-0.296 0.071-0.437 0.141-0.522 0.663-0.846 1.467-0.861 0.099 0 0.254 0 0.395 0.014 0.028-0.113 0.028-0.155 0.028-0.226 0-0.226-0.183-0.296-0.592-0.296-0.254 0-0.536 0.042-0.733 0.113l-0.127 0.028-0.056 0.014 0.127-0.762c0.409-0.127 0.705-0.183 1.030-0.183 0.762 0 1.171 0.353 1.171 1.001 0 0.169 0.014 0.296-0.042 0.663l-0.197 1.213-0.028 0.212-0.014 0.169-0.014 0.113-0.014 0.098zM20.225 15.062c0.254 0 0.48 0.071 0.79 0.226l0.155-0.903c-0.085-0.042-0.113-0.042-0.226-0.085l-0.352-0.099c-0.113-0.028-0.254-0.042-0.409-0.042-0.437 0-0.691 0.014-0.959 0.169-0.141 0.099-0.325 0.226-0.522 0.451l-0.113-0.028-0.903 0.635 0.043-0.353h-0.931l-0.55 3.385h0.889l0.324-1.819s0.127-0.254 0.183-0.338c0.169-0.212 0.31-0.212 0.494-0.212h0.071c-0.027 0.187-0.043 0.402-0.043 0.621 0 0.010 0 0.019 0 0.029v-0.002c0 1.1 0.621 1.791 1.58 1.791 0.24 0 0.452-0.028 0.776-0.113l0.155-0.959c-0.282 0.155-0.536 0.226-0.748 0.226-0.522 0-0.832-0.395-0.832-1.015-0-0.917 0.465-1.566 1.128-1.566zM27.714 14.258l-0.197 1.185c-0.212-0.324-0.466-0.48-0.804-0.48-0.466 0-0.903 0.268-1.171 0.776v-0.014l-0.564-0.339 0.056-0.353h-0.945l-0.536 3.385h0.875l0.296-1.819s0.226-0.254 0.282-0.338c0.141-0.169 0.282-0.198 0.395-0.212-0.099 0.282-0.155 0.621-0.155 1.002 0 0.846 0.437 1.41 1.086 1.41 0.325 0 0.578-0.113 0.818-0.381l-0.042 0.338h0.832l0.677-4.161h-0.903zM26.628 17.615c-0.296 0-0.451-0.226-0.451-0.663 0-0.663 0.282-1.143 0.691-1.143 0.31 0 0.466 0.24 0.466 0.663 0 0.677-0.282 1.142-0.705 1.142zM22.552 16.91c-0.085-0.014-0.113-0.014-0.169-0.014-0.508 0-0.762 0.197-0.762 0.508 0 0.212 0.127 0.353 0.325 0.353 0.423 0 0.593-0.353 0.607-0.846zM23.257 18.419h-0.776l0.028-0.352c-0.197 0.268-0.466 0.409-0.931 0.409-0.437 0-0.818-0.367-0.818-0.931 0-0.804 0.606-1.298 1.566-1.298 0.099 0 0.254 0 0.381 0.014 0.028-0.113 0.043-0.155 0.043-0.226 0-0.226-0.183-0.296-0.607-0.296-0.24 0-0.536 0.042-0.733 0.113l-0.169 0.042 0.127-0.762c0.409-0.127 0.706-0.183 1.030-0.183 0.762 0 1.157 0.353 1.157 1.001 0 0.169 0.028 0.296-0.042 0.663l-0.183 1.213-0.028 0.212-0.028 0.169-0.014 0.113v0.098h-0zM11.141 15.753c0.169 0 0.409 0.014 0.663 0.056l0.127-0.79c-0.254-0.028-0.592-0.071-0.79-0.071-0.987 0-1.312 0.536-1.312 1.157 0 0.409 0.183 0.705 0.663 0.931 0.353 0.169 0.409 0.197 0.409 0.353 0 0.211-0.183 0.338-0.522 0.338-0.268 0-0.522-0.043-0.804-0.141l-0.099 0.776 0.014 0.014 0.169 0.028c0.056 0.014 0.127 0.028 0.226 0.042 0.211 0.014 0.395 0.028 0.508 0.028 0.987 0 1.396-0.381 1.396-1.128 0-0.465-0.226-0.747-0.663-0.945-0.381-0.169-0.423-0.197-0.423-0.353s0.169-0.296 0.437-0.296z"></path>
<path fill="#fff" style="fill: var(--color7, #fff)" d="M21.41 14.117l-0.155 0.903c-0.31-0.155-0.536-0.226-0.79-0.226-0.663 0-1.128 0.649-1.128 1.566 0 0.635 0.31 1.015 0.832 1.015 0.211 0 0.465-0.070 0.747-0.211l-0.155 0.945c-0.325 0.085-0.536 0.127-0.776 0.127-0.959 0-1.552-0.691-1.552-1.805 0-1.481 0.818-2.525 1.989-2.525 0.155 0 0.296 0.014 0.409 0.042l0.353 0.085c0.113 0.042 0.141 0.056 0.226 0.085zM18.56 14.738h-0.085c-0.296 0-0.465 0.141-0.733 0.55l0.085-0.522h-0.804l-0.55 3.385h0.889c0.324-2.073 0.409-2.426 0.832-2.426h0.056c0.085-0.409 0.197-0.705 0.338-0.973l-0.028-0.014zM13.454 18.109c-0.24 0.085-0.437 0.113-0.635 0.113-0.451 0-0.705-0.254-0.705-0.747 0-0.085 0.014-0.197 0.028-0.296l0.056-0.338 0.042-0.268 0.381-2.314h0.875l-0.099 0.508h0.451l-0.113 0.832h-0.451l-0.24 1.411c-0.014 0.056-0.014 0.099-0.014 0.141 0 0.169 0.085 0.24 0.296 0.24 0.099 0 0.183 0 0.24-0.028l-0.113 0.747zM10.055 15.838c0 0.423 0.197 0.719 0.663 0.945 0.367 0.169 0.423 0.226 0.423 0.367 0 0.212-0.155 0.31-0.508 0.31-0.268 0-0.508-0.042-0.79-0.127l-0.127 0.776 0.042 0.014 0.155 0.028c0.056 0.014 0.127 0.028 0.24 0.028 0.197 0.028 0.367 0.028 0.48 0.028 0.931 0 1.368-0.353 1.368-1.128 0-0.466-0.183-0.734-0.621-0.945-0.381-0.169-0.423-0.211-0.423-0.367 0-0.183 0.155-0.268 0.437-0.268 0.169 0 0.409 0.014 0.635 0.042l0.127-0.776c-0.226-0.042-0.578-0.071-0.776-0.071-0.987-0-1.34 0.522-1.326 1.142zM28.166 18.151h-0.832l0.043-0.325c-0.24 0.254-0.494 0.367-0.818 0.367-0.649 0-1.072-0.55-1.072-1.396 0-1.129 0.663-2.088 1.439-2.088 0.353 0 0.607 0.155 0.847 0.466l0.197-1.185h0.875l-0.677 4.161zM26.868 17.361c0.409 0 0.691-0.48 0.691-1.143 0-0.437-0.155-0.663-0.466-0.663-0.395 0-0.691 0.466-0.691 1.129 0 0.452 0.155 0.677 0.465 0.677zM16.162 18.080c-0.31 0.099-0.592 0.141-0.917 0.141-0.987 0-1.495-0.522-1.495-1.523 0-1.157 0.649-2.017 1.538-2.017 0.733 0 1.199 0.48 1.199 1.227 0 0.254-0.028 0.494-0.113 0.846h-1.749c-0.014 0.043-0.014 0.071-0.014 0.099 0 0.395 0.268 0.592 0.776 0.592 0.324 0 0.606-0.056 0.917-0.212l-0.141 0.846zM15.668 16.063v-0.169c0-0.282-0.155-0.437-0.423-0.437-0.282 0-0.48 0.212-0.564 0.606h0.987zM6.683 18.151h-0.875l0.508-3.202-1.143 3.202h-0.607l-0.071-3.174-0.536 3.174h-0.818l0.691-4.161h1.27l0.042 2.581 0.846-2.581h1.382l-0.691 4.161zM8.87 16.642c-0.085 0-0.127-0.014-0.198-0.014-0.494 0-0.748 0.183-0.748 0.522 0 0.212 0.113 0.338 0.31 0.338 0.367 0 0.621-0.338 0.635-0.846zM9.519 18.151h-0.734l0.014-0.353c-0.226 0.282-0.522 0.409-0.931 0.409-0.48 0-0.804-0.367-0.804-0.917 0-0.832 0.564-1.312 1.552-1.312 0.099 0 0.226 0.014 0.367 0.028 0.028-0.113 0.028-0.155 0.028-0.211 0-0.226-0.155-0.31-0.564-0.31-0.254 0-0.536 0.028-0.733 0.085l-0.127 0.042-0.085 0.014 0.127-0.762c0.437-0.127 0.733-0.169 1.058-0.169 0.762 0 1.171 0.338 1.171 0.987 0 0.169-0.014 0.296-0.071 0.677l-0.198 1.199-0.028 0.211-0.014 0.169-0.014 0.127-0.014 0.084zM22.834 16.642c-0.099 0-0.141-0.014-0.197-0.014-0.508 0-0.762 0.183-0.762 0.522 0 0.212 0.127 0.338 0.325 0.338 0.353 0 0.621-0.338 0.635-0.846zM23.483 18.151h-0.733l0.014-0.353c-0.226 0.282-0.522 0.409-0.931 0.409-0.48 0-0.804-0.367-0.804-0.917 0-0.832 0.564-1.312 1.552-1.312 0.099 0 0.226 0.014 0.353 0.028 0.028-0.113 0.043-0.155 0.043-0.211 0-0.226-0.155-0.31-0.564-0.31-0.254 0-0.55 0.028-0.748 0.085l-0.113 0.042-0.085 0.014 0.127-0.762c0.437-0.127 0.733-0.169 1.058-0.169 0.762 0 1.157 0.338 1.157 0.987 0 0.169 0 0.296-0.070 0.677l-0.183 1.199-0.028 0.211-0.028 0.169-0.014 0.127v0.084h-0zM25.853 14.738h-0.085c-0.296 0-0.465 0.141-0.733 0.55l0.085-0.522h-0.804l-0.536 3.385h0.875c0.325-2.073 0.409-2.426 0.832-2.426h0.056c0.085-0.409 0.197-0.705 0.338-0.973l-0.028-0.014z"></path>
</symbol>
<symbol id="menu" viewBox="0 0 32 32">
<path d="M20.007 3.001h-8.003c-4.97 0.006-8.997 4.033-9.003 9.003v8.003c0.006 4.97 4.033 8.997 9.003 9.003h8.003c4.97-0.006 8.997-4.033 9.003-9.003v-8.003c-0.006-4.97-4.033-8.997-9.003-9.003h-0.001zM27.010 20.007c-0.005 3.866-3.137 6.998-7.002 7.003h-8.003c-3.866-0.005-6.998-3.137-7.003-7.002v-8.003c0.005-3.866 3.137-6.998 7.002-7.003h8.003c3.866 0.005 6.998 3.137 7.003 7.002v0zM22.341 16.006c0 0.552-0.448 1-1 1v0h-4.335v4.335c0 0.552-0.448 1-1 1s-1-0.448-1-1v0-4.335h-4.335c-0.552 0-1-0.448-1-1s0.448-1 1-1v0h4.335v-4.335c0-0.552 0.448-1 1-1s1 0.448 1 1v0 4.335h4.335c0.552 0 1 0.448 1 1v0z"></path>
</symbol>
<symbol id="paypal" viewBox="0 0 32 32">
<path fill="#253b80" style="fill: var(--color15, #253b80)" d="M11.974 13.837h-1.768c-0 0-0 0-0 0-0.122 0-0.223 0.089-0.242 0.206l-0 0.001-0.715 4.535c-0.001 0.007-0.002 0.015-0.002 0.023 0 0.081 0.066 0.147 0.147 0.147 0 0 0 0 0 0v0h0.844c0 0 0 0 0 0 0.122 0 0.224-0.089 0.242-0.206l0-0.001 0.193-1.223c0.019-0.118 0.12-0.208 0.243-0.208h0.56c1.165 0 1.837-0.564 2.013-1.681 0.079-0.489 0.003-0.873-0.226-1.142-0.251-0.295-0.697-0.451-1.289-0.451zM12.178 15.493c-0.097 0.635-0.582 0.635-1.050 0.635h-0.267l0.187-1.185c0.012-0.071 0.072-0.124 0.146-0.124h0.122c0.319 0 0.621 0 0.776 0.182 0.093 0.109 0.121 0.27 0.086 0.493zM17.261 15.473h-0.847c-0.073 0-0.134 0.053-0.145 0.124l-0 0.001-0.038 0.237-0.059-0.086c-0.183-0.266-0.592-0.355-1-0.355-0.936 0-1.735 0.709-1.891 1.703-0.081 0.496 0.034 0.97 0.315 1.301 0.258 0.304 0.627 0.431 1.067 0.431 0.754 0 1.172-0.485 1.172-0.485l-0.038 0.235c-0.001 0.007-0.002 0.015-0.002 0.023 0 0.081 0.066 0.147 0.147 0.147v0h0.763c0 0 0 0 0 0 0.122 0 0.224-0.089 0.242-0.206l0-0.001 0.458-2.899c0.001-0.007 0.002-0.015 0.002-0.023 0-0.081-0.066-0.147-0.147-0.147-0 0-0 0-0 0v0zM16.080 17.121c-0.082 0.484-0.466 0.809-0.955 0.809-0.246 0-0.442-0.079-0.569-0.228-0.125-0.148-0.173-0.36-0.133-0.595 0.076-0.48 0.467-0.815 0.949-0.815 0.241 0 0.436 0.080 0.565 0.231 0.129 0.152 0.18 0.365 0.143 0.599zM21.771 15.473h-0.851c-0.084 0-0.159 0.042-0.203 0.107l-0.001 0.001-1.174 1.729-0.498-1.661c-0.032-0.102-0.125-0.175-0.236-0.175h-0.836c-0 0-0 0-0 0-0.081 0-0.147 0.066-0.147 0.147 0 0.017 0.003 0.033 0.008 0.049l-0-0.001 0.937 2.751-0.881 1.244c-0.017 0.024-0.027 0.053-0.027 0.085 0 0.081 0.066 0.147 0.147 0.147 0 0 0 0 0 0h0.85c0 0 0 0 0 0 0.083 0 0.157-0.041 0.201-0.105l0.001-0.001 2.83-4.086c0.016-0.023 0.026-0.053 0.026-0.084 0-0.081-0.066-0.147-0.147-0.147v0z"></path>
<path fill="#179bd7" style="fill: var(--color16, #179bd7)" d="M24.588 13.837h-1.769c-0.122 0-0.223 0.089-0.242 0.206l-0 0.001-0.715 4.535c-0.001 0.007-0.002 0.015-0.002 0.023 0 0.081 0.066 0.147 0.147 0.147 0 0 0 0 0 0h0.908c0.085-0 0.156-0.063 0.169-0.144l0-0.001 0.203-1.285c0.019-0.118 0.12-0.208 0.243-0.208h0.56c1.165 0 1.837-0.564 2.013-1.681 0.079-0.489 0.003-0.873-0.226-1.142-0.251-0.295-0.697-0.451-1.289-0.451zM24.792 15.493c-0.096 0.635-0.581 0.635-1.050 0.635h-0.267l0.187-1.185c0.011-0.071 0.072-0.124 0.145-0.124 0 0 0 0 0 0v0h0.122c0.319 0 0.621 0 0.776 0.182 0.093 0.109 0.121 0.27 0.086 0.493zM29.874 15.473h-0.846c-0 0-0 0-0 0-0.073 0-0.134 0.054-0.145 0.124l-0 0.001-0.038 0.237-0.059-0.086c-0.183-0.266-0.592-0.355-1-0.355-0.936 0-1.735 0.709-1.891 1.703-0.081 0.496 0.034 0.97 0.315 1.301 0.259 0.304 0.627 0.431 1.067 0.431 0.754 0 1.172-0.485 1.172-0.485l-0.038 0.235c-0.001 0.007-0.002 0.015-0.002 0.023 0 0.081 0.066 0.147 0.147 0.147 0 0 0 0 0 0h0.763c0.122-0 0.224-0.089 0.242-0.206l0-0.001 0.458-2.899c0.001-0.007 0.002-0.015 0.002-0.023 0-0.082-0.066-0.148-0.148-0.148-0 0-0 0-0 0v0zM28.694 17.121c-0.081 0.484-0.466 0.809-0.955 0.809-0.245 0-0.442-0.079-0.569-0.228-0.125-0.148-0.172-0.36-0.133-0.595 0.077-0.48 0.467-0.815 0.949-0.815 0.241 0 0.436 0.080 0.565 0.231 0.13 0.152 0.181 0.365 0.143 0.599zM30.873 13.962l-0.726 4.618c-0.001 0.007-0.002 0.015-0.002 0.023 0 0.081 0.066 0.147 0.147 0.147 0 0 0 0 0 0h0.73c0.121 0 0.224-0.088 0.243-0.208l0.716-4.535c0.001-0.007 0.002-0.015 0.002-0.023 0-0.081-0.066-0.147-0.147-0.147v0h-0.817c-0.073 0-0.134 0.054-0.145 0.124l-0 0.001z"></path>
<path fill="#253b80" style="fill: var(--color15, #253b80)" d="M1.904 19.631l0.135-0.859-0.301-0.007h-1.438l1-6.339c0.006-0.039 0.040-0.069 0.081-0.069 0 0 0 0 0 0h2.425c0.805 0 1.361 0.168 1.651 0.498 0.136 0.155 0.223 0.317 0.265 0.496 0.044 0.187 0.045 0.411 0.002 0.684l-0.003 0.020v0.175l0.136 0.077c0.107 0.055 0.198 0.125 0.275 0.209l0.001 0.001c0.116 0.133 0.192 0.301 0.223 0.501 0.033 0.206 0.022 0.45-0.032 0.727-0.062 0.319-0.162 0.596-0.298 0.823-0.123 0.206-0.28 0.379-0.467 0.514l-0.005 0.003c-0.18 0.128-0.394 0.225-0.636 0.287-0.234 0.061-0.501 0.092-0.794 0.092h-0.189c-0.135 0-0.266 0.049-0.369 0.136-0.1 0.086-0.17 0.205-0.192 0.34l-0 0.003-0.014 0.077-0.239 1.514-0.011 0.056c-0.003 0.018-0.008 0.026-0.015 0.032s-0.015 0.009-0.025 0.009h-0z"></path>
<path fill="#179bd7" style="fill: var(--color16, #179bd7)" d="M5.985 14.075c-0.007 0.046-0.016 0.094-0.025 0.142-0.32 1.642-1.414 2.21-2.812 2.21h-0.712c-0.171 0-0.315 0.124-0.342 0.293l-0.364 2.311-0.103 0.655c-0.001 0.009-0.002 0.018-0.002 0.028 0 0.101 0.081 0.182 0.182 0.182h1.262c0.149 0 0.276-0.109 0.3-0.256l0.012-0.064 0.238-1.508 0.015-0.083c0.023-0.148 0.151-0.257 0.3-0.257h0.189c1.223 0 2.18-0.497 2.46-1.933 0.117-0.6 0.056-1.101-0.253-1.454-0.097-0.107-0.211-0.196-0.339-0.263l-0.007-0.003z"></path>
<path fill="#222d65" style="fill: var(--color17, #222d65)" d="M5.65 13.941c-0.084-0.026-0.189-0.050-0.297-0.067l-0.014-0.002c-0.18-0.029-0.388-0.046-0.6-0.046-0.010 0-0.019 0-0.028 0h-1.9c-0 0-0 0-0 0-0.151 0-0.276 0.11-0.299 0.255l-0 0.002-0.404 2.562-0.012 0.075c0.026-0.167 0.169-0.293 0.341-0.293 0 0 0 0 0 0h0.712c1.398 0 2.492-0.568 2.812-2.21 0.010-0.049 0.018-0.096 0.025-0.142-0.074-0.040-0.161-0.077-0.251-0.107l-0.012-0.004c-0.007-0.003-0.031-0.011-0.055-0.018l-0.017-0.004z"></path>
<path fill="#253b80" style="fill: var(--color15, #253b80)" d="M2.511 14.083c0.023-0.146 0.148-0.256 0.299-0.256 0 0 0.001 0 0.001 0h1.901c0.225 0 0.435 0.015 0.627 0.046 0.147 0.023 0.276 0.055 0.401 0.096l-0.018-0.005c0.094 0.031 0.182 0.068 0.263 0.111 0.095-0.607-0.001-1.020-0.329-1.394-0.362-0.412-1.015-0.588-1.85-0.588h-2.426c-0.171 0-0.316 0.124-0.343 0.293l-1.010 6.404c-0.002 0.010-0.003 0.021-0.003 0.033 0 0.115 0.093 0.208 0.208 0.208h1.497l0.376-2.385z"></path>
</symbol>
<symbol id="tw" viewBox="0 0 32 32">
<path fill="#1ca1f1" style="fill: var(--color18, #1ca1f1)" d="M7.22 0.13h17.53c3.982 0.012 7.208 3.237 7.22 7.218v17.385c-0.013 3.981-3.238 7.205-7.218 7.217h-17.531c-3.982-0.012-7.206-3.236-7.22-7.216v-17.385c0.012-3.982 3.237-7.208 7.218-7.22h0.001z"></path>
<path fill="#fff" style="fill: var(--color7, #fff)" d="M26.68 9.407c-0.734 0.335-1.584 0.578-2.477 0.685l-0.041 0.004c0.906-0.55 1.587-1.391 1.921-2.391l0.009-0.031c-0.802 0.484-1.735 0.853-2.729 1.057l-0.057 0.010c-0.803-0.854-1.939-1.385-3.2-1.385-2.422 0-4.385 1.961-4.389 4.382v0c0 0.354 0.041 0.699 0.118 1.030l-0.006-0.031c-3.655-0.189-6.869-1.927-9.023-4.564l-0.018-0.022c-0.374 0.632-0.596 1.393-0.596 2.205 0 0 0 0.001 0 0.001v-0c0.001 1.513 0.769 2.846 1.936 3.632l0.016 0.010c-0.733-0.026-1.414-0.226-2.010-0.56l0.022 0.011v0.057c0 0.004-0 0.009-0 0.014 0 2.116 1.498 3.882 3.492 4.295l0.028 0.005c-0.347 0.098-0.745 0.155-1.157 0.156h-0.001c-0.294-0.002-0.579-0.031-0.856-0.085l0.029 0.005c0.579 1.756 2.187 3.008 4.093 3.046l0.005 0c-1.487 1.174-3.389 1.883-5.456 1.883-0.369 0-0.733-0.023-1.090-0.067l0.043 0.004c1.897 1.237 4.218 1.972 6.712 1.972 0.006 0 0.011 0 0.017 0h-0.001c8.065 0 12.488-6.686 12.488-12.488 0-0.193 0-0.38-0.013-0.57 0.863-0.625 1.589-1.376 2.168-2.235l0.020-0.031z"></path>
</symbol>
<symbol id="visa" viewBox="0 0 32 32">
<path fill="#2566af" style="fill: var(--color19, #2566af)" d="M14.209 20.223h-2.197l1.373-8.441h2.198zM10.163 11.783l-2.095 5.805-0.248-1.25 0 0-0.739-3.796s-0.089-0.76-1.042-0.76h-3.463l-0.041 0.143s1.059 0.22 2.299 0.965l1.909 7.333h2.29l3.496-8.441h-2.365zM27.448 20.223h2.018l-1.759-8.441h-1.767c-0.816 0-1.014 0.629-1.014 0.629l-3.277 7.812h2.291l0.458-1.254h2.794l0.257 1.254zM25.030 17.238l1.155-3.159 0.65 3.159h-1.804zM21.82 13.812l0.314-1.813s-0.968-0.368-1.976-0.368c-1.090 0-3.68 0.477-3.68 2.794 0 2.181 3.039 2.208 3.039 3.353s-2.726 0.94-3.626 0.218l-0.327 1.895s0.981 0.477 2.48 0.477c1.5 0 3.762-0.776 3.762-2.89 0-2.195-3.067-2.399-3.067-3.353s2.14-0.832 3.081-0.314z"></path>
<path fill="#e6a540" style="fill: var(--color20, #e6a540)" d="M7.821 16.338l-0.739-3.796s-0.089-0.76-1.042-0.76h-3.463l-0.041 0.143s1.665 0.345 3.261 1.638c1.527 1.235 2.025 2.775 2.025 2.775z"></path>
</symbol>
<symbol id="write" viewBox="0 0 32 32">
<path fill="#f98aab" style="fill: var(--color2, #f98aab)" d="M4.314 12.105h4.846c0.33-0.019 0.591-0.292 0.591-0.625s-0.261-0.606-0.589-0.625l-0.002-0h-4.846c-0.33 0.019-0.591 0.292-0.591 0.625s0.261 0.606 0.589 0.625l0.002 0zM4.314 16.437h4.846c0.33-0.019 0.591-0.292 0.591-0.625s-0.261-0.606-0.589-0.625l-0.002-0h-4.846c-0.33 0.019-0.591 0.292-0.591 0.625s0.261 0.606 0.589 0.625l0.002 0zM10.322 26.917c-0.098-0.229-0.321-0.386-0.581-0.386-0.085 0-0.166 0.017-0.24 0.047l0.004-0.002c-0.229 0.098-0.387 0.321-0.387 0.581 0 0.086 0.017 0.168 0.049 0.243l-0.002-0.004c0.132 0.312 0.502 0.466 0.818 0.336 0.228-0.098 0.384-0.321 0.384-0.58 0-0.085-0.017-0.166-0.047-0.24l0.002 0.004z"></path>
<path fill="#f98aab" style="fill: var(--color2, #f98aab)" d="M31.843 17.241l-7.435-7.983 2.277-2.273c0.396-0.39 0.614-0.912 0.614-1.469 0-0.548-0.212-1.064-0.6-1.455-0.377-0.376-0.898-0.609-1.473-0.609-0.564 0-1.076 0.224-1.451 0.588l-0.005 0.005-3.121 3.113h-1.168v-2.401c-0.001-0.344-0.28-0.623-0.624-0.624h-3.313v-0.51c-0.019-0.33-0.292-0.591-0.625-0.591s-0.606 0.261-0.625 0.589l-0 0.002v0.51h-2.285v-0.51c-0.019-0.33-0.292-0.591-0.625-0.591s-0.606 0.261-0.625 0.589l-0 0.002v0.51h-2.283v-0.51c-0.019-0.33-0.292-0.591-0.625-0.591s-0.606 0.261-0.625 0.589l-0 0.002v0.51h-2.285v-0.51c-0.019-0.33-0.292-0.591-0.625-0.591s-0.606 0.261-0.625 0.589l-0 0.002v0.51h-3.063c0 0 0 0 0 0-0.345 0-0.625 0.279-0.626 0.624v22.396c0 0.346 0.28 0.626 0.626 0.626h6.382c0.33-0.019 0.591-0.292 0.591-0.625s-0.261-0.606-0.589-0.625l-0.002-0h-5.76v-21.148h2.441v0.568c0.027 0.324 0.296 0.576 0.624 0.576s0.598-0.253 0.624-0.574l0-0.002v-0.566h2.285v0.566c0.019 0.33 0.292 0.591 0.625 0.591s0.606-0.261 0.625-0.589l0-0.002v-0.566h2.283v0.566c0.019 0.33 0.292 0.591 0.625 0.591s0.606-0.261 0.625-0.589l0-0.002v-0.566h2.285v0.566c0.019 0.33 0.292 0.591 0.625 0.591s0.606-0.261 0.625-0.589l0-0.002v-0.566h2.685v1.781c-1.172 0.052-2.219 0.543-2.991 1.311l-4.601 4.601c-0.111 0.114-0.18 0.269-0.18 0.441 0 0.218 0.111 0.411 0.28 0.524l0.002 0.001c0.652 0.428 1.451 0.682 2.31 0.682 0.004 0 0.008 0 0.011 0h0.001l-0.716 0.716c-0.050 0.050-0.092 0.109-0.122 0.174l-0.002 0.004-2.005 3.013c-0.146 0.214-0.233 0.478-0.233 0.763 0 0.041 0.002 0.082 0.005 0.123l-0-0.005h-5.67c-0.33 0.019-0.591 0.292-0.591 0.625s0.261 0.606 0.589 0.625l0.002 0h7.043c0.286-0.003 0.55-0.093 0.769-0.243l-0.005 0.003 3.049-2.073c0.038-0.025 0.070-0.051 0.1-0.080l-0 0 1.414-1.413 1.543 1.541v8.031h-5.722c-0.33 0.019-0.591 0.292-0.591 0.625s0.261 0.606 0.589 0.625l0.002 0h6.348c0.344 0 0.624-0.28 0.624-0.626v-7.435c0.79 0.656 1.777 1.014 2.817 1.014h2.495c0.52 0 1.020 0.214 1.377 0.586l4.762 5.062c0.38 0.402 1.082 0.126 1.082-0.428v-8.287c0 0 0-0 0-0 0-0.165-0.064-0.315-0.168-0.426l0 0zM16.122 9.358c0.587-0.585 1.396-0.947 2.291-0.948h0.981l-3.895 3.887c-0.36 0.346-0.702 0.684-1.164 0.9-0.68 0.314-1.473 0.364-2.189 0.14l3.977-3.977zM24.647 4.937c0.149-0.145 0.353-0.234 0.578-0.234 0.229 0 0.436 0.093 0.586 0.242l-0-0c0.147 0.147 0.239 0.35 0.239 0.574 0 0.228-0.094 0.435-0.246 0.582l-0 0-6.536 6.516-0.316-0.314c-0.288-0.287-0.649-0.503-1.051-0.618l-0.017-0.004 6.766-6.746zM11.42 19.49c-0.054 0.036-0.104 0.032-0.15-0.014-0.070-0.068-0.034-0.12-0.016-0.15l1.635-2.455 0.964 0.964-2.433 1.655zM14.831 17.043l-1.16-1.16 1.192-1.188c0.112 0.406 0.334 0.778 0.632 1.076l0.306 0.304-0.97 0.968zM30.761 24.376l-3.685-3.917c-0.577-0.601-1.387-0.975-2.285-0.976h-2.495c-0.844 0-1.641-0.328-2.237-0.924l-3.681-3.673c-0.53-0.4-0.412-1.282 0-1.701 0.219-0.211 0.518-0.34 0.846-0.34s0.627 0.13 0.847 0.341l2.991 2.993c0.24 0.24 0.642 0.24 0.884 0 0.113-0.113 0.183-0.27 0.183-0.442s-0.070-0.329-0.183-0.442v0l-1.793-1.793 3.369-3.361 7.239 7.773v6.464z"></path>
</symbol>
</defs>
</svg>
