<!-- Generated by IcoMoon.io -->
<svg version="1.1" xmlns="http://www.w3.org/2000/svg" width="48" height="32" viewBox="0 0 48 32">
<title>tw</title>
<path fill="#1da1f2" d="M17.982 32.484c13.698 0 21.188-11.352 21.188-21.196 0-0.322-0.007-0.643-0.021-0.963 1.463-1.067 2.695-2.345 3.681-3.804l0.034-0.054c-1.334 0.593-2.77 0.993-4.277 1.173 1.538-0.922 2.718-2.381 3.275-4.12-1.361 0.822-2.945 1.449-4.633 1.792l-0.096 0.016c-1.359-1.448-3.294-2.354-5.436-2.354-4.112 0-7.447 3.336-7.447 7.449 0 0.585 0.065 1.153 0.193 1.699-6.189-0.312-11.678-3.276-15.351-7.783-0.634 1.071-1.008 2.361-1.008 3.738 0 0.002 0 0.005 0 0.007v-0c0 2.585 1.315 4.866 3.314 6.201-1.244-0.039-2.401-0.38-3.409-0.951l0.037 0.019c-0.001 0.031-0.001 0.062-0.001 0.095 0 3.608 2.567 6.62 5.974 7.303-0.588 0.166-1.262 0.262-1.959 0.262-0.002 0-0.003 0-0.005 0h0c-0.479 0-0.946-0.047-1.4-0.134 0.948 2.96 3.697 5.114 6.957 5.174-2.549 1.998-5.76 3.189-9.249 3.189-0.004 0-0.008 0-0.013 0-0.621 0-1.234-0.038-1.836-0.11l0.072 0.007c3.296 2.113 7.209 3.346 11.415 3.346z"></path>
</svg>
