<!-- Generated by IcoMoon.io -->
<svg version="1.1" xmlns="http://www.w3.org/2000/svg" width="32" height="32" viewBox="0 0 32 32">
<title>tw</title>
<path fill="#1ca1f1" d="M7.22 0.13h17.53c3.982 0.012 7.208 3.237 7.22 7.218v17.385c-0.013 3.981-3.238 7.205-7.218 7.217h-17.531c-3.982-0.012-7.206-3.236-7.22-7.216v-17.385c0.012-3.982 3.237-7.208 7.218-7.22h0.001z"></path>
<path fill="#fff" d="M26.68 9.407c-0.734 0.335-1.584 0.578-2.477 0.685l-0.041 0.004c0.906-0.55 1.587-1.391 1.921-2.391l0.009-0.031c-0.802 0.484-1.735 0.853-2.729 1.057l-0.057 0.010c-0.803-0.854-1.939-1.385-3.2-1.385-2.422 0-4.385 1.961-4.389 4.382v0c0 0.354 0.041 0.699 0.118 1.030l-0.006-0.031c-3.655-0.189-6.869-1.927-9.023-4.564l-0.018-0.022c-0.374 0.632-0.596 1.393-0.596 2.205 0 0 0 0.001 0 0.001v-0c0.001 1.513 0.769 2.846 1.936 3.632l0.016 0.010c-0.733-0.026-1.414-0.226-2.010-0.56l0.022 0.011v0.057c0 0.004-0 0.009-0 0.014 0 2.116 1.498 3.882 3.492 4.295l0.028 0.005c-0.347 0.098-0.745 0.155-1.157 0.156h-0.001c-0.294-0.002-0.579-0.031-0.856-0.085l0.029 0.005c0.579 1.756 2.187 3.008 4.093 3.046l0.005 0c-1.487 1.174-3.389 1.883-5.456 1.883-0.369 0-0.733-0.023-1.090-0.067l0.043 0.004c1.897 1.237 4.218 1.972 6.712 1.972 0.006 0 0.011 0 0.017 0h-0.001c8.065 0 12.488-6.686 12.488-12.488 0-0.193 0-0.38-0.013-0.57 0.863-0.625 1.589-1.376 2.168-2.235l0.020-0.031z"></path>
</svg>
