<!-- Generated by IcoMoon.io -->
<svg version="1.1" xmlns="http://www.w3.org/2000/svg" width="32" height="32" viewBox="0 0 32 32">
<title>visa</title>
<path fill="#2566af" d="M14.209 20.223h-2.197l1.373-8.441h2.198zM10.163 11.783l-2.095 5.805-0.248-1.25 0 0-0.739-3.796s-0.089-0.76-1.042-0.76h-3.463l-0.041 0.143s1.059 0.22 2.299 0.965l1.909 7.333h2.29l3.496-8.441h-2.365zM27.448 20.223h2.018l-1.759-8.441h-1.767c-0.816 0-1.014 0.629-1.014 0.629l-3.277 7.812h2.291l0.458-1.254h2.794l0.257 1.254zM25.030 17.238l1.155-3.159 0.65 3.159h-1.804zM21.82 13.812l0.314-1.813s-0.968-0.368-1.976-0.368c-1.090 0-3.68 0.477-3.68 2.794 0 2.181 3.039 2.208 3.039 3.353s-2.726 0.94-3.626 0.218l-0.327 1.895s0.981 0.477 2.48 0.477c1.5 0 3.762-0.776 3.762-2.89 0-2.195-3.067-2.399-3.067-3.353s2.14-0.832 3.081-0.314z"></path>
<path fill="#e6a540" d="M7.821 16.338l-0.739-3.796s-0.089-0.76-1.042-0.76h-3.463l-0.041 0.143s1.665 0.345 3.261 1.638c1.527 1.235 2.025 2.775 2.025 2.775z"></path>
</svg>
