<!-- Generated by IcoMoon.io -->
<svg version="1.1" xmlns="http://www.w3.org/2000/svg" width="32" height="32" viewBox="0 0 32 32">
<title>write</title>
<path fill="#f98aab" d="M4.314 12.105h4.846c0.33-0.019 0.591-0.292 0.591-0.625s-0.261-0.606-0.589-0.625l-0.002-0h-4.846c-0.33 0.019-0.591 0.292-0.591 0.625s0.261 0.606 0.589 0.625l0.002 0zM4.314 16.437h4.846c0.33-0.019 0.591-0.292 0.591-0.625s-0.261-0.606-0.589-0.625l-0.002-0h-4.846c-0.33 0.019-0.591 0.292-0.591 0.625s0.261 0.606 0.589 0.625l0.002 0zM10.322 26.917c-0.098-0.229-0.321-0.386-0.581-0.386-0.085 0-0.166 0.017-0.24 0.047l0.004-0.002c-0.229 0.098-0.387 0.321-0.387 0.581 0 0.086 0.017 0.168 0.049 0.243l-0.002-0.004c0.132 0.312 0.502 0.466 0.818 0.336 0.228-0.098 0.384-0.321 0.384-0.58 0-0.085-0.017-0.166-0.047-0.24l0.002 0.004z"></path>
<path fill="#f98aab" d="M31.843 17.241l-7.435-7.983 2.277-2.273c0.396-0.39 0.614-0.912 0.614-1.469 0-0.548-0.212-1.064-0.6-1.455-0.377-0.376-0.898-0.609-1.473-0.609-0.564 0-1.076 0.224-1.451 0.588l-0.005 0.005-3.121 3.113h-1.168v-2.401c-0.001-0.344-0.28-0.623-0.624-0.624h-3.313v-0.51c-0.019-0.33-0.292-0.591-0.625-0.591s-0.606 0.261-0.625 0.589l-0 0.002v0.51h-2.285v-0.51c-0.019-0.33-0.292-0.591-0.625-0.591s-0.606 0.261-0.625 0.589l-0 0.002v0.51h-2.283v-0.51c-0.019-0.33-0.292-0.591-0.625-0.591s-0.606 0.261-0.625 0.589l-0 0.002v0.51h-2.285v-0.51c-0.019-0.33-0.292-0.591-0.625-0.591s-0.606 0.261-0.625 0.589l-0 0.002v0.51h-3.063c0 0 0 0 0 0-0.345 0-0.625 0.279-0.626 0.624v22.396c0 0.346 0.28 0.626 0.626 0.626h6.382c0.33-0.019 0.591-0.292 0.591-0.625s-0.261-0.606-0.589-0.625l-0.002-0h-5.76v-21.148h2.441v0.568c0.027 0.324 0.296 0.576 0.624 0.576s0.598-0.253 0.624-0.574l0-0.002v-0.566h2.285v0.566c0.019 0.33 0.292 0.591 0.625 0.591s0.606-0.261 0.625-0.589l0-0.002v-0.566h2.283v0.566c0.019 0.33 0.292 0.591 0.625 0.591s0.606-0.261 0.625-0.589l0-0.002v-0.566h2.285v0.566c0.019 0.33 0.292 0.591 0.625 0.591s0.606-0.261 0.625-0.589l0-0.002v-0.566h2.685v1.781c-1.172 0.052-2.219 0.543-2.991 1.311l-4.601 4.601c-0.111 0.114-0.18 0.269-0.18 0.441 0 0.218 0.111 0.411 0.28 0.524l0.002 0.001c0.652 0.428 1.451 0.682 2.31 0.682 0.004 0 0.008 0 0.011 0h0.001l-0.716 0.716c-0.050 0.050-0.092 0.109-0.122 0.174l-0.002 0.004-2.005 3.013c-0.146 0.214-0.233 0.478-0.233 0.763 0 0.041 0.002 0.082 0.005 0.123l-0-0.005h-5.67c-0.33 0.019-0.591 0.292-0.591 0.625s0.261 0.606 0.589 0.625l0.002 0h7.043c0.286-0.003 0.55-0.093 0.769-0.243l-0.005 0.003 3.049-2.073c0.038-0.025 0.070-0.051 0.1-0.080l-0 0 1.414-1.413 1.543 1.541v8.031h-5.722c-0.33 0.019-0.591 0.292-0.591 0.625s0.261 0.606 0.589 0.625l0.002 0h6.348c0.344 0 0.624-0.28 0.624-0.626v-7.435c0.79 0.656 1.777 1.014 2.817 1.014h2.495c0.52 0 1.020 0.214 1.377 0.586l4.762 5.062c0.38 0.402 1.082 0.126 1.082-0.428v-8.287c0 0 0-0 0-0 0-0.165-0.064-0.315-0.168-0.426l0 0zM16.122 9.358c0.587-0.585 1.396-0.947 2.291-0.948h0.981l-3.895 3.887c-0.36 0.346-0.702 0.684-1.164 0.9-0.68 0.314-1.473 0.364-2.189 0.14l3.977-3.977zM24.647 4.937c0.149-0.145 0.353-0.234 0.578-0.234 0.229 0 0.436 0.093 0.586 0.242l-0-0c0.147 0.147 0.239 0.35 0.239 0.574 0 0.228-0.094 0.435-0.246 0.582l-0 0-6.536 6.516-0.316-0.314c-0.288-0.287-0.649-0.503-1.051-0.618l-0.017-0.004 6.766-6.746zM11.42 19.49c-0.054 0.036-0.104 0.032-0.15-0.014-0.070-0.068-0.034-0.12-0.016-0.15l1.635-2.455 0.964 0.964-2.433 1.655zM14.831 17.043l-1.16-1.16 1.192-1.188c0.112 0.406 0.334 0.778 0.632 1.076l0.306 0.304-0.97 0.968zM30.761 24.376l-3.685-3.917c-0.577-0.601-1.387-0.975-2.285-0.976h-2.495c-0.844 0-1.641-0.328-2.237-0.924l-3.681-3.673c-0.53-0.4-0.412-1.282 0-1.701 0.219-0.211 0.518-0.34 0.846-0.34s0.627 0.13 0.847 0.341l2.991 2.993c0.24 0.24 0.642 0.24 0.884 0 0.113-0.113 0.183-0.27 0.183-0.442s-0.070-0.329-0.183-0.442v0l-1.793-1.793 3.369-3.361 7.239 7.773v6.464z"></path>
</svg>
