<!-- Generated by IcoMoon.io -->
<svg version="1.1" xmlns="http://www.w3.org/2000/svg" width="39" height="32" viewBox="0 0 39 32">
<title>write</title>
<path fill="#f98aab" d="M5.308 11.206h5.961c0.425 0 0.769-0.344 0.769-0.769s-0.344-0.769-0.769-0.769h-5.961c-0.425 0-0.769 0.344-0.769 0.769s0.344 0.769 0.769 0.769z"></path>
<path fill="#f98aab" d="M5.308 16.534h5.961c0.425 0 0.769-0.344 0.769-0.769s-0.344-0.769-0.769-0.769h-5.961c-0.425 0-0.769 0.344-0.769 0.769s0.344 0.769 0.769 0.769z"></path>
<path fill="#f98aab" d="M12.698 29.428c-0.161-0.387-0.616-0.577-1.005-0.416-0.387 0.16-0.576 0.618-0.415 1.005s0.616 0.576 1.004 0.416c0.387-0.16 0.577-0.618 0.416-1.005z"></path>
<path fill="#f98aab" d="M39.178 17.523l-9.15-9.822 2.801-2.795c0.487-0.481 0.755-1.123 0.755-1.808 0-0.675-0.261-1.31-0.736-1.789-0.981-0.991-2.596-1.004-3.599-0.028-0.002 0.002-0.005 0.005-0.007 0.007l-3.841 3.832h-1.435v-2.954c0-0.425-0.344-0.769-0.769-0.769h-4.073v-0.628c0-0.425-0.344-0.769-0.769-0.769s-0.769 0.344-0.769 0.769v0.628h-2.81v-0.628c0-0.425-0.344-0.769-0.769-0.769s-0.769 0.344-0.769 0.769v0.628h-2.81v-0.628c0-0.425-0.344-0.769-0.769-0.769s-0.769 0.344-0.769 0.769v0.628h-2.81v-0.628c0-0.425-0.344-0.769-0.769-0.769s-0.769 0.344-0.769 0.769v0.628h-3.77c-0.425 0-0.769 0.344-0.769 0.769v27.554c0 0.425 0.344 0.769 0.769 0.769h7.852c0.425 0 0.769-0.345 0.769-0.769s-0.344-0.769-0.769-0.769h-7.082v-26.016h3.001v0.698c0 0.425 0.344 0.769 0.769 0.769s0.769-0.344 0.769-0.769v-0.698h2.81v0.698c0 0.425 0.344 0.769 0.769 0.769s0.769-0.344 0.769-0.769v-0.698h2.81v0.698c0 0.425 0.344 0.769 0.769 0.769s0.769-0.344 0.769-0.769v-0.698h2.81v0.698c0 0.425 0.344 0.769 0.769 0.769s0.769-0.344 0.769-0.769v-0.698h3.304v2.189c-1.382 0.056-2.701 0.64-3.681 1.614l-5.661 5.661c-0.342 0.342-0.279 0.928 0.126 1.19 0.637 0.412 1.352 0.679 2.098 0.786 0.249 0.036 0.501 0.054 0.756 0.054 0.001 0 0.002-0 0.004-0l-0.883 0.881c-0.064 0.064-0.115 0.138-0.153 0.219l-2.468 3.706c-0.222 0.334-0.313 0.715-0.28 1.085h-6.978c-0.425 0-0.769 0.344-0.769 0.769s0.344 0.769 0.769 0.769h8.663c0.333 0 0.669-0.111 0.943-0.297l3.751-2.549c0.044-0.029 0.087-0.063 0.125-0.101l1.74-1.736 1.898 1.894v9.88h-7.039c-0.425 0-0.769 0.344-0.769 0.769s0.344 0.769 0.769 0.769h7.808c0.425 0 0.769-0.345 0.769-0.769v-9.148c0.973 0.808 2.185 1.248 3.465 1.248h3.069c0.638 0 1.257 0.265 1.694 0.722l5.861 6.228c0.466 0.495 1.329 0.154 1.329-0.527v-10.196c0-0.195-0.074-0.382-0.206-0.524zM19.835 7.827c0.745-0.745 1.765-1.168 2.819-1.168h1.205l-4.793 4.781c-0.443 0.426-0.863 0.843-1.431 1.106-0.838 0.388-1.812 0.45-2.693 0.172l4.892-4.892zM30.324 2.383c0.401-0.387 1.042-0.383 1.432 0.010 0.187 0.189 0.29 0.44 0.29 0.706 0 0.27-0.106 0.524-0.3 0.716l-8.039 8.020-0.387-0.387c-0.363-0.363-0.821-0.629-1.315-0.766l8.32-8.3zM14.050 20.29c-0.066 0.045-0.127 0.040-0.184-0.017-0.085-0.084-0.042-0.149-0.019-0.184l2.010-3.019 1.187 1.186-2.995 2.035zM18.248 17.281l-1.427-1.427 1.466-1.462c0.138 0.501 0.413 0.958 0.779 1.325l0.375 0.375-1.193 1.19zM37.846 26.304l-4.535-4.82c-0.73-0.764-1.754-1.202-2.811-1.202h-3.069c-1.039 0-2.017-0.404-2.752-1.137l-4.53-4.52c-0.654-0.49-0.508-1.578 0-2.094 0.571-0.556 1.522-0.554 2.081 0.004l3.68 3.68c0.296 0.296 0.792 0.296 1.088 0 0.3-0.3 0.3-0.787 0-1.088l-2.205-2.205 4.145-4.135 8.907 9.561v7.953z"></path>
</svg>
