<!-- Generated by IcoMoon.io -->
<svg version="1.1" xmlns="http://www.w3.org/2000/svg" width="32" height="32" viewBox="0 0 32 32">
<title>four</title>
<path fill="#ededed" d="M16 0c-8.836 0-16 7.163-16 16s7.164 16 16 16 16-7.164 16-16c0-8.836-7.164-16-16-16z"></path>
<path fill="#d5d5d5" d="M25.139 8.644l0.457 0.457-12.063 10.736-1.371-1.371 12.977-9.823z"></path>
<path fill="#bebebe" d="M19.52 24.64v1.92h-1.92v-1.92h-0.64v1.92h-1.92v-1.92h-0.64v1.92h-1.92v-1.92h-0.64v2.56h8.32v-2.56h-0.64z"></path>
<path fill="#efc75e" d="M15.050 2.59c-4.865 0.334-9.053 3.312-11.117 7.499l1.736 0.85c1.845-3.727 5.654-6.34 10.027-6.453 0.102-0.003 0.204 0 0.305 0v-1.924c-0.315 0-0.631 0.007-0.95 0.029z"></path>
<path fill="#e2574c" d="M27.515 15.996c0 1.751-0.46 3.479-1.18 4.995-0.22 0.465-0.055 1.018 0.395 1.272l0.017 0.010c0.5 0.282 1.132 0.075 1.378-0.442 0.827-1.708 1.311-3.715 1.314-5.834v-0.001c0-0.004 0-0.009 0-0.014 0-2.277-0.569-4.421-1.573-6.298l0.035 0.072-1.704 0.894c0.83 1.547 1.318 3.384 1.318 5.335 0 0.004 0 0.008 0 0.012v-0.001z"></path>
<path fill="#3db39e" d="M5.25 22.276l0.017-0.009c0.296-0.162 0.493-0.471 0.493-0.827 0-0.152-0.036-0.296-0.1-0.423l0.002 0.005c-0.78-1.607-1.244-3.558-1.171-5.473 0.072-1.802 0.552-3.476 1.351-4.954l-0.030 0.060-1.714-0.899c-0.803 1.486-1.338 3.23-1.492 5.081l-0.003 0.048c-0.198 2.454 0.276 4.918 1.269 6.958 0.245 0.505 0.877 0.708 1.378 0.432z"></path>
<path fill="#f4b459" d="M16 2.561v1.924c4.536 0 8.46 2.619 10.336 6.43l1.725-0.849c-2.191-4.448-6.768-7.505-12.062-7.506z"></path>
<path fill="#324d5b" d="M24.499 7.044l0.457 0.457-11.423 12.336-1.371-1.371 12.337-11.423z"></path>
<path fill="#1e2d36" d="M16 14.4c-0.884 0-1.6 0.716-1.6 1.6s0.716 1.6 1.6 1.6 1.6-0.716 1.6-1.6-0.716-1.6-1.6-1.6z"></path>
</svg>
