<!-- Generated by IcoMoon.io -->
<svg version="1.1" xmlns="http://www.w3.org/2000/svg" width="131" height="32" viewBox="0 0 131 32">
<title>gs</title>
<path fill="#000" d="M0.544 1.293c-0.345 0.371-0.544 0.943-0.544 1.685v26.413c0 0.743 0.199 1.314 0.557 1.672l0.094 0.079 14.8-14.8v-0.333l-14.813-14.797-0.094 0.079z"></path>
<path fill="#000" d="M20.374 21.296l-4.937-4.938v-0.345l4.938-4.938 0.107 0.066 5.841 3.319c1.672 0.943 1.672 2.496 0 3.451l-5.841 3.319c-0.002 0-0.108 0.066-0.108 0.066z"></path>
<path fill="#000" d="M20.481 21.23l-5.043-5.045-14.894 14.894c0.544 0.584 1.459 0.651 2.483 0.079z"></path>
<path fill="#000" d="M20.481 11.142l-17.454-9.915c-1.022-0.584-1.939-0.505-2.483 0.079l14.892 14.879z"></path>
<path fill="#000" opacity="0.2" d="M20.374 21.123l-17.334 9.849c-0.969 0.557-1.832 0.518-2.389 0.013l-0.094 0.094 0.094 0.079c0.557 0.504 1.421 0.544 2.389-0.013l17.454-9.915-0.119-0.107z"></path>
<path fill="#000" opacity="0.12" d="M26.321 17.738l-5.96 3.385 0.107 0.107 5.841-3.319c0.836-0.478 1.248-1.101 1.248-1.726-0.053 0.571-0.478 1.116-1.235 1.553z"></path>
<path fill="#fff" opacity="0.25" d="M3.027 1.399l23.294 13.234c0.757 0.425 1.182 0.982 1.248 1.553 0-0.623-0.412-1.248-1.248-1.726l-23.294-13.234c-1.672-0.956-3.027-0.16-3.027 1.752v0.173c0-1.911 1.354-2.694 3.027-1.752z"></path>
<path fill="#808285" d="M33.255 15.347c0-4.231 3.556-7.676 7.787-7.676 2.339 0 4.004 0.919 5.259 2.115l-1.479 1.479c-0.898-0.843-2.115-1.496-3.782-1.496-3.090 0-5.505 2.488-5.505 5.577s2.415 5.581 5.503 5.581c2.003 0 3.143-0.804 3.874-1.537 0.599-0.599 0.991-1.459 1.143-2.639h-5.014v-2.092h7.058c0.074 0.375 0.113 0.823 0.113 1.309 0 1.571-0.431 3.519-1.818 4.906-1.35 1.404-3.070 2.154-5.355 2.154-4.233 0-7.789-3.442-7.789-7.676zM53.918 13.139c-2.733 0-4.964 2.079-4.964 4.941 0 2.848 2.229 4.941 4.964 4.941s4.961-2.097 4.961-4.943c0-2.862-2.228-4.941-4.961-4.94zM53.918 21.078c-1.496 0-2.79-1.235-2.79-2.996 0-1.779 1.291-2.996 2.79-2.996 1.496 0 2.788 1.216 2.788 2.996 0 1.76-1.29 2.996-2.788 2.996zM64.742 13.139c-2.733 0-4.961 2.079-4.961 4.941 0 2.848 2.228 4.941 4.961 4.941s4.961-2.097 4.961-4.943c0-2.862-2.226-4.941-4.961-4.94zM64.742 21.078c-1.496 0-2.79-1.235-2.79-2.996 0-1.779 1.291-2.996 2.79-2.996 1.496 0 2.79 1.216 2.79 2.996 0 1.76-1.293 2.996-2.79 2.996zM78.026 13.439v0.804h-0.074c-0.486-0.583-1.422-1.106-2.601-1.106-2.472 0-4.74 2.173-4.74 4.964 0 2.769 2.266 4.924 4.74 4.924 1.178 0 2.115-0.523 2.601-1.122h0.074v0.71c0 1.89-1.011 2.903-2.639 2.903-1.33 0-2.153-0.956-2.491-1.758l-1.892 0.786c0.542 1.309 1.986 2.92 4.381 2.92 2.544 0 4.698-1.5 4.698-5.15v-8.877zM75.537 21.078c-1.496 0-2.754-1.256-2.754-2.977 0-1.74 1.256-3.014 2.754-3.014 1.479 0 2.639 1.272 2.639 3.014 0.002 1.721-1.159 2.977-2.639 2.977zM81.582 8.196h2.173v14.529h-2.173zM89.71 21.078c-1.104 0-1.892-0.507-2.394-1.496l6.609-2.736-0.228-0.562c-0.41-1.103-1.666-3.145-4.231-3.145-2.546 0-4.662 2.003-4.662 4.943 0 2.769 2.097 4.941 4.906 4.941 2.266 0 3.577-1.383 4.12-2.191l-1.685-1.122c-0.563 0.825-1.332 1.369-2.434 1.367zM89.541 15.048c0.86 0 1.59 0.431 1.834 1.048l-4.42 1.835c-0.055-1.91 1.48-2.883 2.586-2.883zM103.46 8.196h-5.195v14.529h2.168v-5.503h3.028c2.404 0 4.767-1.74 4.767-4.514 0-2.769-2.362-4.51-4.764-4.51zM103.516 15.198h-3.083v-4.982h3.083c1.621 0 2.544 1.345 2.544 2.491 0 1.127-0.923 2.491-2.544 2.491zM111.591 22.724v-14.529h-2.168v14.529zM121.33 22.699v-5.569c0-2.58-1.927-4.018-4.415-4.018-1.567 0-3.193 0.693-3.866 2.225l1.924 0.802c0.412-0.802 1.177-1.065 1.982-1.065 1.12 0 2.26 0.673 2.278 1.871v0.15c-0.392-0.224-1.232-0.562-2.262-0.562-2.074 0-4.186 1.14-4.186 3.271 0 1.945 1.701 3.196 3.608 3.196 1.459 0 2.262-0.654 2.765-1.419h0.074v1.122h2.095zM116.657 21.075c-0.71 0-1.701-0.355-1.701-1.232 0-1.122 1.235-1.555 2.3-1.555 0.954 0 1.401 0.205 1.982 0.486-0.166 1.304-1.269 2.284-2.581 2.3zM128.954 13.429l-2.486 6.297h-0.074l-2.58-6.297h-2.336l3.868 8.804-2.207 4.896h2.262l5.962-13.701z"></path>
</svg>
