<!-- Generated by IcoMoon.io -->
<svg version="1.1" xmlns="http://www.w3.org/2000/svg" width="32" height="32" viewBox="0 0 32 32">
<title>one</title>
<path fill="#4681a0" d="M16 0c8.836 0 16 7.164 16 16s-7.164 16-16 16-16-7.164-16-16c0-8.836 7.164-16 16-16z"></path>
<path fill="#3f7490" d="M16 32c4.256 0 8.12-1.664 10.986-4.374 2.71-2.866 4.374-6.73 4.374-10.986 0-0.007 0-0.016 0-0.024 0-3.612-1.202-6.944-3.229-9.616l0.029 0.040h-20.8c-0.884 0-1.6 0.716-1.6 1.6v0 19.652c2.775 2.314 6.344 3.708 10.24 3.708z"></path>
<path fill="#fff" d="M8 6.4c-0.884 0-1.6 0.716-1.6 1.6v0 20.8c2.633 1.997 5.964 3.2 9.576 3.2 0.008 0 0.017 0 0.025-0h-0.001c8.836 0 16-7.164 16-16 0-0.007 0-0.016 0-0.024 0-3.612-1.202-6.944-3.229-9.616l0.029 0.040h-20.8z"></path>
<path fill="#f3f3f3" d="M32 16c0-1.21-0.139-2.387-0.393-3.52h-25.207v16.32c2.633 1.997 5.964 3.2 9.576 3.2 0.008 0 0.017 0 0.025-0h-0.001c8.836 0 16-7.164 16-16z"></path>
<path fill="#e2574c" d="M9.44 8.32c0.619 0 1.12 0.501 1.12 1.12s-0.501 1.12-1.12 1.12v0c-0.619 0-1.12-0.501-1.12-1.12s0.501-1.12 1.12-1.12v0z"></path>
<path fill="#efc75e" d="M12.64 8.32c0.619 0 1.12 0.501 1.12 1.12s-0.501 1.12-1.12 1.12v0c-0.619 0-1.12-0.501-1.12-1.12s0.501-1.12 1.12-1.12v0z"></path>
<path fill="#3db39e" d="M15.84 8.32c0.619 0 1.12 0.501 1.12 1.12s-0.501 1.12-1.12 1.12v0c-0.619 0-1.12-0.501-1.12-1.12s0.501-1.12 1.12-1.12v0z"></path>
<path fill="#e4e7e7" d="M30.038 8.32h-10.838c-0.353 0-0.64 0.287-0.64 0.64v0 0.96c0 0.353 0.287 0.64 0.64 0.64v0h11.85c-0.319-0.877-0.66-1.615-1.053-2.321l0.041 0.081z"></path>
<path fill="#dadada" d="M9.6 26.88h4.16c0.177 0 0.32-0.143 0.32-0.32s-0.143-0.32-0.32-0.32v0h-4.16c-0.177 0-0.32 0.143-0.32 0.32s0.143 0.32 0.32 0.32v0zM24.64 27.2c-0.177 0-0.32 0.143-0.32 0.32v0 0.32c0 0.177 0.143 0.32 0.32 0.32v0h1.753c0.37-0.317 0.706-0.631 1.028-0.958l0.002-0.002h-2.782zM9.6 28.16h5.12c0.177 0 0.32-0.143 0.32-0.32s-0.143-0.32-0.32-0.32v0h-5.12c-0.177 0-0.32 0.143-0.32 0.32s0.143 0.32 0.32 0.32v0zM8.96 15.68v4.16c0 0.353 0.287 0.64 0.64 0.64v0h21.76c0.406-1.342 0.64-2.883 0.64-4.48v-0c-0.001-0.34-0.012-0.675-0.034-1.008l0.002 0.048h-22.369c-0.353 0-0.64 0.287-0.64 0.64v0z"></path>
<path fill="#dadada" d="M28.16 24.48c0 0.795-0.645 1.44-1.44 1.44s-1.44-0.645-1.44-1.44c0-0.795 0.645-1.44 1.44-1.44s1.44 0.645 1.44 1.44z"></path>
<path fill="#dadada" d="M17.92 27.52v0.32c0 0.177 0.143 0.32 0.32 0.32v0h4.16c0.177 0 0.32-0.143 0.32-0.32v0-0.32c0-0.177-0.143-0.32-0.32-0.32v0h-4.16c-0.177 0-0.32 0.143-0.32 0.32v0zM15.68 24.96h-6.080c-0.177 0-0.32 0.143-0.32 0.32s0.143 0.32 0.32 0.32v0h6.080c0.177 0 0.32-0.143 0.32-0.32s-0.143-0.32-0.32-0.32v0z"></path>
<path fill="#dadada" d="M21.76 24.48c0 0.795-0.645 1.44-1.44 1.44s-1.44-0.645-1.44-1.44c0-0.795 0.645-1.44 1.44-1.44s1.44 0.645 1.44 1.44z"></path>
<path fill="#dadada" d="M9.6 24.32h6.080c0.177 0 0.32-0.143 0.32-0.32v0-0.64c0-0.177-0.143-0.32-0.32-0.32v0h-6.080c-0.177 0-0.32 0.143-0.32 0.32v0 0.64c0 0.177 0.143 0.32 0.32 0.32v0z"></path>
</svg>
