<svg aria-hidden="true" style="position: absolute; width: 0; height: 0; overflow: hidden;" version="1.1" xmlns="http://www.w3.org/2000/svg" xmlns:xlink="http://www.w3.org/1999/xlink">
<defs>
<symbol id="one" viewBox="0 0 32 32">
<path fill="#4681a0" style="fill: var(--color1, #4681a0)" d="M16 0c8.836 0 16 7.164 16 16s-7.164 16-16 16-16-7.164-16-16c0-8.836 7.164-16 16-16z"></path>
<path fill="#3f7490" style="fill: var(--color2, #3f7490)" d="M16 32c4.256 0 8.12-1.664 10.986-4.374 2.71-2.866 4.374-6.73 4.374-10.986 0-0.007 0-0.016 0-0.024 0-3.612-1.202-6.944-3.229-9.616l0.029 0.040h-20.8c-0.884 0-1.6 0.716-1.6 1.6v0 19.652c2.775 2.314 6.344 3.708 10.24 3.708z"></path>
<path fill="#fff" style="fill: var(--color3, #fff)" d="M8 6.4c-0.884 0-1.6 0.716-1.6 1.6v0 20.8c2.633 1.997 5.964 3.2 9.576 3.2 0.008 0 0.017 0 0.025-0h-0.001c8.836 0 16-7.164 16-16 0-0.007 0-0.016 0-0.024 0-3.612-1.202-6.944-3.229-9.616l0.029 0.040h-20.8z"></path>
<path fill="#f3f3f3" style="fill: var(--color4, #f3f3f3)" d="M32 16c0-1.21-0.139-2.387-0.393-3.52h-25.207v16.32c2.633 1.997 5.964 3.2 9.576 3.2 0.008 0 0.017 0 0.025-0h-0.001c8.836 0 16-7.164 16-16z"></path>
<path fill="#e2574c" style="fill: var(--color5, #e2574c)" d="M9.44 8.32c0.619 0 1.12 0.501 1.12 1.12s-0.501 1.12-1.12 1.12v0c-0.619 0-1.12-0.501-1.12-1.12s0.501-1.12 1.12-1.12v0z"></path>
<path fill="#efc75e" style="fill: var(--color6, #efc75e)" d="M12.64 8.32c0.619 0 1.12 0.501 1.12 1.12s-0.501 1.12-1.12 1.12v0c-0.619 0-1.12-0.501-1.12-1.12s0.501-1.12 1.12-1.12v0z"></path>
<path fill="#3db39e" style="fill: var(--color7, #3db39e)" d="M15.84 8.32c0.619 0 1.12 0.501 1.12 1.12s-0.501 1.12-1.12 1.12v0c-0.619 0-1.12-0.501-1.12-1.12s0.501-1.12 1.12-1.12v0z"></path>
<path fill="#e4e7e7" style="fill: var(--color8, #e4e7e7)" d="M30.038 8.32h-10.838c-0.353 0-0.64 0.287-0.64 0.64v0 0.96c0 0.353 0.287 0.64 0.64 0.64v0h11.85c-0.319-0.877-0.66-1.615-1.053-2.321l0.041 0.081z"></path>
<path fill="#dadada" style="fill: var(--color9, #dadada)" d="M9.6 26.88h4.16c0.177 0 0.32-0.143 0.32-0.32s-0.143-0.32-0.32-0.32v0h-4.16c-0.177 0-0.32 0.143-0.32 0.32s0.143 0.32 0.32 0.32v0zM24.64 27.2c-0.177 0-0.32 0.143-0.32 0.32v0 0.32c0 0.177 0.143 0.32 0.32 0.32v0h1.753c0.37-0.317 0.706-0.631 1.028-0.958l0.002-0.002h-2.782zM9.6 28.16h5.12c0.177 0 0.32-0.143 0.32-0.32s-0.143-0.32-0.32-0.32v0h-5.12c-0.177 0-0.32 0.143-0.32 0.32s0.143 0.32 0.32 0.32v0zM8.96 15.68v4.16c0 0.353 0.287 0.64 0.64 0.64v0h21.76c0.406-1.342 0.64-2.883 0.64-4.48v-0c-0.001-0.34-0.012-0.675-0.034-1.008l0.002 0.048h-22.369c-0.353 0-0.64 0.287-0.64 0.64v0z"></path>
<path fill="#dadada" style="fill: var(--color9, #dadada)" d="M28.16 24.48c0 0.795-0.645 1.44-1.44 1.44s-1.44-0.645-1.44-1.44c0-0.795 0.645-1.44 1.44-1.44s1.44 0.645 1.44 1.44z"></path>
<path fill="#dadada" style="fill: var(--color9, #dadada)" d="M17.92 27.52v0.32c0 0.177 0.143 0.32 0.32 0.32v0h4.16c0.177 0 0.32-0.143 0.32-0.32v0-0.32c0-0.177-0.143-0.32-0.32-0.32v0h-4.16c-0.177 0-0.32 0.143-0.32 0.32v0zM15.68 24.96h-6.080c-0.177 0-0.32 0.143-0.32 0.32s0.143 0.32 0.32 0.32v0h6.080c0.177 0 0.32-0.143 0.32-0.32s-0.143-0.32-0.32-0.32v0z"></path>
<path fill="#dadada" style="fill: var(--color9, #dadada)" d="M21.76 24.48c0 0.795-0.645 1.44-1.44 1.44s-1.44-0.645-1.44-1.44c0-0.795 0.645-1.44 1.44-1.44s1.44 0.645 1.44 1.44z"></path>
<path fill="#dadada" style="fill: var(--color9, #dadada)" d="M9.6 24.32h6.080c0.177 0 0.32-0.143 0.32-0.32v0-0.64c0-0.177-0.143-0.32-0.32-0.32v0h-6.080c-0.177 0-0.32 0.143-0.32 0.32v0 0.64c0 0.177 0.143 0.32 0.32 0.32v0z"></path>
</symbol>
<symbol id="two" viewBox="0 0 32 32">
<path fill="#324d5b" style="fill: var(--color10, #324d5b)" d="M32 16c0 8.837-7.163 16-16 16s-16-7.163-16-16c0-8.837 7.163-16 16-16s16 7.163 16 16z"></path>
<path fill="#efc75e" style="fill: var(--color6, #efc75e)" d="M23.524 13.729c-1.739-3.558-5.293-4.765-7.519-4.765s-5.789 1.207-7.528 4.765c-1.739 3.558-0.339 6.857 1.358 9.056s1.876 3.17 1.982 3.709c0.106 0.539-0.234 1.38 0.414 1.962s3.773 0.669 3.773 0.669 3.115-0.086 3.763-0.669c0.648-0.582 0.303-1.423 0.41-1.962s0.283-1.51 1.98-3.709 3.105-5.498 1.367-9.056z"></path>
<path fill="#ddb857" style="fill: var(--color11, #ddb857)" d="M18.814 16.348c-0.084-0.017-0.181-0.028-0.281-0.029h-0.001l-0.029 0.003-0.263 0.027c-0.736 0.14-1.293 0.794-1.293 1.584v0.949h-2.537v-0.949c0-0.789-0.556-1.443-1.291-1.584l-0.294-0.030c-0.098 0-0.191 0.012-0.284 0.029-0.76 0.124-1.342 0.779-1.342 1.574 0 0.884 0.716 1.6 1.6 1.6v0h0.96v9.597h0.64v-9.597h2.56v9.597h0.64v-9.597h0.96c0.884 0 1.6-0.716 1.6-1.6v0c0-0.796-0.584-1.452-1.346-1.574zM11.84 17.922c0.001-0.519 0.415-0.942 0.93-0.957l0.001-0h0.054c0.525 0 0.951 0.723 0.951 1.614l0.003 0.303h-0.98c-0.53 0-0.96-0.43-0.96-0.96zM18.56 18.882h-0.982l0.003-0.303c0-0.891 0.426-1.614 0.951-1.614h0.056c0.523 0.008 0.944 0.434 0.944 0.958 0 0.529-0.429 0.959-0.959 0.959-0.005 0-0.010-0-0.015-0h0.001z"></path>
<path fill="#5a6f7a" style="fill: var(--color12, #5a6f7a)" d="M16 2.56c-0.353 0-0.64 0.287-0.64 0.64v0 2.56c0 0.353 0.287 0.64 0.64 0.64s0.64-0.287 0.64-0.64v0-2.56c0-0.353-0.287-0.64-0.64-0.64v0zM21.688 3.884c-0.324-0.131-0.695 0.020-0.829 0.336l-0.97 2.287c-0.134 0.316 0.020 0.678 0.343 0.808s0.695-0.020 0.829-0.335l0.97-2.287c0.134-0.316-0.020-0.678-0.343-0.809zM11.141 4.22c-0.134-0.316-0.505-0.466-0.829-0.336s-0.477 0.493-0.343 0.809l0.97 2.287c0.134 0.316 0.505 0.466 0.829 0.335s0.477-0.492 0.343-0.808l-0.97-2.287zM26.060 7.21c-0.108-0.108-0.257-0.175-0.422-0.175s-0.314 0.067-0.422 0.175l-1.687 1.687c-0.103 0.107-0.167 0.253-0.167 0.414 0 0.33 0.267 0.597 0.597 0.597 0.161 0 0.307-0.063 0.414-0.167l1.687-1.687c0.108-0.108 0.175-0.257 0.175-0.422s-0.067-0.314-0.175-0.422v0zM6.783 7.21c-0.108-0.108-0.257-0.175-0.422-0.175-0.329 0-0.597 0.267-0.597 0.597 0 0.165 0.067 0.314 0.175 0.422l1.687 1.687c0.107 0.103 0.253 0.167 0.414 0.167 0.33 0 0.597-0.267 0.597-0.597 0-0.161-0.063-0.307-0.167-0.414l-1.687-1.687z"></path>
<path fill="#d7b354" style="fill: var(--color13, #d7b354)" d="M13.192 28.455c-0.648-0.582-0.308-1.423-0.414-1.962s-0.286-1.51-1.982-3.709c-1.697-2.199-3.098-5.498-1.358-9.056 1.619-3.312 4.817-4.586 7.048-4.746-0.165-0.012-0.326-0.019-0.48-0.019-2.227 0-5.789 1.207-7.528 4.765s-0.339 6.857 1.358 9.056c1.696 2.199 1.876 3.17 1.982 3.709s-0.234 1.38 0.414 1.962c0.648 0.582 3.773 0.669 3.773 0.669s0.188-0.005 0.479-0.021c-0.902-0.051-2.803-0.208-3.292-0.647z"></path>
<path fill="#fff" style="fill: var(--color3, #fff)" d="M19.134 16.348c-0.084-0.017-0.181-0.028-0.281-0.029h-0.001l-0.029 0.003-0.263 0.027c-0.736 0.14-1.293 0.794-1.293 1.584v0.949h-2.537v-0.949c0-0.789-0.556-1.443-1.291-1.584l-0.294-0.030c-0.098 0-0.191 0.012-0.284 0.029-0.76 0.124-1.342 0.779-1.342 1.574 0 0.884 0.716 1.6 1.6 1.6v0h0.96v9.597h0.64v-9.597h2.56v9.597h0.64v-9.597h0.96c0.884 0 1.6-0.716 1.6-1.6v0c0-0.796-0.584-1.452-1.346-1.574zM12.16 17.922c0.001-0.519 0.415-0.942 0.93-0.957l0.001-0h0.054c0.525 0 0.951 0.723 0.951 1.614l0.003 0.303h-0.98c-0.53 0-0.96-0.43-0.96-0.96zM18.88 18.882h-0.982l0.003-0.303c0-0.891 0.426-1.614 0.951-1.614h0.056c0.523 0.008 0.944 0.434 0.944 0.958 0 0.529-0.429 0.959-0.959 0.959-0.005 0-0.010-0-0.015-0h0.001z"></path>
<path fill="#efefef" style="fill: var(--color14, #efefef)" d="M19.767 28.135c-0.648 0.583-3.763 0.669-3.763 0.669s-3.124-0.086-3.773-0.669c-0.178-0.158-0.307-0.369-0.363-0.608l-0.002-0.008h-0.027v3.93c1.248 0.349 2.68 0.55 4.16 0.55s2.912-0.201 4.272-0.576l-0.112 0.026v-3.93h-0.030c-0.056 0.247-0.185 0.457-0.362 0.614l-0.001 0.001z"></path>
</symbol>
<symbol id="three" viewBox="0 0 32 32">
<path fill="#ededed" style="fill: var(--color15, #ededed)" d="M16 0c-8.836 0-16 7.164-16 16s7.164 16 16 16c8.836 0 16-7.163 16-16s-7.164-16-16-16z"></path>
<path fill="#d07c40" style="fill: var(--color16, #d07c40)" d="M6.081 9.595h19.847v15.992h-19.827l-0.020-15.992z"></path>
<path fill="#efc75e" style="fill: var(--color6, #efc75e)" d="M26.881 13.445c0 0.008-21.742-0.006-21.763 0v12.134c0 0.001-0.002 0.96-0.006 2.142 2.856 2.654 6.681 4.279 10.887 4.279 4.199 0 8.018-1.62 10.873-4.265-0.010-1.187-0.018-2.151-0.018-2.152 0-5.033 0.026-12.139 0.026-12.139zM24.007 10.883v2.087l1.921-0.374v-3zM8.003 12.807v-1.924l-1.922-1.288v3.195z"></path>
<path fill="#dba250" style="fill: var(--color17, #dba250)" d="M8.003 13.445v-2.562l-2.885 2.562h2.885zM24.007 10.883v2.562h2.874l-2.874-2.562z"></path>
<path fill="#cba950" style="fill: var(--color18, #cba950)" d="M22.74 18.419c0-0.268-0.232-0.508-0.5-0.508s-0.528 0.239-0.528 0.508c-0.001 3.251-2.445 5.886-5.696 5.886s-5.759-2.635-5.76-5.886c0-0.268-0.227-0.508-0.496-0.508s-0.53 0.239-0.53 0.508c0 3.82 2.968 6.915 6.787 6.915s6.723-3.096 6.723-6.915z"></path>
<path fill="#d07c40" style="fill: var(--color16, #d07c40)" d="M9.751 16.956c-0.005-0-0.010-0-0.016-0-0.438 0-0.794 0.355-0.794 0.794s0.355 0.794 0.794 0.794c0.006 0 0.011-0 0.017-0h-0.001c0.438 0 0.804-0.355 0.804-0.793s-0.366-0.794-0.804-0.794zM22.231 16.956c-0.438 0-0.793 0.355-0.793 0.793s0.355 0.793 0.793 0.793v0c0.438 0 0.804-0.355 0.804-0.793s-0.366-0.794-0.804-0.794z"></path>
<path fill="#fff" style="fill: var(--color3, #fff)" d="M22.74 18.099c0-0.268-0.232-0.508-0.5-0.508s-0.528 0.239-0.528 0.508c-0.001 3.251-2.445 5.886-5.696 5.886s-5.759-2.635-5.76-5.886c0-0.268-0.227-0.508-0.496-0.508s-0.53 0.239-0.53 0.508c0 3.82 2.968 6.915 6.787 6.915s6.723-3.096 6.723-6.915z"></path>
</symbol>
<symbol id="four" viewBox="0 0 32 32">
<path fill="#ededed" style="fill: var(--color15, #ededed)" d="M16 0c-8.836 0-16 7.163-16 16s7.164 16 16 16 16-7.164 16-16c0-8.836-7.164-16-16-16z"></path>
<path fill="#d5d5d5" style="fill: var(--color19, #d5d5d5)" d="M25.139 8.644l0.457 0.457-12.063 10.736-1.371-1.371 12.977-9.823z"></path>
<path fill="#bebebe" style="fill: var(--color20, #bebebe)" d="M19.52 24.64v1.92h-1.92v-1.92h-0.64v1.92h-1.92v-1.92h-0.64v1.92h-1.92v-1.92h-0.64v2.56h8.32v-2.56h-0.64z"></path>
<path fill="#efc75e" style="fill: var(--color6, #efc75e)" d="M15.050 2.59c-4.865 0.334-9.053 3.312-11.117 7.499l1.736 0.85c1.845-3.727 5.654-6.34 10.027-6.453 0.102-0.003 0.204 0 0.305 0v-1.924c-0.315 0-0.631 0.007-0.95 0.029z"></path>
<path fill="#e2574c" style="fill: var(--color5, #e2574c)" d="M27.515 15.996c0 1.751-0.46 3.479-1.18 4.995-0.22 0.465-0.055 1.018 0.395 1.272l0.017 0.010c0.5 0.282 1.132 0.075 1.378-0.442 0.827-1.708 1.311-3.715 1.314-5.834v-0.001c0-0.004 0-0.009 0-0.014 0-2.277-0.569-4.421-1.573-6.298l0.035 0.072-1.704 0.894c0.83 1.547 1.318 3.384 1.318 5.335 0 0.004 0 0.008 0 0.012v-0.001z"></path>
<path fill="#3db39e" style="fill: var(--color7, #3db39e)" d="M5.25 22.276l0.017-0.009c0.296-0.162 0.493-0.471 0.493-0.827 0-0.152-0.036-0.296-0.1-0.423l0.002 0.005c-0.78-1.607-1.244-3.558-1.171-5.473 0.072-1.802 0.552-3.476 1.351-4.954l-0.030 0.060-1.714-0.899c-0.803 1.486-1.338 3.23-1.492 5.081l-0.003 0.048c-0.198 2.454 0.276 4.918 1.269 6.958 0.245 0.505 0.877 0.708 1.378 0.432z"></path>
<path fill="#f4b459" style="fill: var(--color21, #f4b459)" d="M16 2.561v1.924c4.536 0 8.46 2.619 10.336 6.43l1.725-0.849c-2.191-4.448-6.768-7.505-12.062-7.506z"></path>
<path fill="#324d5b" style="fill: var(--color10, #324d5b)" d="M24.499 7.044l0.457 0.457-11.423 12.336-1.371-1.371 12.337-11.423z"></path>
<path fill="#1e2d36" style="fill: var(--color22, #1e2d36)" d="M16 14.4c-0.884 0-1.6 0.716-1.6 1.6s0.716 1.6 1.6 1.6 1.6-0.716 1.6-1.6-0.716-1.6-1.6-1.6z"></path>
</symbol>
</defs>
</svg>
