<svg aria-hidden="true" style="position: absolute; width: 0; height: 0; overflow: hidden;" version="1.1" xmlns="http://www.w3.org/2000/svg" xmlns:xlink="http://www.w3.org/1999/xlink">
<defs>
<symbol id="icon-as" viewBox="0 0 108 32">
<path fill="#fff" style="fill: var(--color1, #fff)" d="M107.246 28.221c0 1.693-1.371 3.065-3.068 3.065h-100.394c-1.696 0-3.072-1.371-3.072-3.065v-24.439c0-1.692 1.376-3.069 3.072-3.069h100.394c1.697 0 3.068 1.376 3.068 3.069l0.001 24.439z"></path>
<path fill="#a6a6a6" style="fill: var(--color2, #000)" d="M104.178 31.999h-100.394c-2.086 0-3.784-1.694-3.784-3.778v-24.438c0-2.085 1.698-3.782 3.784-3.782h100.394c2.084 0 3.784 1.696 3.784 3.782v24.438c0.002 2.084-1.699 3.778-3.783 3.778z"></path>
<path fill="#000" style="fill: var(--color3, #000)" d="M107.246 28.221c0 1.693-1.371 3.065-3.068 3.065h-100.394c-1.696 0-3.072-1.371-3.072-3.065v-24.439c0-1.692 1.376-3.069 3.072-3.069h100.394c1.697 0 3.068 1.376 3.068 3.069l0.001 24.439z"></path>
<path fill="#fff" style="fill: var(--color1, #fff)" d="M24.107 15.832c-0.023-2.579 2.112-3.834 2.209-3.892-1.209-1.763-3.083-2.004-3.741-2.023-1.574-0.166-3.101 0.942-3.902 0.942-0.818 0-2.052-0.926-3.383-0.899-1.712 0.026-3.314 1.018-4.193 2.557-1.813 3.139-0.461 7.752 1.276 10.289 0.869 1.243 1.884 2.63 3.213 2.581 1.3-0.053 1.786-0.828 3.355-0.828 1.555 0 2.011 0.828 3.366 0.797 1.396-0.022 2.274-1.248 3.113-2.502 1.004-1.423 1.407-2.827 1.423-2.899-0.032-0.011-2.709-1.034-2.737-4.124zM21.547 8.248c0.699-0.875 1.178-2.064 1.045-3.272-1.012 0.045-2.278 0.7-3.007 1.556-0.645 0.754-1.221 1.989-1.072 3.151 1.137 0.085 2.305-0.574 3.034-1.435z"></path>
<path fill="#000" style="fill: var(--color3, #000)" d="M104.178 0.001h-53.774l21.062 31.997h32.712c2.084 0 3.784-1.694 3.784-3.78v-24.436c0.001-2.085-1.7-3.782-3.784-3.782z"></path>
<path fill="#fff" style="fill: var(--color1, #fff)" d="M42.94 25.209h-1.817l-0.995-3.128h-3.46l-0.948 3.128h-1.769l3.429-10.648h2.117l3.444 10.648zM39.828 20.769l-0.9-2.781c-0.095-0.284-0.274-0.953-0.537-2.006h-0.032c-0.106 0.453-0.274 1.122-0.506 2.006l-0.885 2.781h2.86zM51.74 21.276c0 1.306-0.354 2.338-1.064 3.096-0.635 0.674-1.425 1.011-2.367 1.011-1.017 0-1.748-0.363-2.192-1.089v4.029h-1.706v-8.268c0-0.82-0.022-1.661-0.063-2.524h1.5l0.095 1.217h0.032c0.569-0.917 1.432-1.376 2.591-1.376 0.906 0 1.662 0.358 2.267 1.074 0.604 0.718 0.907 1.66 0.907 2.829zM50.002 21.338c0-0.747-0.168-1.363-0.506-1.849-0.369-0.505-0.864-0.758-1.485-0.758-0.421 0-0.803 0.141-1.145 0.418-0.342 0.28-0.566 0.646-0.671 1.099-0.053 0.211-0.079 0.383-0.079 0.519v1.281c0 0.558 0.171 1.029 0.514 1.415 0.342 0.384 0.787 0.577 1.335 0.577 0.643 0 1.143-0.249 1.5-0.743 0.358-0.495 0.538-1.148 0.538-1.96zM60.572 21.276c0 1.306-0.354 2.338-1.064 3.096-0.636 0.674-1.425 1.011-2.368 1.011-1.017 0-1.748-0.363-2.192-1.089v4.029h-1.706v-8.268c0-0.82-0.022-1.661-0.063-2.524h1.5l0.095 1.217h0.032c0.568-0.917 1.431-1.376 2.591-1.376 0.905 0 1.661 0.358 2.268 1.074 0.603 0.718 0.907 1.66 0.907 2.829zM58.833 21.338c0-0.747-0.169-1.363-0.507-1.849-0.369-0.505-0.863-0.758-1.483-0.758-0.421 0-0.803 0.141-1.147 0.418-0.342 0.28-0.566 0.646-0.671 1.099-0.052 0.211-0.080 0.383-0.080 0.519v1.281c0 0.558 0.172 1.029 0.513 1.415 0.342 0.383 0.787 0.577 1.336 0.577 0.643 0 1.143-0.249 1.5-0.743 0.358-0.495 0.538-1.148 0.538-1.96zM70.445 22.222c0 0.907-0.317 1.643-0.947 2.212-0.693 0.621-1.66 0.932-2.901 0.932-1.146 0-2.064-0.221-2.757-0.663l0.394-1.422c0.748 0.443 1.57 0.664 2.464 0.664 0.643 0 1.143-0.146 1.5-0.434s0.538-0.677 0.538-1.16c0-0.433-0.15-0.795-0.443-1.091-0.295-0.294-0.783-0.569-1.469-0.821-1.864-0.695-2.797-1.712-2.797-3.050 0-0.874 0.33-1.589 0.987-2.148s1.53-0.838 2.615-0.838c0.969 0 1.776 0.169 2.417 0.506l-0.428 1.391c-0.603-0.326-1.284-0.49-2.046-0.49-0.602 0-1.074 0.148-1.411 0.442-0.284 0.263-0.428 0.584-0.428 0.965 0 0.42 0.164 0.769 0.49 1.043 0.283 0.252 0.8 0.526 1.547 0.821 0.917 0.37 1.591 0.8 2.022 1.295 0.434 0.494 0.651 1.111 0.651 1.847zM76.1 18.811h-1.88v3.728c0 0.948 0.331 1.421 0.995 1.421 0.305 0 0.558-0.026 0.758-0.079l0.047 1.295c-0.336 0.126-0.779 0.189-1.327 0.189-0.674 0-1.2-0.206-1.58-0.617-0.378-0.411-0.569-1.1-0.569-2.070v-3.87h-1.12v-1.28h1.12v-1.406l1.675-0.506v1.912h1.88v1.283zM84.567 21.307c0 1.18-0.338 2.149-1.011 2.907-0.705 0.78-1.643 1.169-2.812 1.169-1.128 0-2.025-0.374-2.694-1.12-0.669-0.748-1.003-1.691-1.003-2.828 0-1.19 0.346-2.164 1.035-2.922 0.691-0.759 1.62-1.138 2.789-1.138 1.127 0 2.032 0.374 2.717 1.122 0.655 0.725 0.98 1.661 0.98 2.81zM82.799 21.346c0-0.703-0.152-1.307-0.457-1.812-0.358-0.61-0.87-0.915-1.533-0.915-0.683 0-1.207 0.305-1.564 0.915-0.306 0.505-0.458 1.119-0.458 1.844 0 0.704 0.152 1.309 0.458 1.812 0.369 0.61 0.883 0.915 1.55 0.915 0.652 0 1.163-0.311 1.533-0.93 0.314-0.517 0.471-1.124 0.471-1.829zM90.115 19.031c-0.169-0.031-0.35-0.047-0.538-0.047-0.6 0-1.064 0.226-1.391 0.68-0.283 0.4-0.426 0.906-0.426 1.516v4.029h-1.706v-5.26c0-0.884-0.017-1.691-0.050-2.417h1.486l0.062 1.469h0.047c0.181-0.505 0.464-0.912 0.853-1.217 0.38-0.274 0.79-0.411 1.233-0.411 0.158 0 0.3 0.011 0.426 0.031l0.002 1.628zM97.744 21.007c0 0.306-0.020 0.563-0.062 0.774h-5.118c0.019 0.759 0.267 1.339 0.743 1.74 0.431 0.357 0.989 0.536 1.674 0.536 0.758 0 1.449-0.12 2.071-0.362l0.267 1.183c-0.727 0.317-1.584 0.474-2.574 0.474-1.191 0-2.125-0.351-2.805-1.050-0.679-0.7-1.019-1.641-1.019-2.82 0-1.157 0.316-2.121 0.949-2.89 0.663-0.821 1.558-1.232 2.685-1.232 1.107 0 1.944 0.41 2.513 1.232 0.451 0.651 0.677 1.457 0.677 2.415zM96.118 20.564c0.012-0.506-0.1-0.943-0.331-1.311-0.295-0.475-0.75-0.712-1.359-0.712-0.558 0-1.012 0.231-1.358 0.695-0.284 0.369-0.453 0.812-0.505 1.327l3.553 0.002zM39.005 10.75h-0.894l-0.489-1.537h-1.7l-0.467 1.537h-0.87l1.685-5.234h1.040l1.694 5.234zM37.475 8.568l-0.442-1.367c-0.046-0.14-0.132-0.466-0.264-0.986h-0.016c-0.054 0.225-0.132 0.551-0.249 0.986l-0.434 1.367h1.406zM43.219 6.976l-1.429 3.774h-0.815l-1.383-3.774h0.901l0.645 1.996c0.109 0.334 0.202 0.652 0.271 0.955h0.023c0.062-0.271 0.155-0.59 0.271-0.955l0.637-1.996h0.879zM46.261 10.75l-0.062-0.435h-0.023c-0.256 0.35-0.629 0.52-1.103 0.52-0.675 0-1.157-0.474-1.157-1.111 0-0.931 0.807-1.413 2.205-1.413v-0.070c0-0.497-0.264-0.746-0.784-0.746-0.373 0-0.699 0.094-0.986 0.28l-0.17-0.551c0.35-0.218 0.784-0.326 1.297-0.326 0.986 0 1.483 0.52 1.483 1.561v1.39c0 0.381 0.016 0.676 0.054 0.901l-0.754-0.001zM46.144 8.87c-0.932 0-1.398 0.226-1.398 0.761 0 0.396 0.241 0.59 0.575 0.59 0.427 0 0.823-0.326 0.823-0.768v-0.582zM48.828 6.355c-0.279 0-0.497-0.218-0.497-0.505s0.225-0.497 0.513-0.497c0.287 0 0.52 0.21 0.512 0.497 0 0.303-0.217 0.505-0.528 0.505zM49.264 10.75h-0.839v-3.774h0.839v3.774zM51.592 10.75h-0.839v-5.505h0.839v5.505zM55.156 10.75l-0.062-0.435h-0.023c-0.256 0.35-0.629 0.52-1.103 0.52-0.675 0-1.157-0.474-1.157-1.111 0-0.931 0.807-1.413 2.205-1.413v-0.070c0-0.497-0.264-0.746-0.784-0.746-0.373 0-0.699 0.094-0.986 0.28l-0.171-0.552c0.35-0.218 0.784-0.326 1.297-0.326 0.986 0 1.483 0.52 1.483 1.561v1.39c0 0.381 0.017 0.676 0.054 0.901h-0.753zM55.039 8.87c-0.932 0-1.398 0.226-1.398 0.761 0 0.396 0.241 0.59 0.574 0.59 0.427 0 0.823-0.326 0.823-0.768v-0.582zM59.253 10.835c-0.535 0-0.931-0.226-1.187-0.668h-0.017l-0.048 0.582h-0.715c0.023-0.302 0.031-0.645 0.031-1.017v-4.488h0.839v2.284h0.016c0.249-0.419 0.651-0.629 1.203-0.629 0.909 0 1.546 0.777 1.546 1.91 0 1.171-0.707 2.026-1.67 2.026zM59.082 7.558c-0.483 0-0.924 0.419-0.924 1.002v0.66c0 0.52 0.397 0.947 0.91 0.947 0.628 0 1.002-0.512 1.002-1.327-0.001-0.761-0.39-1.282-0.987-1.282zM63.001 10.75h-0.838v-5.505h0.838v5.505zM67.566 9.065h-2.517c0.017 0.715 0.489 1.118 1.188 1.118 0.373 0 0.715-0.062 1.017-0.178l0.13 0.582c-0.357 0.155-0.776 0.233-1.265 0.233-1.181 0-1.88-0.746-1.88-1.902s0.715-2.027 1.785-2.027c0.963 0 1.569 0.715 1.569 1.794 0.003 0.147-0.004 0.279-0.028 0.38zM66.797 8.467c0-0.582-0.295-0.994-0.831-0.994-0.482 0-0.861 0.419-0.917 0.994h1.748zM72.648 10.835c-1.103 0-1.817-0.823-1.817-1.941 0-1.165 0.73-1.996 1.88-1.996 1.086 0 1.817 0.784 1.817 1.934 0 1.179-0.754 2.003-1.88 2.003zM72.68 7.512c-0.606 0-0.994 0.567-0.994 1.359 0 0.777 0.396 1.343 0.986 1.343s0.985-0.606 0.985-1.359c0.001-0.768-0.387-1.343-0.977-1.343zM79.037 10.75h-0.838v-2.167c0-0.667-0.256-1.002-0.761-1.002-0.497 0-0.839 0.427-0.839 0.924v2.244h-0.838v-2.695c0-0.334-0.009-0.691-0.031-1.079h0.738l0.039 0.582h0.023c0.224-0.403 0.683-0.66 1.195-0.66 0.791 0 1.311 0.606 1.311 1.592v2.26h-0zM84.523 7.605h-0.923v1.832c0 0.466 0.162 0.699 0.488 0.699 0.148 0 0.273-0.016 0.373-0.039l0.023 0.637c-0.163 0.062-0.382 0.094-0.651 0.094-0.661 0-1.055-0.365-1.055-1.32v-1.903h-0.55v-0.629h0.55v-0.691l0.823-0.249v0.939h0.923v0.63zM88.964 10.75h-0.839v-2.151c0-0.675-0.256-1.017-0.761-1.017-0.435 0-0.838 0.295-0.838 0.893v2.275h-0.839v-5.505h0.839v2.267h0.016c0.264-0.411 0.645-0.614 1.134-0.614 0.799 0 1.288 0.621 1.288 1.607v2.244zM93.249 9.065h-2.516c0.016 0.715 0.488 1.118 1.188 1.118 0.374 0 0.714-0.062 1.017-0.178l0.131 0.582c-0.357 0.155-0.777 0.233-1.266 0.233-1.181 0-1.88-0.746-1.88-1.902s0.715-2.027 1.785-2.027c0.963 0 1.569 0.715 1.569 1.794 0.003 0.147-0.005 0.279-0.028 0.38zM92.48 8.467c0-0.582-0.294-0.994-0.831-0.994-0.483 0-0.862 0.419-0.917 0.994h1.748z"></path>
</symbol>
<symbol id="icon-gs" viewBox="0 0 131 32">
<path fill="#000" style="fill: var(--color3, #00CFFF)" d="M0.544 1.293c-0.345 0.371-0.544 0.943-0.544 1.685v26.413c0 0.743 0.199 1.314 0.557 1.672l0.094 0.079 14.8-14.8v-0.333l-14.813-14.797-0.094 0.079z"></path>
<path fill="#000" style="fill: var(--color3, #FFC600)" d="M20.374 21.296l-4.937-4.938v-0.345l4.938-4.938 0.107 0.066 5.841 3.319c1.672 0.943 1.672 2.496 0 3.451l-5.841 3.319c-0.002 0-0.108 0.066-0.108 0.066z"></path>
<path fill="#000" style="fill: var(--color3, #F2314A)" d="M20.481 21.23l-5.043-5.045-14.894 14.894c0.544 0.584 1.459 0.651 2.483 0.079z"></path>
<path fill="#000" style="fill: var(--color3, #00F076)" d="M20.481 11.142l-17.454-9.915c-1.022-0.584-1.939-0.505-2.483 0.079l14.892 14.879z"></path>
<path fill="#000" style="fill: var(--color3, #000)" opacity="0.2" d="M20.374 21.123l-17.334 9.849c-0.969 0.557-1.832 0.518-2.389 0.013l-0.094 0.094 0.094 0.079c0.557 0.504 1.421 0.544 2.389-0.013l17.454-9.915-0.119-0.107z"></path>
<path fill="#000" style="fill: var(--color3, #000)" opacity="0.12" d="M26.321 17.738l-5.96 3.385 0.107 0.107 5.841-3.319c0.836-0.478 1.248-1.101 1.248-1.726-0.053 0.571-0.478 1.116-1.235 1.553z"></path>
<path fill="#fff" style="fill: var(--color1, #fff)" opacity="0.25" d="M3.027 1.399l23.294 13.234c0.757 0.425 1.182 0.982 1.248 1.553 0-0.623-0.412-1.248-1.248-1.726l-23.294-13.234c-1.672-0.956-3.027-0.16-3.027 1.752v0.173c0-1.911 1.354-2.694 3.027-1.752z"></path>
<path fill="#808285" style="fill: var(--color4, #000)" d="M33.255 15.347c0-4.231 3.556-7.676 7.787-7.676 2.339 0 4.004 0.919 5.259 2.115l-1.479 1.479c-0.898-0.843-2.115-1.496-3.782-1.496-3.090 0-5.505 2.488-5.505 5.577s2.415 5.581 5.503 5.581c2.003 0 3.143-0.804 3.874-1.537 0.599-0.599 0.991-1.459 1.143-2.639h-5.014v-2.092h7.058c0.074 0.375 0.113 0.823 0.113 1.309 0 1.571-0.431 3.519-1.818 4.906-1.35 1.404-3.070 2.154-5.355 2.154-4.233 0-7.789-3.442-7.789-7.676zM53.918 13.139c-2.733 0-4.964 2.079-4.964 4.941 0 2.848 2.229 4.941 4.964 4.941s4.961-2.097 4.961-4.943c0-2.862-2.228-4.941-4.961-4.94zM53.918 21.078c-1.496 0-2.79-1.235-2.79-2.996 0-1.779 1.291-2.996 2.79-2.996 1.496 0 2.788 1.216 2.788 2.996 0 1.76-1.29 2.996-2.788 2.996zM64.742 13.139c-2.733 0-4.961 2.079-4.961 4.941 0 2.848 2.228 4.941 4.961 4.941s4.961-2.097 4.961-4.943c0-2.862-2.226-4.941-4.961-4.94zM64.742 21.078c-1.496 0-2.79-1.235-2.79-2.996 0-1.779 1.291-2.996 2.79-2.996 1.496 0 2.79 1.216 2.79 2.996 0 1.76-1.293 2.996-2.79 2.996zM78.026 13.439v0.804h-0.074c-0.486-0.583-1.422-1.106-2.601-1.106-2.472 0-4.74 2.173-4.74 4.964 0 2.769 2.266 4.924 4.74 4.924 1.178 0 2.115-0.523 2.601-1.122h0.074v0.71c0 1.89-1.011 2.903-2.639 2.903-1.33 0-2.153-0.956-2.491-1.758l-1.892 0.786c0.542 1.309 1.986 2.92 4.381 2.92 2.544 0 4.698-1.5 4.698-5.15v-8.877zM75.537 21.078c-1.496 0-2.754-1.256-2.754-2.977 0-1.74 1.256-3.014 2.754-3.014 1.479 0 2.639 1.272 2.639 3.014 0.002 1.721-1.159 2.977-2.639 2.977zM81.582 8.196h2.173v14.529h-2.173zM89.71 21.078c-1.104 0-1.892-0.507-2.394-1.496l6.609-2.736-0.228-0.562c-0.41-1.103-1.666-3.145-4.231-3.145-2.546 0-4.662 2.003-4.662 4.943 0 2.769 2.097 4.941 4.906 4.941 2.266 0 3.577-1.383 4.12-2.191l-1.685-1.122c-0.563 0.825-1.332 1.369-2.434 1.367zM89.541 15.048c0.86 0 1.59 0.431 1.834 1.048l-4.42 1.835c-0.055-1.91 1.48-2.883 2.586-2.883zM103.46 8.196h-5.195v14.529h2.168v-5.503h3.028c2.404 0 4.767-1.74 4.767-4.514 0-2.769-2.362-4.51-4.764-4.51zM103.516 15.198h-3.083v-4.982h3.083c1.621 0 2.544 1.345 2.544 2.491 0 1.127-0.923 2.491-2.544 2.491zM111.591 22.724v-14.529h-2.168v14.529zM121.33 22.699v-5.569c0-2.58-1.927-4.018-4.415-4.018-1.567 0-3.193 0.693-3.866 2.225l1.924 0.802c0.412-0.802 1.177-1.065 1.982-1.065 1.12 0 2.26 0.673 2.278 1.871v0.15c-0.392-0.224-1.232-0.562-2.262-0.562-2.074 0-4.186 1.14-4.186 3.271 0 1.945 1.701 3.196 3.608 3.196 1.459 0 2.262-0.654 2.765-1.419h0.074v1.122h2.095zM116.657 21.075c-0.71 0-1.701-0.355-1.701-1.232 0-1.122 1.235-1.555 2.3-1.555 0.954 0 1.401 0.205 1.982 0.486-0.166 1.304-1.269 2.284-2.581 2.3zM128.954 13.429l-2.486 6.297h-0.074l-2.58-6.297h-2.336l3.868 8.804-2.207 4.896h2.262l5.962-13.701z"></path>
</symbol>
</defs>
</svg>
