<svg aria-hidden="true" style="position: absolute; width: 0; height: 0; overflow: hidden;" version="1.1" xmlns="http://www.w3.org/2000/svg" xmlns:xlink="http://www.w3.org/1999/xlink">
<defs>
<symbol id="icon-right" viewBox="0 0 32 32">
<path fill="#d64374" style="fill: var(--color1, #d64374)" d="M24.902 17.259l-14.249 14.249c-0.315 0.316-0.751 0.512-1.232 0.512-0.002 0-0.004 0-0.005 0h0c-0.002 0-0.005 0-0.007 0-0.482 0-0.917-0.196-1.232-0.512l-0-0-1.050-1.047c-0.316-0.317-0.512-0.755-0.512-1.238s0.196-0.921 0.512-1.238l11.966-11.966-11.98-11.98c-0.315-0.315-0.51-0.75-0.51-1.23 0-0.003 0-0.005 0-0.008v0c0-0.469 0.183-0.908 0.51-1.24l1.052-1.048c0.315-0.316 0.751-0.512 1.232-0.512 0.001 0 0.002 0 0.003 0h-0c0.002 0 0.005 0 0.007 0 0.482 0 0.917 0.196 1.232 0.512l14.262 14.26c0.317 0.315 0.512 0.751 0.512 1.233 0 0.004 0 0.008-0 0.012v-0.001c0 0.471-0.183 0.913-0.512 1.242z"></path>
</symbol>
<symbol id="icon-left" viewBox="0 0 32 32">
<path fill="#d64374" style="fill: var(--color1, #d64374)" d="M7.117 17.259l14.249 14.249c0.315 0.316 0.751 0.512 1.232 0.512 0.002 0 0.004 0 0.005 0h-0c0.002 0 0.005 0 0.007 0 0.482 0 0.917-0.196 1.232-0.512l0-0 1.050-1.047c0.316-0.317 0.512-0.755 0.512-1.238s-0.196-0.921-0.512-1.238l-11.966-11.966 11.98-11.98c0.315-0.315 0.51-0.75 0.51-1.23 0-0.003 0-0.005-0-0.008v0c0-0.003 0-0.006 0-0.009 0-0.481-0.195-0.916-0.51-1.231v0l-1.052-1.048c-0.315-0.316-0.751-0.512-1.232-0.512-0.001 0-0.002 0-0.003 0h0c-0.002 0-0.005 0-0.007 0-0.482 0-0.917 0.196-1.232 0.512l-14.262 14.26c-0.316 0.315-0.512 0.751-0.512 1.233 0 0.004 0 0.008 0 0.012v-0.001c0 0.471 0.183 0.913 0.512 1.242z"></path>
</symbol>
</defs>
</svg>
