<!-- Generated by IcoMoon.io -->
<svg version="1.1" xmlns="http://www.w3.org/2000/svg" width="32" height="32" viewBox="0 0 32 32">
<title>three</title>
<path fill="#ededed" d="M16 0c-8.836 0-16 7.164-16 16s7.164 16 16 16c8.836 0 16-7.163 16-16s-7.164-16-16-16z"></path>
<path fill="#d07c40" d="M6.081 9.595h19.847v15.992h-19.827l-0.020-15.992z"></path>
<path fill="#efc75e" d="M26.881 13.445c0 0.008-21.742-0.006-21.763 0v12.134c0 0.001-0.002 0.96-0.006 2.142 2.856 2.654 6.681 4.279 10.887 4.279 4.199 0 8.018-1.62 10.873-4.265-0.010-1.187-0.018-2.151-0.018-2.152 0-5.033 0.026-12.139 0.026-12.139zM24.007 10.883v2.087l1.921-0.374v-3zM8.003 12.807v-1.924l-1.922-1.288v3.195z"></path>
<path fill="#dba250" d="M8.003 13.445v-2.562l-2.885 2.562h2.885zM24.007 10.883v2.562h2.874l-2.874-2.562z"></path>
<path fill="#cba950" d="M22.74 18.419c0-0.268-0.232-0.508-0.5-0.508s-0.528 0.239-0.528 0.508c-0.001 3.251-2.445 5.886-5.696 5.886s-5.759-2.635-5.76-5.886c0-0.268-0.227-0.508-0.496-0.508s-0.53 0.239-0.53 0.508c0 3.82 2.968 6.915 6.787 6.915s6.723-3.096 6.723-6.915z"></path>
<path fill="#d07c40" d="M9.751 16.956c-0.005-0-0.010-0-0.016-0-0.438 0-0.794 0.355-0.794 0.794s0.355 0.794 0.794 0.794c0.006 0 0.011-0 0.017-0h-0.001c0.438 0 0.804-0.355 0.804-0.793s-0.366-0.794-0.804-0.794zM22.231 16.956c-0.438 0-0.793 0.355-0.793 0.793s0.355 0.793 0.793 0.793v0c0.438 0 0.804-0.355 0.804-0.793s-0.366-0.794-0.804-0.794z"></path>
<path fill="#fff" d="M22.74 18.099c0-0.268-0.232-0.508-0.5-0.508s-0.528 0.239-0.528 0.508c-0.001 3.251-2.445 5.886-5.696 5.886s-5.759-2.635-5.76-5.886c0-0.268-0.227-0.508-0.496-0.508s-0.53 0.239-0.53 0.508c0 3.82 2.968 6.915 6.787 6.915s6.723-3.096 6.723-6.915z"></path>
</svg>
