<!-- Generated by IcoMoon.io -->
<svg version="1.1" xmlns="http://www.w3.org/2000/svg" width="32" height="32" viewBox="0 0 32 32">
<title>two</title>
<path fill="#324d5b" d="M32 16c0 8.837-7.163 16-16 16s-16-7.163-16-16c0-8.837 7.163-16 16-16s16 7.163 16 16z"></path>
<path fill="#efc75e" d="M23.524 13.729c-1.739-3.558-5.293-4.765-7.519-4.765s-5.789 1.207-7.528 4.765c-1.739 3.558-0.339 6.857 1.358 9.056s1.876 3.17 1.982 3.709c0.106 0.539-0.234 1.38 0.414 1.962s3.773 0.669 3.773 0.669 3.115-0.086 3.763-0.669c0.648-0.582 0.303-1.423 0.41-1.962s0.283-1.51 1.98-3.709 3.105-5.498 1.367-9.056z"></path>
<path fill="#ddb857" d="M18.814 16.348c-0.084-0.017-0.181-0.028-0.281-0.029h-0.001l-0.029 0.003-0.263 0.027c-0.736 0.14-1.293 0.794-1.293 1.584v0.949h-2.537v-0.949c0-0.789-0.556-1.443-1.291-1.584l-0.294-0.030c-0.098 0-0.191 0.012-0.284 0.029-0.76 0.124-1.342 0.779-1.342 1.574 0 0.884 0.716 1.6 1.6 1.6v0h0.96v9.597h0.64v-9.597h2.56v9.597h0.64v-9.597h0.96c0.884 0 1.6-0.716 1.6-1.6v0c0-0.796-0.584-1.452-1.346-1.574zM11.84 17.922c0.001-0.519 0.415-0.942 0.93-0.957l0.001-0h0.054c0.525 0 0.951 0.723 0.951 1.614l0.003 0.303h-0.98c-0.53 0-0.96-0.43-0.96-0.96zM18.56 18.882h-0.982l0.003-0.303c0-0.891 0.426-1.614 0.951-1.614h0.056c0.523 0.008 0.944 0.434 0.944 0.958 0 0.529-0.429 0.959-0.959 0.959-0.005 0-0.010-0-0.015-0h0.001z"></path>
<path fill="#5a6f7a" d="M16 2.56c-0.353 0-0.64 0.287-0.64 0.64v0 2.56c0 0.353 0.287 0.64 0.64 0.64s0.64-0.287 0.64-0.64v0-2.56c0-0.353-0.287-0.64-0.64-0.64v0zM21.688 3.884c-0.324-0.131-0.695 0.020-0.829 0.336l-0.97 2.287c-0.134 0.316 0.020 0.678 0.343 0.808s0.695-0.020 0.829-0.335l0.97-2.287c0.134-0.316-0.020-0.678-0.343-0.809zM11.141 4.22c-0.134-0.316-0.505-0.466-0.829-0.336s-0.477 0.493-0.343 0.809l0.97 2.287c0.134 0.316 0.505 0.466 0.829 0.335s0.477-0.492 0.343-0.808l-0.97-2.287zM26.060 7.21c-0.108-0.108-0.257-0.175-0.422-0.175s-0.314 0.067-0.422 0.175l-1.687 1.687c-0.103 0.107-0.167 0.253-0.167 0.414 0 0.33 0.267 0.597 0.597 0.597 0.161 0 0.307-0.063 0.414-0.167l1.687-1.687c0.108-0.108 0.175-0.257 0.175-0.422s-0.067-0.314-0.175-0.422v0zM6.783 7.21c-0.108-0.108-0.257-0.175-0.422-0.175-0.329 0-0.597 0.267-0.597 0.597 0 0.165 0.067 0.314 0.175 0.422l1.687 1.687c0.107 0.103 0.253 0.167 0.414 0.167 0.33 0 0.597-0.267 0.597-0.597 0-0.161-0.063-0.307-0.167-0.414l-1.687-1.687z"></path>
<path fill="#d7b354" d="M13.192 28.455c-0.648-0.582-0.308-1.423-0.414-1.962s-0.286-1.51-1.982-3.709c-1.697-2.199-3.098-5.498-1.358-9.056 1.619-3.312 4.817-4.586 7.048-4.746-0.165-0.012-0.326-0.019-0.48-0.019-2.227 0-5.789 1.207-7.528 4.765s-0.339 6.857 1.358 9.056c1.696 2.199 1.876 3.17 1.982 3.709s-0.234 1.38 0.414 1.962c0.648 0.582 3.773 0.669 3.773 0.669s0.188-0.005 0.479-0.021c-0.902-0.051-2.803-0.208-3.292-0.647z"></path>
<path fill="#fff" d="M19.134 16.348c-0.084-0.017-0.181-0.028-0.281-0.029h-0.001l-0.029 0.003-0.263 0.027c-0.736 0.14-1.293 0.794-1.293 1.584v0.949h-2.537v-0.949c0-0.789-0.556-1.443-1.291-1.584l-0.294-0.030c-0.098 0-0.191 0.012-0.284 0.029-0.76 0.124-1.342 0.779-1.342 1.574 0 0.884 0.716 1.6 1.6 1.6v0h0.96v9.597h0.64v-9.597h2.56v9.597h0.64v-9.597h0.96c0.884 0 1.6-0.716 1.6-1.6v0c0-0.796-0.584-1.452-1.346-1.574zM12.16 17.922c0.001-0.519 0.415-0.942 0.93-0.957l0.001-0h0.054c0.525 0 0.951 0.723 0.951 1.614l0.003 0.303h-0.98c-0.53 0-0.96-0.43-0.96-0.96zM18.88 18.882h-0.982l0.003-0.303c0-0.891 0.426-1.614 0.951-1.614h0.056c0.523 0.008 0.944 0.434 0.944 0.958 0 0.529-0.429 0.959-0.959 0.959-0.005 0-0.010-0-0.015-0h0.001z"></path>
<path fill="#efefef" d="M19.767 28.135c-0.648 0.583-3.763 0.669-3.763 0.669s-3.124-0.086-3.773-0.669c-0.178-0.158-0.307-0.369-0.363-0.608l-0.002-0.008h-0.027v3.93c1.248 0.349 2.68 0.55 4.16 0.55s2.912-0.201 4.272-0.576l-0.112 0.026v-3.93h-0.030c-0.056 0.247-0.185 0.457-0.362 0.614l-0.001 0.001z"></path>
</svg>
